<?xml version="1.0" encoding="UTF-8"?>
<svg id="Layer_1" data-name="Layer 1" xmlns="http://www.w3.org/2000/svg" xmlns:xlink="http://www.w3.org/1999/xlink" viewBox="0 0 657.88 397.15">
  <defs>
    <style>
      .cls-1 {
        fill: url(#radial-gradient-7);
      }

      .cls-2 {
        fill: url(#radial-gradient-6);
      }

      .cls-3 {
        fill: url(#radial-gradient-5);
      }

      .cls-4 {
        fill: url(#radial-gradient-4);
      }

      .cls-5 {
        fill: url(#radial-gradient-9);
      }

      .cls-6 {
        fill: url(#radial-gradient-8);
      }

      .cls-7 {
        fill: url(#radial-gradient-3);
      }

      .cls-8 {
        fill: url(#radial-gradient-2);
      }

      .cls-9 {
        fill: url(#radial-gradient);
      }

      .cls-10 {
        fill: url(#linear-gradient);
      }

      .cls-11 {
        fill: url(#radial-gradient-16);
      }

      .cls-12 {
        fill: url(#radial-gradient-12);
      }

      .cls-13 {
        fill: url(#radial-gradient-14);
      }

      .cls-14 {
        fill: url(#radial-gradient-13);
      }

      .cls-15 {
        fill: url(#radial-gradient-10);
      }

      .cls-16 {
        fill: url(#radial-gradient-17);
      }

      .cls-17 {
        fill: url(#radial-gradient-19);
      }

      .cls-18 {
        fill: url(#radial-gradient-11);
      }

      .cls-19 {
        fill: url(#radial-gradient-18);
      }

      .cls-20 {
        fill: url(#radial-gradient-15);
      }

      .cls-21 {
        fill: url(#radial-gradient-25);
      }

      .cls-22 {
        fill: url(#radial-gradient-22);
      }

      .cls-23 {
        fill: url(#radial-gradient-28);
      }

      .cls-24 {
        fill: url(#radial-gradient-23);
      }

      .cls-25 {
        fill: url(#radial-gradient-20);
      }

      .cls-26 {
        fill: url(#radial-gradient-24);
      }

      .cls-27 {
        fill: url(#radial-gradient-26);
      }

      .cls-28 {
        fill: url(#radial-gradient-27);
      }

      .cls-29 {
        fill: url(#radial-gradient-21);
      }

      .cls-30 {
        stroke: #249ffa;
      }

      .cls-30, .cls-31 {
        fill: none;
        stroke-miterlimit: 10;
        stroke-width: .5px;
      }

      .cls-31 {
        stroke: url(#linear-gradient-2);
      }
    </style>
    <linearGradient id="linear-gradient" x1="196.99" y1="277.46" x2="132.77" y2="166.24" gradientUnits="userSpaceOnUse">
      <stop offset=".07" stop-color="#1f2f71"/>
      <stop offset=".38" stop-color="#249ffa"/>
      <stop offset=".65" stop-color="#223aa2"/>
      <stop offset="1" stop-color="#1e3071"/>
    </linearGradient>
    <linearGradient id="linear-gradient-2" x1="220.22" y1="213.65" x2="176.59" y2="213.65" gradientUnits="userSpaceOnUse">
      <stop offset=".07" stop-color="#fff"/>
      <stop offset="1" stop-color="#249ffa"/>
    </linearGradient>
    <radialGradient id="radial-gradient" cx="353.03" cy="245.8" fx="353.03" fy="245.8" r="9.37" gradientUnits="userSpaceOnUse">
      <stop offset="0" stop-color="#223a7a"/>
      <stop offset="1" stop-color="#1e3071"/>
    </radialGradient>
    <radialGradient id="radial-gradient-2" cx="287.81" cy="243.45" fx="287.81" fy="243.45" r="9.06" xlink:href="#radial-gradient"/>
    <radialGradient id="radial-gradient-3" cx="257.58" cy="245.89" fx="257.58" fy="245.89" r="7.38" xlink:href="#radial-gradient"/>
    <radialGradient id="radial-gradient-4" cx="333.33" cy="245.89" fx="333.33" fy="245.89" r="7.02" xlink:href="#radial-gradient"/>
    <radialGradient id="radial-gradient-5" cx="371.29" cy="245.92" fx="371.29" fy="245.92" r="6.66" xlink:href="#radial-gradient"/>
    <radialGradient id="radial-gradient-6" cx="319.71" cy="245.9" fx="319.71" fy="245.9" r="7.29" xlink:href="#radial-gradient"/>
    <radialGradient id="radial-gradient-7" cx="243.58" cy="245.91" fx="243.58" fy="245.91" r="6.81" xlink:href="#radial-gradient"/>
    <radialGradient id="radial-gradient-8" cx="380.69" cy="245.8" fx="380.69" fy="245.8" r="5.45" xlink:href="#radial-gradient"/>
    <radialGradient id="radial-gradient-9" cx="377.33" cy="233.96" fx="377.33" fy="233.96" r="8.17" xlink:href="#radial-gradient"/>
    <radialGradient id="radial-gradient-10" cx="271.9" cy="248.25" fx="271.9" fy="248.25" r="8.64" xlink:href="#radial-gradient"/>
    <radialGradient id="radial-gradient-11" cx="303.67" cy="246.02" fx="303.67" fy="246.02" r="7.47" xlink:href="#radial-gradient"/>
    <radialGradient id="radial-gradient-12" cx="411.69" cy="245.87" fx="411.69" fy="245.87" r="7.23" xlink:href="#radial-gradient"/>
    <radialGradient id="radial-gradient-13" cx="395.79" cy="243.55" fx="395.79" fy="243.55" r="8.62" xlink:href="#radial-gradient"/>
    <radialGradient id="radial-gradient-14" cx="483.97" cy="245.87" fx="483.97" fy="245.87" r="6.9" xlink:href="#radial-gradient"/>
    <radialGradient id="radial-gradient-15" cx="498.89" cy="243.44" fx="498.89" fy="243.44" r="8.37" xlink:href="#radial-gradient"/>
    <radialGradient id="radial-gradient-16" cx="469.81" cy="245.87" fx="469.81" fy="245.87" r="7.23" xlink:href="#radial-gradient"/>
    <radialGradient id="radial-gradient-17" cx="457.53" cy="244.04" fx="457.53" fy="244.04" r="7.36" xlink:href="#radial-gradient"/>
    <radialGradient id="radial-gradient-18" cx="426.55" cy="245.87" fx="426.55" fy="245.87" r="7.23" xlink:href="#radial-gradient"/>
    <radialGradient id="radial-gradient-19" cx="442.44" cy="248.04" fx="442.44" fy="248.04" r="8.51" xlink:href="#radial-gradient"/>
    <radialGradient id="radial-gradient-20" cx="260.51" cy="200.36" fx="260.51" fy="200.36" r="21.65" xlink:href="#radial-gradient"/>
    <radialGradient id="radial-gradient-21" cx="302.81" cy="202.39" fx="302.81" fy="202.39" r="14.53" xlink:href="#radial-gradient"/>
    <radialGradient id="radial-gradient-22" cx="333.25" cy="202.39" fx="333.25" fy="202.39" r="14.53" xlink:href="#radial-gradient"/>
    <radialGradient id="radial-gradient-23" cx="368.16" cy="203.16" fx="368.16" fy="203.16" r="17.48" xlink:href="#radial-gradient"/>
    <radialGradient id="radial-gradient-24" cx="456.47" cy="203.16" fx="456.47" fy="203.16" r="17.48" xlink:href="#radial-gradient"/>
    <radialGradient id="radial-gradient-25" cx="412.74" cy="203.16" fx="412.74" fy="203.16" r="17.48" xlink:href="#radial-gradient"/>
    <radialGradient id="radial-gradient-26" cx="394" cy="194.52" fx="394" fy="194.52" r="16.11" xlink:href="#radial-gradient"/>
    <radialGradient id="radial-gradient-27" cx="491.93" cy="191.31" fx="491.93" fy="191.31" r="6.13" xlink:href="#radial-gradient"/>
    <radialGradient id="radial-gradient-28" cx="491.15" cy="194.56" fx="491.15" fy="194.56" r="17.8" xlink:href="#radial-gradient"/>
  </defs>
  <g>
    <path class="cls-10" d="M184.65,249.96l1.47,12.43-9.56,16.56-9.56-16.56,1.46-12.42c.43-3.71,3.58-6.51,7.32-6.51h1.56c3.73,0,6.88,2.79,7.32,6.5ZM188.73,262.54l11.46,3.69-14.45-29.17,2.99,25.47ZM153.21,266.23l11.43-3.69,2.99-25.47-14.42,29.17ZM173.52,186.95l-34.79,70.24,3.75,7.28,28.75-58.05,2.29-19.48ZM170.62,211.63l-27.04,54.6h7.8l16.87-34.37,2.38-20.23ZM175.31,171.7l1.25-10.63c.01-.1-43.13,85.84-43.13,85.84l4.29,8.34,36.41-73.5,1.18-10.05ZM176.81,161.07l2.43,20.68,36.41,73.5,4.29-8.34s-43.14-85.94-43.13-85.84ZM182.14,206.43l28.75,58.05,3.75-7.28-34.79-70.24,2.29,19.48ZM185.13,231.86l17.02,34.37h7.64s-27.04-54.6-27.04-54.6l2.38,20.23Z"/>
    <polyline class="cls-31" points="176.81 161.07 219.94 246.91 209.79 266.23"/>
    <line class="cls-30" x1="176.56" y1="161.07" x2="133.43" y2="246.91"/>
  </g>
  <g>
    <g>
      <g>
        <path class="cls-9" d="M345.02,238.57c.85.11.85.83,1.07,1.49,1.02-.69,2.13-1.24,3.34-1.51,1.85-.41,4.44-.36,5.27,1.67,1.26-.9,2.8-1.61,4.35-1.81,2.87-.36,4.74.6,4.93,3.65v11.18s-4.05,0-4.05,0v-9.95c0-.14-.11-.65-.16-.8-.47-1.4-2.79-.8-3.84-.48-.28.09-.6.17-.85.32v10.91h-4.11v-10.38c0-.1-.21-.58-.28-.68-.55-.83-1.99-.57-2.83-.39-.58.12-1.21.3-1.75.54v10.91h-4.05v-14.67h2.96Z"/>
        <path class="cls-8" d="M284.74,233.66c.29.04.61.37.61.67v6.11c1.18-1.12,2.68-1.83,4.3-2.02,2.57-.31,4.73.3,4.93,3.22s-.14,5.82,0,8.64c-.03.21.4.67.56.67h.93v2.29h-7.26v-2.29h1.71v-7.82s-.06-.39-.08-.46c-.1-.43-.29-.76-.7-.95-.83-.38-2.34-.13-3.23.06-.39.08-.78.2-1.16.3v8.86h1.71v2.29h-7.47v-2.29h1.15c.12,0,.6-.53.56-.72v-13.29c.04-.27-.36-.88-.61-.88h-1.15v-2.4h5.2Z"/>
        <path class="cls-7" d="M264.76,250.95v1.97c-1.36.72-3.84.89-4.91-.39-.23-.27-.33-.58-.51-.88-1.23,1.52-3.13,1.91-5.01,1.76-2.51-.2-4.02-2.15-3.92-4.62.17-4.44,5.52-4.65,8.8-3.92v-1.89c0-.72-.61-1.39-1.25-1.63-1.54-.58-3.55-.03-4.7,1.12h-1.84v-2.96c.89-.47,1.98-.75,2.98-.92,3.4-.56,8.6-.71,8.87,3.85.15,2.56-.12,5.27,0,7.85-.03.21.4.67.56.67h.93ZM259.21,246.84c-1.41-.17-4.04-.59-4.68,1.1-.33.89-.18,2.26.72,2.78,1.21.7,2.98.18,3.94-.74l.02-3.14Z"/>
        <path class="cls-4" d="M339.77,253.24h-2.37c-.06,0-.54-.14-.63-.17-.49-.2-.71-.75-.87-1.22-.55.51-1.1.91-1.81,1.18-2.93,1.09-6.93.11-7.18-3.49-.35-5.05,4.98-5.65,8.75-4.78v-1.89c0-.42-.38-.93-.73-1.14-1.27-.75-3.61-.4-4.89.21-.18.08-.81.53-.86.53h-1.07l-.08-.08v-2.8c.99-.43,2.02-.79,3.08-1,3.46-.65,8.6-.4,8.65,4.22v10.43ZM332.88,246.8c-1.33.14-2.12.87-2.02,2.25.15,1.94,2.4,2.17,3.82,1.42.16-.09.9-.57.95-.7l.02-2.79-.08-.08c-.89-.09-1.8-.19-2.7-.1Z"/>
        <path class="cls-3" d="M376.05,242.36h-1.25s-.58-.39-.75-.47c-1.04-.48-2.92-.7-3.99-.28-.68.27-1.12,1.09-.58,1.7.63.71,2.96.81,3.93,1.03,2.23.51,3.45,1.58,3.56,3.96.2,4.39-3.55,5.32-7.17,5.09-1.39-.08-2.85-.48-4.03-1.2v-3.01s.06.05.08.05h.96c.43,0,.62.33,1,.54,1.12.64,2.79.82,4.05.56.66-.14,1.32-.54,1.33-1.29,0-1.55-2.45-1.48-3.54-1.7-2.09-.41-3.83-1.42-3.99-3.74-.3-4.37,3.39-5.51,7.07-5.15,1.15.11,2.34.4,3.33.99v2.91Z"/>
        <polygon class="cls-2" points="316.35 238.57 320.11 248.71 323.5 238.57 326.96 238.57 326.96 239.67 321.83 253.23 317.8 253.23 312.45 239.67 312.45 238.57 316.35 238.57"/>
        <path class="cls-1" d="M249.82,238.57v5.98h-2.64l-.4-3.41h-3.63v9.82h1.76v2.29h-7.58v-2.29h1.2c.09,0,.56-.45.51-.61l-.03-8.83c0-.14-.39-.48-.48-.48h-1.2v-2.45h12.48Z"/>
        <path class="cls-6" d="M382.66,238.36c.11,3.94.02,7.91.05,11.86l-4.06,3.03v-14.88h4Z"/>
        <path class="cls-5" d="M377.7,229.66v1.36c0,.29.99,1.41,1.26,1.63.34.27,1.75,1.02,2.13,1.02h6.96v.59h-7.02c-.46,0-2.01.9-2.38,1.25-.17.17-.96,1.21-.96,1.39v1.36h-.75v-1.36c0-.32-1.02-1.46-1.31-1.68s-1.71-.96-2.03-.96h-7.02v-.59h6.96c.38,0,1.8-.74,2.13-1.02.26-.21,1.26-1.34,1.26-1.63v-1.36h.75Z"/>
        <path class="cls-15" d="M278.02,241.03h.99v-2.45h-5.15c-4.65-1.28-10.27,2.26-6.96,7.28l.96.9c-1.64.98-2.42,3.32-.83,4.72.07.06.37.18.29.27-1.69.61-2.97,2.07-2.39,3.96.54,1.74,2.85,2.24,4.44,2.39,2.83.26,7.71.04,9.14-2.91.64-1.32.76-3.81-.37-4.9-1.64-1.59-5.67-.89-7.82-1.04-.92-.06-1.31-.29-1.25-1.26,0-.14.03-.61.18-.61.16,0,.56.16.77.2,2.11.38,4.49.17,6.25-1.14,1.56-1.16,1.81-3.19,1.23-4.95.01-.17.37-.46.51-.46ZM273.86,252.55c1.05.08,1.59.56,1.4,1.67-.26,1.58-3.63,1.62-4.82,1.54-1.09-.08-2.15-.45-2.26-1.68-.02-.23,0-1.45.19-1.51h5.49ZM274.14,243.72c-.27,2.46-3.81,2.67-4.46.36-.43-1.53.13-3.29,1.89-3.46,2.06-.2,2.77,1.26,2.57,3.1Z"/>
        <path class="cls-18" d="M311.12,238.57h-5.98v2.45h1.92v8.83c-.6.32-1.34.55-2.02.65-1.05.15-2.63.24-3.01-1.01-.05-.16-.15-.57-.15-.71v-10.22h-5.71v2.45h1.04c.2,0,.64.42.61.67.14,2.77-.19,5.74,0,8.49.3,4.33,5.78,3.73,8.43,1.97,1.48-.98,3.18-2.31,4.59-3.41.1-.08.18-.17.3-.24.02-.04-.03-.07-.03-.08v-9.84Z"/>
      </g>
      <g>
        <path class="cls-12" d="M411.98,238.31c-1.44,0-2.71.33-3.81,1s-1.93,1.57-2.51,2.72c-.57,1.15-.86,2.46-.86,3.93,0,2.32.65,4.15,1.94,5.47,1.29,1.33,3.13,1.99,5.51,1.99,2.19,0,4.11-.47,5.77-1.42v-2.69h-1.26c-1.16.82-2.46,1.23-3.89,1.23-1.28,0-2.22-.3-2.82-.88-.61-.59-.95-1.54-1.05-2.86h9.52s0-.05,0-.09c0-.04,0-.1.01-.18,0-.08,0-.15,0-.23.02-.35.03-.6.03-.77,0-2.3-.54-4.09-1.61-5.34-1.07-1.26-2.73-1.89-4.99-1.89ZM409.07,244.34c.23-2.3,1.2-3.45,2.91-3.45.4,0,.75.06,1.06.19s.55.29.73.49c.18.2.33.46.45.76.12.31.2.61.25.93.05.31.07.67.08,1.07h-5.48Z"/>
        <path class="cls-14" d="M402.11,233.72c-.21-.05-.48-.08-.82-.08h-2.49v5.94c-.96-.85-2.24-1.27-3.84-1.27-.78,0-1.55.14-2.3.41-.73.28-1.36.69-1.89,1.22-.53.53-.95,1.14-1.24,1.82-.29.69-.51,1.39-.64,2.12s-.21,1.48-.21,2.28c0,1.23.15,2.29.46,3.2.42,1.27,1.09,2.28,2.02,3.01.93.73,2.06,1.09,3.39,1.09,1.76,0,3.2-.62,4.32-1.87.04.26.07.45.1.59.03.14.08.31.16.5s.2.33.35.42c.15.09.34.14.57.14h2.83v-17.3c0-.52-.02-.91-.05-1.17-.08-.56-.32-.91-.72-1.04ZM398.8,249.31c-.51.43-1,.75-1.47.96-.47.21-1,.32-1.59.32-.62,0-1.14-.13-1.54-.4s-.71-.65-.89-1.14c-.19-.49-.31-.97-.38-1.44s-.1-1.02-.1-1.65c0-3.01,1.13-4.51,3.39-4.51,1.07,0,1.93.24,2.58.72v7.13Z"/>
        <path class="cls-13" d="M485.48,250.46c-.64,0-1.19-.12-1.66-.36-.47-.24-.84-.57-1.11-.99-.27-.42-.47-.9-.59-1.42-.13-.52-.19-1.1-.19-1.73s.07-1.18.2-1.71c.13-.53.34-1.02.61-1.47.28-.45.66-.81,1.15-1.07.49-.26,1.06-.39,1.71-.39.55,0,1.09.09,1.62.27s.97.44,1.32.79h1.56v-3.05c-1.19-.67-2.69-1.01-4.5-1.01-2.28,0-4.15.69-5.62,2.08-1.47,1.38-2.2,3.23-2.2,5.53s.67,4.17,2.01,5.5,3.21,2,5.6,2c1.87,0,3.45-.45,4.76-1.34v-2.8h-1.39c-.78.78-1.88,1.17-3.28,1.17Z"/>
        <path class="cls-20" d="M505.54,242.43c0-1.35-.31-2.37-.94-3.07-.62-.7-1.62-1.05-3-1.05-.92,0-1.84.16-2.77.47-.92.32-1.77.74-2.52,1.29v-4.14c0-.53-.02-.93-.05-1.19-.06-.45-.21-.74-.44-.89s-.6-.22-1.1-.22h-2.49v19.6h4.09v-10.97c1.26-.44,2.36-.67,3.32-.67.32,0,.59.03.82.08.4.12.67.32.8.61.13.29.2.68.2,1.17v9.7l4.09-2.9"/>
        <path class="cls-11" d="M470.1,238.31c-1.44,0-2.71.33-3.81,1s-1.93,1.57-2.51,2.72c-.57,1.15-.86,2.46-.86,3.93,0,2.32.65,4.15,1.94,5.47,1.29,1.33,3.13,1.99,5.51,1.99,2.19,0,4.11-.47,5.77-1.42v-2.69h-1.26c-1.16.82-2.46,1.23-3.89,1.23-1.28,0-2.22-.3-2.82-.88-.61-.59-.95-1.54-1.05-2.86h9.52s0-.05,0-.09c0-.04,0-.1.01-.18,0-.08,0-.15,0-.23.02-.35.03-.6.03-.77,0-2.3-.54-4.09-1.61-5.34-1.07-1.26-2.73-1.89-4.99-1.89ZM467.19,244.34c.23-2.3,1.2-3.45,2.91-3.45.4,0,.75.06,1.06.19s.55.29.73.49c.18.2.33.46.45.76.12.31.2.61.25.93.05.31.07.67.08,1.07h-5.48Z"/>
        <path class="cls-16" d="M459.37,250.22c-.3-.25-.44-.72-.44-1.41v-7.52h2.97v-2.75h-2.97v-3.92h-4.09v3.92h-1.74v2.75h1.74v7.99c0,1.43.38,2.48,1.13,3.16.76.67,1.89,1.01,3.39,1.01.87,0,1.74-.13,2.58-.38v-2.47h-1.12c-.67,0-1.16-.13-1.46-.38Z"/>
        <path class="cls-19" d="M426.84,238.31c-1.44,0-2.71.33-3.81,1s-1.93,1.57-2.51,2.72c-.57,1.15-.86,2.46-.86,3.93,0,2.32.65,4.15,1.94,5.47,1.29,1.33,3.13,1.99,5.51,1.99,2.19,0,4.11-.47,5.77-1.42v-2.69h-1.26c-1.16.82-2.46,1.23-3.89,1.23-1.28,0-2.22-.3-2.82-.88-.61-.59-.95-1.54-1.05-2.86h9.52s0-.05,0-.09c0-.04,0-.1.01-.18,0-.08,0-.15,0-.23.02-.35.03-.6.03-.77,0-2.3-.54-4.09-1.61-5.34-1.07-1.26-2.73-1.89-4.99-1.89ZM423.93,244.34c.23-2.3,1.2-3.45,2.91-3.45.4,0,.75.06,1.06.19s.55.29.73.49c.18.2.33.46.45.76.12.31.2.61.25.93.05.31.07.67.08,1.07h-5.48Z"/>
        <path class="cls-17" d="M447.08,239.34c-.87-.68-1.94-1.03-3.21-1.03-1.72,0-3.23.55-4.52,1.65-.07-.52-.21-.9-.42-1.15-.22-.18-.49-.27-.82-.27h-2.76v19.23h4.09v-5.77c.97.71,2.18,1.06,3.64,1.06l6.05-4.55c.07-.26.15-.51.2-.77.14-.71.21-1.45.21-2.23,0-1.29-.16-2.41-.48-3.34-.44-1.21-1.09-2.16-1.97-2.84ZM445.25,247.54c-.09.48-.25.94-.48,1.37-.23.43-.57.76-1.03.99-.46.23-1.02.35-1.69.35-1.07,0-1.94-.27-2.62-.82v-7.24c1.01-.48,1.93-.72,2.76-.72.51,0,.96.08,1.34.25.38.16.69.38.92.64.23.26.42.59.57.98.15.39.24.79.29,1.19s.08.85.08,1.35c0,.63-.05,1.18-.14,1.67Z"/>
      </g>
    </g>
    <g>
      <g>
        <path class="cls-25" d="M286.1,217.16h-4.99l-5.65-7.98h-29.91l-5.69,7.98h-4.95l22.86-33.6h5.41l22.91,33.6ZM259.91,188.34l-11.74,16.54h24.73l-11.83-16.54h-1.16Z"/>
        <path class="cls-29" d="M293.22,195.22c1.04-1.83,3.39-6.06,9.1-6.06h14.78l-1.75,4.29h-13.36c-.87,0-1.79.12-2.75.35-.96.23-1.87.59-2.73,1.07-.86.48-1.61,1.07-2.26,1.77-.65.7-1.14,1.52-1.45,2.45v18.06h-4.29v-28l4.4-1.54-.53,7.6"/>
        <path class="cls-22" d="M323.67,195.22c1.04-1.83,3.39-6.06,9.1-6.06h14.78l-1.75,4.29h-13.36c-.87,0-1.79.12-2.75.35-.96.23-1.87.59-2.73,1.07-.86.48-1.61,1.07-2.26,1.77-.65.7-1.14,1.52-1.45,2.45v18.06h-4.29v-28l4.4-1.54-.53,7.6"/>
        <path class="cls-24" d="M347.78,199.61c0-1.46.27-2.82.82-4.08.54-1.26,1.29-2.36,2.24-3.31.95-.95,2.06-1.7,3.34-2.24,1.27-.54,2.63-.82,4.06-.82h19.44c1.62,0,3.1.29,4.43.86,1.34.58,2.48,1.35,3.43,2.33.91.94,1.63,2.03,2.15,3.26s.86,3.21.86,4.49v6.69c0,1.46-.26,2.82-.79,4.08-.53,1.26-1.27,2.36-2.22,3.29-.95.93-2.09,1.66-3.43,2.19-1.34.53-2.82.79-4.43.79h-19.44c-1.43,0-2.78-.27-4.06-.82-1.28-.54-2.39-1.29-3.34-2.24-.95-.95-1.7-2.06-2.24-3.34-.54-1.27-.82-2.63-.82-4.06v-7.09ZM376.31,212.86c1.09,0,2.12-.17,3.08-.51.96-.34,1.8-.85,2.52-1.52.72-.67,1.28-1.49,1.7-2.47.42-.98.63-2.09.63-3.34v-3.87c-.09-1-.32-1.96-.68-2.89-.36-.93-.86-1.76-1.52-2.47-.65-.72-1.46-1.28-2.43-1.7-.96-.42-2.08-.63-3.36-.63h-16.36c-1.03,0-2.01.19-2.94.56s-1.77.9-2.5,1.59c-.73.68-1.31,1.51-1.75,2.47-.44.96-.65,2.04-.65,3.22v3.87c0,1.12.2,2.15.61,3.08s.97,1.74,1.7,2.43c.73.68,1.58,1.22,2.54,1.61.96.39,2.01.58,3.13.58h16.26Z"/>
        <path class="cls-26" d="M436.08,199.61c0-1.46.27-2.82.82-4.08.54-1.26,1.29-2.36,2.24-3.31s2.06-1.7,3.34-2.24c1.27-.54,2.63-.82,4.06-.82h19.44c1.62,0,3.1.29,4.43.86,1.34.58,2.48,1.35,3.43,2.33.91.94,1.63,2.03,2.15,3.26s.86,3.21.86,4.49v6.69c0,1.46-.26,2.82-.79,4.08-.53,1.26-1.27,2.36-2.22,3.29-.95.93-2.09,1.66-3.43,2.19-1.34.53-2.82.79-4.43.79h-19.44c-1.43,0-2.78-.27-4.06-.82-1.28-.54-2.39-1.29-3.34-2.24-.95-.95-1.7-2.06-2.24-3.34-.54-1.27-.82-2.63-.82-4.06v-7.09ZM464.62,212.86c1.09,0,2.12-.17,3.08-.51.96-.34,1.8-.85,2.52-1.52.72-.67,1.28-1.49,1.7-2.47.42-.98.63-2.09.63-3.34v-3.87c-.09-1-.32-1.96-.68-2.89-.36-.93-.86-1.76-1.52-2.47-.65-.72-1.46-1.28-2.43-1.7-.96-.42-2.08-.63-3.36-.63h-16.36c-1.03,0-2.01.19-2.94.56s-1.77.9-2.5,1.59c-.73.68-1.31,1.51-1.75,2.47-.44.96-.65,2.04-.65,3.22v3.87c0,1.12.2,2.15.61,3.08s.97,1.74,1.7,2.43c.73.68,1.58,1.22,2.54,1.61.96.39,2.01.58,3.13.58h16.26Z"/>
        <g>
          <path class="cls-21" d="M392.36,199.61c0-1.46.27-2.82.82-4.08.54-1.26,1.29-2.36,2.24-3.31s2.06-1.7,3.34-2.24c1.27-.54,2.63-.82,4.06-.82h19.44c1.62,0,3.1.29,4.43.86,1.34.58,2.48,1.35,3.43,2.33.91.94,1.63,2.03,2.15,3.26s.86,3.21.86,4.49v6.69c0,1.46-.26,2.82-.79,4.08-.53,1.26-1.27,2.36-2.22,3.29-.95.93-2.09,1.66-3.43,2.19-1.34.53-2.82.79-4.43.79h-19.44c-1.43,0-2.78-.27-4.06-.82-1.28-.54-2.39-1.29-3.34-2.24-.95-.95-1.7-2.06-2.24-3.34-.54-1.27-.82-2.63-.82-4.06v-7.09ZM420.89,212.86c1.09,0,2.12-.17,3.08-.51.96-.34,1.8-.85,2.52-1.52.72-.67,1.28-1.49,1.7-2.47.42-.98.63-2.09.63-3.34v-3.87c-.09-1-.32-1.96-.68-2.89-.36-.93-.86-1.76-1.52-2.47-.65-.72-1.46-1.28-2.43-1.7-.96-.42-2.08-.63-3.36-.63h-16.36c-1.03,0-2.01.19-2.94.56s-1.77.9-2.5,1.59c-.73.68-1.31,1.51-1.75,2.47-.44.96-.65,2.04-.65,3.22v3.87c0,1.12.2,2.15.61,3.08s.97,1.74,1.7,2.43c.73.68,1.58,1.22,2.54,1.61.96.39,2.01.58,3.13.58h16.26Z"/>
          <polygon class="cls-27" points="396.35 217.16 391.36 217.16 391.36 173.64 396.65 171.89 395.75 195.94 395.75 209.68 396.35 217.16"/>
        </g>
      </g>
      <g>
        <path class="cls-28" d="M483.85,189.16h16.47l-1.05,4.29h-15.75"/>
        <path class="cls-23" d="M498.05,211.42c-1.46.4-13.59,4.04-13.63.93-.03-2.63-.18-18.89-.18-18.89l.92-21.56-4.98,1.81v41.13c.04.3.13.75.44,1.16.49.65,1.25.85,1.75.96,2.58.53,6.01.13,7.13,0,1.51-.18,2.62-.33,4.18-.61,1.48-.26,2.96-.61,4.43-1.03,1.48-.42,1.62-.35,2.81-.91l1.18-4.48c-1.21.59-2.57,1.09-4.06,1.49Z"/>
      </g>
    </g>
  </g>
</svg>