<?xml version="1.0" encoding="UTF-8"?>
<svg version="1.1" xmlns="http://www.w3.org/2000/svg" width="512" height="512">
<path d="M0 0 C5.76068354 4.2898085 10.85484623 9.3636353 15.92382812 14.43261719 C16.17777344 13.80613281 16.43171875 13.17964844 16.69335938 12.53417969 C17.20962891 11.30828125 17.20962891 11.30828125 17.73632812 10.05761719 C18.07277344 9.24550781 18.40921875 8.43339844 18.75585938 7.59667969 C19.92382812 5.43261719 19.92382812 5.43261719 22.92382812 3.43261719 C25.98858356 2.88738916 28.85907651 2.88418795 31.92382812 3.43261719 C34.92382812 5.87011719 34.92382812 5.87011719 36.92382812 8.43261719 C37.25382812 8.76261719 37.58382813 9.09261719 37.92382812 9.43261719 C38.21681409 14.89884528 38.23797138 20.36773554 38.27392578 25.84106445 C38.29044828 27.68494318 38.31768931 29.52875883 38.35595703 31.37231445 C38.41089598 34.03207601 38.43262878 36.69033232 38.44726562 39.35058594 C38.469935 40.16955856 38.49260437 40.98853119 38.51596069 41.83232117 C38.5009359 45.92917859 38.19740238 48.64259753 35.64111328 51.93774414 C31.14458234 56.06623019 27.20603063 55.60014118 21.30664062 55.63574219 C20.20447708 55.6442923 20.20447708 55.6442923 19.08004761 55.65301514 C17.52847727 55.66244092 15.97688713 55.66898947 14.42529297 55.67285156 C12.06376909 55.68255579 9.7031167 55.71360009 7.34179688 55.74511719 C5.83008326 55.75164831 4.31836346 55.75689835 2.80664062 55.76074219 C2.10644806 55.77308899 1.40625549 55.78543579 0.68484497 55.79815674 C-3.97044364 55.77722146 -7.13578841 54.90825844 -11.07617188 52.43261719 C-13.48032657 49.02026859 -14.07617188 47.05072028 -14.07617188 42.87011719 C-12.80174825 38.48928598 -11.89933104 36.98138996 -8.07617188 34.43261719 C-4.07680383 33.72960327 -0.13231117 33.50377753 3.92382812 33.43261719 C-5.83395444 20.57212957 -21.91681076 10.66351987 -37.07617188 5.43261719 C-38.36587891 4.95501953 -38.36587891 4.95501953 -39.68164062 4.46777344 C-58.26432289 -1.35104626 -77.32044082 2.23077061 -94.45117188 10.30761719 C-99.99721387 13.24552051 -105.07616126 16.64860915 -110.07617188 20.43261719 C-110.93339844 21.07328125 -111.790625 21.71394531 -112.67382812 22.37402344 C-118.17401256 26.61323045 -122.68243212 31.07921693 -127.07617188 36.43261719 C-127.81222656 37.25890625 -128.54828125 38.08519531 -129.30664062 38.93652344 C-147.14434361 59.32652097 -158.90172744 84.17203924 -168.07617188 109.43261719 C-168.36476074 110.21991211 -168.65334961 111.00720703 -168.95068359 111.81835938 C-176.87872828 133.68387792 -181.54600782 156.48976595 -185.07617188 179.43261719 C-185.2427832 180.47160156 -185.40939453 181.51058594 -185.58105469 182.58105469 C-191.11481404 218.60204724 -190.81860019 258.4598053 -185.07617188 294.43261719 C-184.90456543 295.56650879 -184.73295898 296.70040039 -184.55615234 297.86865234 C-181.86486699 315.36561476 -177.79690318 332.3831446 -173.07617188 349.43261719 C-157.12599413 353.70478719 -141.20246592 357.68988686 -124.88867188 360.30761719 C-123.71232178 360.49799561 -122.53597168 360.68837402 -121.32397461 360.88452148 C-117.58076456 361.45569461 -113.83373709 361.9674345 -110.07617188 362.43261719 C-108.96722565 362.57085403 -108.96722565 362.57085403 -107.83587646 362.71188354 C-92.25913914 364.5834573 -76.75040217 364.79215831 -61.07617188 364.74511719 C-59.18664291 364.74238297 -59.18664291 364.74238297 -57.25894165 364.73959351 C-39.0097818 364.69511128 -21.12713385 364.31818113 -3.07617188 361.43261719 C-1.94759766 361.26101074 -0.81902344 361.0894043 0.34375 360.91259766 C51.23949854 353.04190354 99.94317358 336.62146176 139.92382812 303.43261719 C140.60832031 302.88347656 141.2928125 302.33433594 141.99804688 301.76855469 C155.75861975 290.35998543 166.69972002 273.49803699 171.92382812 256.43261719 C172.28734375 255.27117187 172.65085937 254.10972656 173.02539062 252.91308594 C174.75310718 245.83214235 174.28358432 238.32169405 174.31445312 231.07910156 C174.34925781 229.33016602 174.34925781 229.33016602 174.38476562 227.54589844 C174.3929834 226.49184814 174.40120117 225.43779785 174.40966797 224.35180664 C175.05053337 220.71323704 176.34837287 219.03989342 178.92382812 216.43261719 C182.57671005 215.21498988 185.08136948 215.04185868 188.92382812 215.43261719 C192.40267481 217.43934612 194.63009402 219.55141488 195.92382812 223.43261719 C197.9072702 254.26913104 189.94143421 280.84865599 169.92382812 304.43261719 C169.23546875 305.24859375 169.23546875 305.24859375 168.53320312 306.08105469 C161.61987492 314.1719278 154.09908558 320.91561246 145.54638672 327.23193359 C144.09345712 328.30709275 142.65779824 329.40549978 141.22460938 330.50683594 C118.26017334 347.84445763 92.08446377 359.38597649 64.92382812 368.43261719 C63.13525391 369.04169922 63.13525391 369.04169922 61.31054688 369.66308594 C27.75050298 380.55343131 -8.60955319 386.49625539 -43.88085938 386.63574219 C-45.07053818 386.6427565 -46.26021698 386.64977081 -47.48594666 386.65699768 C-51.30772727 386.67441888 -55.129353 386.68085064 -58.95117188 386.68261719 C-60.25573334 386.68329193 -61.5602948 386.68396667 -62.90438843 386.68466187 C-81.81797427 386.66909513 -100.35431361 386.33540199 -119.07617188 383.43261719 C-120.31512207 383.24505859 -121.55407227 383.0575 -122.83056641 382.86425781 C-136.73382363 380.71593603 -150.52568096 378.25236187 -164.07617188 374.43261719 C-155.96019201 392.86934826 -147.49893445 410.47124951 -135.07617188 426.43261719 C-134.40714844 427.29371094 -133.738125 428.15480469 -133.04882812 429.04199219 C-131.08535105 431.52931439 -129.08948604 433.98554022 -127.07617188 436.43261719 C-126.52445313 437.12097656 -125.97273437 437.80933594 -125.40429688 438.51855469 C-112.47843511 454.09114053 -92.10034331 466.87372661 -72.07617188 470.43261719 C-48.60033001 472.47243196 -28.61553541 466.92936951 -10.07617188 452.43261719 C-9.19638672 451.69289673 -9.19638672 451.69289673 -8.29882812 450.93823242 C-5.15509671 448.41870278 -2.94700206 447.10717506 1.14648438 446.99121094 C6.3985913 447.60495249 7.49226616 448.49887543 10.92382812 452.43261719 C12.10602923 456.25738548 12.17532101 458.52337369 11.11132812 462.37011719 C-0.46429459 478.57598899 -25.0139299 488.40531636 -43.91430664 491.9675293 C-71.03594697 495.95692972 -98.05786884 489.12277141 -120.09228516 472.91479492 C-122.81735033 470.8277837 -125.45955242 468.65355272 -128.07617188 466.43261719 C-128.62015625 465.97371094 -129.16414062 465.51480469 -129.72460938 465.04199219 C-137.81548249 458.12866398 -144.55916715 450.60787464 -150.87548828 442.05517578 C-151.95064744 440.60224618 -153.04905447 439.1665873 -154.15039062 437.73339844 C-167.26702851 420.35983953 -190.07617188 388.82854162 -190.07617188 366.43261719 C-190.68565674 366.26173584 -191.2951416 366.09085449 -191.9230957 365.91479492 C-198.05461109 364.1432071 -203.90663684 362.02488694 -209.76367188 359.49511719 C-211.10292725 358.91685181 -211.10292725 358.91685181 -212.46923828 358.3269043 C-253.74127838 340.1687822 -293.96572833 312.96246584 -311.07617188 269.43261719 C-319.68599477 244.77636879 -318.33805384 217.92257807 -307.11132812 194.40917969 C-301.37135767 182.95184822 -294.50823518 173.16120738 -285.54492188 164.00683594 C-282.98997256 161.49351889 -282.98997256 161.49351889 -281.07617188 158.43261719 C-282.40648437 158.58730469 -282.40648437 158.58730469 -283.76367188 158.74511719 C-288.11555494 158.33456218 -289.33590542 156.72093693 -292.07617188 153.43261719 C-293.50921252 150.5665359 -293.38261343 148.61960936 -293.07617188 145.43261719 C-291.27211776 141.82450896 -290.136049 139.88698768 -286.38647461 138.27954102 C-280.77523106 136.84393338 -275.09075494 137.09953847 -269.33618164 137.11694336 C-267.14809335 137.12010358 -264.96135913 137.09660711 -262.7734375 137.07128906 C-261.36523606 137.06901552 -259.95703103 137.06831283 -258.54882812 137.06933594 C-257.28304932 137.06635498 -256.01727051 137.06337402 -254.71313477 137.06030273 C-249.6098874 137.58272015 -245.63171475 138.67033124 -242.16577148 142.59692383 C-240.725762 146.34456222 -240.62738063 149.84493193 -240.64257812 153.80371094 C-240.63733627 154.60365982 -240.63209442 155.4036087 -240.62669373 156.22779846 C-240.62028891 157.91463056 -240.62159056 159.60150742 -240.63012695 161.28833008 C-240.63863417 163.85872542 -240.60986164 166.4268944 -240.578125 168.99707031 C-240.57651262 170.64094986 -240.57709123 172.28483331 -240.58007812 173.92871094 C-240.56884415 174.69138779 -240.55761017 175.45406464 -240.54603577 176.23985291 C-240.61281026 181.3946076 -241.68652527 184.3355592 -245.07617188 188.43261719 C-248.5488046 190.16893355 -252.28810201 190.03452121 -256.07617188 189.43261719 C-259.52561284 186.70180976 -261.80513077 184.47379093 -262.39257812 180.04980469 C-262.47378906 179.14488281 -262.555 178.23996094 -262.63867188 177.30761719 C-262.72246094 176.39753906 -262.80625 175.48746094 -262.89257812 174.54980469 C-262.95316406 173.85113281 -263.01375 173.15246094 -263.07617188 172.43261719 C-264.2330775 173.58952281 -265.3882543 174.7481854 -266.53710938 175.91308594 C-267.53745924 176.90074101 -268.56293661 177.86378697 -269.61523438 178.79589844 C-278.67836879 187.10735109 -285.9005356 198.93770973 -290.07617188 210.43261719 C-290.66205078 212.01816406 -290.66205078 212.01816406 -291.25976562 213.63574219 C-297.52142242 233.3090445 -294.84729857 252.46946137 -286.20117188 270.80761719 C-283.26326855 276.35365918 -279.86017991 281.43260657 -276.07617188 286.43261719 C-275.43550781 287.28984375 -274.79484375 288.14707031 -274.13476562 289.03027344 C-269.89555862 294.53045787 -265.42957213 299.03887743 -260.07617188 303.43261719 C-259.24988281 304.16867187 -258.42359375 304.90472656 -257.57226562 305.66308594 C-240.27007383 320.79949573 -219.30280884 331.85449924 -198.07617188 340.43261719 C-198.23698242 339.78639404 -198.39779297 339.1401709 -198.56347656 338.47436523 C-201.64702938 325.95210562 -204.4337985 313.44494001 -206.32617188 300.68261719 C-206.47666992 299.68190186 -206.62716797 298.68118652 -206.78222656 297.65014648 C-207.26265265 294.24856785 -207.68079282 290.84519039 -208.07617188 287.43261719 C-208.16337494 286.68480988 -208.250578 285.93700256 -208.34042358 285.16653442 C-210.16051197 269.06837009 -210.4353214 253.05894219 -210.38867188 236.87011719 C-210.3871814 235.59024933 -210.38569092 234.31038147 -210.38415527 232.99172974 C-210.34562909 214.59907097 -209.86544544 196.63582725 -207.07617188 178.43261719 C-206.78199842 176.30387707 -206.48904731 174.17496771 -206.19726562 172.04589844 C-204.08399478 157.2822909 -200.82392395 142.86011458 -197.07617188 128.43261719 C-196.74875 127.15515625 -196.42132813 125.87769531 -196.08398438 124.56152344 C-182.58319209 74.79975364 -156.36885984 21.809433 -110.97460938 -5.94628906 C-74.47277166 -26.36173738 -34.10804465 -23.62782306 0 0 Z " fill="#000000" transform="translate(316.076171875,19.5673828125)"/>
<path d="M0 0 C2.40943006 0.01608236 4.81718329 0.00008687 7.2265625 -0.01904297 C27.53964015 -0.05010994 27.53964015 -0.05010994 35.2890625 6.95361328 C35.98773438 7.55302734 36.68640625 8.15244141 37.40625 8.77001953 C44.99781512 18.68040901 44.00182692 30.04944542 43.9453125 41.92236328 C43.94801151 43.92435901 43.95189732 45.92635345 43.95690918 47.92834473 C43.96278498 52.11088624 43.95430329 56.29308453 43.93554688 60.47558594 C43.91275866 65.81504899 43.92589205 71.15370758 43.94983673 76.49314117 C43.96434667 80.62320936 43.95966495 84.75308935 43.94932556 88.88316345 C43.94667262 90.85098874 43.94987713 92.81883157 43.95924377 94.78663635 C44.04033905 116.60826759 44.04033905 116.60826759 37.1640625 125.20361328 C31.75262138 129.50816872 26.49510852 133.45492002 19.37670898 133.58398438 C18.56834091 133.6000473 17.75997284 133.61611023 16.92710876 133.63265991 C13.2156583 133.67746063 9.50438313 133.71821699 5.79272461 133.74121094 C3.84436038 133.75770742 1.89605508 133.78491331 -0.05200195 133.82324219 C-12.36283552 134.06395389 -21.5913996 134.16920981 -31.4609375 126.01611328 C-37.28324583 118.82385005 -38.73303545 112.87080493 -38.76293945 103.7421875 C-38.76951065 102.8700914 -38.77608185 101.9979953 -38.78285217 101.09947205 C-38.80255204 98.21491402 -38.81424199 95.33040805 -38.82421875 92.44580078 C-38.82829428 91.4579874 -38.8323698 90.47017403 -38.83656883 89.45242691 C-38.85741799 84.22137919 -38.87172329 78.9903576 -38.88110352 73.75927734 C-38.8921502 68.37265054 -38.92653348 62.98643883 -38.96627522 57.59995842 C-38.99250106 53.44419622 -39.00080078 49.28853191 -39.00438499 45.13269424 C-39.0092375 43.14809499 -39.0208131 41.16349971 -39.03942299 39.17898178 C-39.23044347 17.45427185 -39.23044347 17.45427185 -32.578125 8.77001953 C-31.53011719 7.87089844 -31.53011719 7.87089844 -30.4609375 6.95361328 C-29.77773438 6.33615234 -29.09453125 5.71869141 -28.390625 5.08251953 C-19.51113374 -0.27238258 -10.04904268 -0.07978678 0 0 Z M-17.5859375 24.39111328 C-17.98311331 27.2181509 -18.12273663 29.65827681 -18.08764648 32.48681641 C-18.09304947 33.31148911 -18.09845245 34.1361618 -18.10401917 34.98582458 C-18.1165387 37.71503458 -18.09999447 40.44319627 -18.08203125 43.17236328 C-18.08218616 45.06661026 -18.08367387 46.96085757 -18.08644104 48.85510254 C-18.08782648 52.82639567 -18.07524285 56.79732827 -18.05249023 60.76855469 C-18.02410518 65.86331617 -18.026841 70.95747842 -18.03958035 76.05228424 C-18.04652977 79.96418389 -18.03875667 83.87594462 -18.02632332 87.78782654 C-18.02180165 89.66653409 -18.02147824 91.54525653 -18.02538872 93.42396545 C-18.02829374 96.04809219 -18.01182838 98.67138828 -17.98999023 101.29541016 C-17.99449188 102.07472397 -17.99899353 102.85403778 -18.00363159 103.65696716 C-17.95810004 107.74174059 -17.95810004 107.74174059 -16.27406311 111.37283325 C-13.39227414 113.1111329 -10.22761455 112.81714838 -6.9609375 112.78955078 C-6.21763184 112.79242096 -5.47432617 112.79529114 -4.70849609 112.79824829 C-3.1383386 112.80028805 -1.56815564 112.79476429 0.00195312 112.78222656 C2.40552582 112.76617031 4.80741711 112.7820768 7.2109375 112.80126953 C8.73698288 112.79928708 10.26302721 112.79544337 11.7890625 112.78955078 C12.50787598 112.79562347 13.22668945 112.80169617 13.96728516 112.80795288 C17.70549711 112.76735467 17.70549711 112.76735467 21.10218811 111.37283325 C23.17511625 108.24146403 22.83909931 104.9281199 22.81811523 101.29541016 C22.82841011 100.05840111 22.82841011 100.05840111 22.83891296 98.79640198 C22.85723141 96.06738118 22.85333672 93.33893243 22.84765625 90.60986328 C22.85221532 88.71561495 22.85752007 86.82136827 22.86354065 84.92712402 C22.87248143 80.95590497 22.87003728 76.98488693 22.86010742 73.01367188 C22.84861079 67.91883425 22.86883489 62.82468897 22.89802456 57.72994232 C22.91634913 53.8180499 22.9161017 49.90632458 22.91038704 45.99440002 C22.9102334 44.11567716 22.91631313 42.23694328 22.92867851 40.35826111 C22.94351804 37.73400102 22.9329645 35.11103533 22.91577148 32.48681641 C22.93027344 31.31784569 22.93027344 31.31784569 22.94506836 30.1252594 C22.89412814 25.85706137 22.89412814 25.85706137 20.5907135 22.40939331 C17.40497396 20.91904187 14.66944508 21.00184075 11.1640625 20.99267578 C10.46893555 20.9898056 9.77380859 20.98693542 9.05761719 20.98397827 C7.59178856 20.98194194 6.12593249 20.98744172 4.66015625 21 C2.42125473 21.01606168 0.18415813 21.00013871 -2.0546875 20.98095703 C-3.4817748 20.98293954 -4.90886099 20.98678338 -6.3359375 20.99267578 C-8.27726562 20.99775146 -8.27726562 20.99775146 -10.2578125 21.00292969 C-13.94084929 21.43250924 -15.10120311 21.69056185 -17.5859375 24.39111328 Z " fill="#000000" transform="translate(375.5859375,148.60888671875)"/>
<path d="M0 0 C2.30853468 0.01618132 4.61534425 0.00003137 6.92382812 -0.01904297 C8.40820694 -0.01706198 9.8925847 -0.0132213 11.37695312 -0.00732422 C12.05832336 -0.01339691 12.7396936 -0.0194696 13.44171143 -0.02572632 C18.01979952 0.04108579 21.18336495 0.9389913 25.04882812 3.39111328 C27.48654538 7.35240382 28.17636627 9.45051949 27.54882812 14.07861328 C25.81756302 17.90182373 24.57814029 19.16423576 21.04882812 21.39111328 C18.30987687 21.7778795 15.9613259 21.94963731 13.22851562 21.93017578 C12.48803986 21.94196869 11.74756409 21.9537616 10.98464966 21.96591187 C8.6308263 22.00107227 6.2778923 22.01033289 3.92382812 22.01611328 C1.56288955 22.03246527 -0.79765401 22.05449927 -3.15841675 22.08773804 C-4.62407236 22.10734353 -6.08990928 22.11670552 -7.55569458 22.11465454 C-11.24203532 22.15326872 -12.79812494 22.28908199 -15.95117188 24.39111328 C-16.46263385 27.29724762 -16.46263385 27.29724762 -16.46289062 30.71142578 C-16.49833984 31.96826172 -16.53378906 33.22509766 -16.5703125 34.52001953 C-16.59287109 35.83873047 -16.61542969 37.15744141 -16.63867188 38.51611328 C-16.67183716 39.85599087 -16.7063261 41.19583639 -16.7421875 42.53564453 C-16.82490514 45.82071658 -16.89397881 49.10551361 -16.95117188 52.39111328 C-15.84717041 52.37540283 -14.74316895 52.35969238 -13.60571289 52.34350586 C-9.47395241 52.28883045 -5.34222333 52.25462761 -1.21020508 52.22631836 C0.57142532 52.21131685 2.35301932 52.19090895 4.13452148 52.16479492 C6.70891348 52.12802819 9.28281342 52.11130043 11.85742188 52.09814453 C12.64217392 52.08266068 13.42692596 52.06717682 14.23545837 52.05122375 C22.31961352 52.04881382 29.73703505 54.20141675 36.04882812 59.39111328 C42.36047423 66.45955149 44.35843381 72.80143807 44.38476562 82.15673828 C44.39475082 83.40689728 44.39475082 83.40689728 44.40493774 84.68231201 C44.41502733 86.44052945 44.41975591 88.19878489 44.41943359 89.95703125 C44.42379243 92.61931016 44.46011002 95.27990992 44.49804688 97.94189453 C44.57061644 108.75825233 44.28353265 117.74561836 36.86132812 126.26611328 C31.52964771 131.63828747 24.26925151 133.82775018 16.88209534 133.97254944 C15.62078041 133.96510963 15.62078041 133.96510963 14.33398438 133.95751953 C13.43820175 133.96371811 12.54241913 133.96991669 11.61949158 133.9763031 C9.73795652 133.98336002 7.85635847 133.98030006 5.97485352 133.9675293 C3.12137165 133.95366209 0.27117483 133.98779685 -2.58203125 134.02587891 C-13.82931825 134.07289131 -21.88197396 133.40479851 -30.82617188 126.01611328 C-36.6484802 118.82385005 -38.09826982 112.87080493 -38.12817383 103.7421875 C-38.13474503 102.8700914 -38.14131622 101.9979953 -38.14808655 101.09947205 C-38.16778642 98.21491402 -38.17947636 95.33040805 -38.18945312 92.44580078 C-38.19352865 91.4579874 -38.19760418 90.47017403 -38.20180321 89.45242691 C-38.22265237 84.22137919 -38.23695766 78.9903576 -38.24633789 73.75927734 C-38.25738458 68.37265054 -38.29176785 62.98643883 -38.33150959 57.59995842 C-38.35773544 53.44419622 -38.36603515 49.28853191 -38.36961937 45.13269424 C-38.37447187 43.14809499 -38.38604747 41.16349971 -38.40465736 39.17898178 C-38.59567784 17.45427185 -38.59567784 17.45427185 -31.94335938 8.77001953 C-30.89535156 7.87089844 -30.89535156 7.87089844 -29.82617188 6.95361328 C-29.14296875 6.33615234 -28.45976562 5.71869141 -27.75585938 5.08251953 C-19.10732608 -0.13310013 -9.80807421 -0.08194406 0 0 Z M-16.95117188 73.39111328 C-17.02530708 78.46310216 -17.07976638 83.53477596 -17.1159668 88.60717773 C-17.13105704 90.33281955 -17.15153163 92.058423 -17.17749023 93.78393555 C-17.21386397 96.26376816 -17.23089546 98.74309392 -17.24414062 101.22314453 C-17.25962448 101.99511673 -17.27510834 102.76708893 -17.2910614 103.56245422 C-17.29196678 106.44138971 -17.26389302 108.79505959 -15.90942383 111.37670898 C-12.82603859 112.97394944 -9.71739823 112.8182006 -6.32617188 112.78955078 C-5.58286621 112.79242096 -4.83956055 112.79529114 -4.07373047 112.79824829 C-2.50357297 112.80028805 -0.93339001 112.79476429 0.63671875 112.78222656 C3.04029145 112.76617031 5.44218273 112.7820768 7.84570312 112.80126953 C9.3717485 112.79928708 10.89779284 112.79544337 12.42382812 112.78955078 C13.1426416 112.79562347 13.86145508 112.80169617 14.60205078 112.80795288 C17.36761459 112.76896561 19.55064645 112.66656376 21.99829102 111.31323242 C23.63887747 108.3115273 23.45693129 105.63660165 23.48242188 102.23876953 C23.48766373 101.54222763 23.49290558 100.84568573 23.49830627 100.1280365 C23.50472338 98.65625337 23.50339341 97.18441894 23.49487305 95.71264648 C23.48636954 93.46456172 23.51511134 91.21902462 23.546875 88.97119141 C23.54848738 87.53955154 23.54790878 86.10790719 23.54492188 84.67626953 C23.5467749 83.37568604 23.54862793 82.07510254 23.55053711 80.73510742 C23.27600013 77.39739697 23.27600013 77.39739697 21.53442383 74.96020508 C18.02163313 72.74267185 14.8014912 72.89230238 10.78320312 73.00048828 C9.9898053 73.00614807 9.19640747 73.01180786 8.37896729 73.01763916 C5.85163339 73.03998181 3.32573147 73.09017152 0.79882812 73.14111328 C-0.91729719 73.16118114 -2.63344479 73.17943141 -4.34960938 73.19580078 C-8.55067968 73.23983933 -12.75068322 73.30885002 -16.95117188 73.39111328 Z " fill="#000000" transform="translate(282.951171875,148.60888671875)"/>
<path d="M0 0 C2.16389095 -0.00965915 4.32681184 -0.04069725 6.49047852 -0.07226562 C16.13874216 -0.14793583 25.82852142 -0.01779427 33.37524414 6.80273438 C34.07391602 7.40214844 34.77258789 8.0015625 35.49243164 8.61914062 C43.08399676 18.52953011 42.08800856 29.89856651 42.03149414 41.77148438 C42.03419315 43.7734801 42.03807896 45.77547455 42.04309082 47.77746582 C42.04896662 51.96000733 42.04048494 56.14220563 42.02172852 60.32470703 C41.9989403 65.66417008 42.01207369 71.00282867 42.03601837 76.34226227 C42.05052831 80.47233045 42.04584659 84.60221045 42.0355072 88.73228455 C42.03285426 90.70010983 42.03605878 92.66795266 42.04542542 94.63575745 C42.12652069 116.45738868 42.12652069 116.45738868 35.25024414 125.05273438 C25.49543515 132.81224153 17.72325747 133.50694294 5.58789062 133.59033203 C3.83352321 133.60681711 2.07922087 133.6340078 0.32519531 133.67236328 C-10.73811313 133.91271097 -19.90144228 134.10819156 -28.6171875 126.35717773 C-33.86196979 121.15742108 -36.25211252 115.11571268 -36.62475586 107.77929688 C-36.40843108 103.70968689 -35.76582412 101.61586016 -33.37475586 98.24023438 C-29.89388499 95.81875899 -27.73209302 95.24023438 -23.49975586 95.24023438 C-19.79875243 96.83839495 -17.48702944 98.7388476 -15.49975586 102.24023438 C-14.71890106 104.88790097 -14.1178141 107.54726633 -13.49975586 110.24023438 C-11.06959549 112.67039475 -5.24200455 111.41345992 -1.84545898 111.42578125 C-1.14300049 111.42570068 -0.44054199 111.42562012 0.28320312 111.42553711 C2.42541414 111.4277218 4.56710885 111.44586949 6.70922852 111.46484375 C8.06534654 111.46777796 9.42146702 111.46976257 10.77758789 111.47070312 C12.01758545 111.47481201 13.25758301 111.4789209 14.53515625 111.4831543 C17.61946484 111.55235242 17.61946484 111.55235242 19.50024414 109.24023438 C19.74525909 106.80847041 19.87349335 104.48158553 19.91430664 102.04492188 C19.93367279 101.33747833 19.95303894 100.63003479 19.97299194 99.90115356 C20.03282066 97.63930353 20.07918515 95.37740268 20.12524414 93.11523438 C20.163421 91.58265997 20.20247256 90.05010709 20.24243164 88.51757812 C20.33852453 84.75863814 20.42254263 80.9995977 20.50024414 77.24023438 C19.65316895 77.26641846 18.80609375 77.29260254 17.93334961 77.31958008 C14.76886352 77.40515943 11.60497008 77.46765534 8.43969727 77.51489258 C7.07393911 77.53992717 5.70831347 77.57396655 4.34301758 77.61743164 C-8.46988514 78.0149122 -8.46988514 78.0149122 -12.36303711 74.90039062 C-14.88052492 71.76618734 -15.58013879 70.25938109 -15.49975586 66.24023438 C-14.29328542 62.05307225 -13.53086113 59.8814999 -9.78442383 57.55151367 C-6.24144498 56.13711354 -3.80352989 55.8930376 -0.00756836 55.94726562 C1.19125977 55.95693359 2.39008789 55.96660156 3.62524414 55.9765625 C4.86274414 56.00169922 6.10024414 56.02683594 7.37524414 56.05273438 C8.63594727 56.06626953 9.89665039 56.07980469 11.19555664 56.09375 C14.29755869 56.12900002 17.39867949 56.17827933 20.50024414 56.24023438 C20.43148755 51.71901371 20.34358382 47.1987287 20.23779297 42.67822266 C20.20450684 41.13991659 20.17648636 39.6014873 20.15380859 38.06298828 C20.12032856 35.8533062 20.06802104 33.64475702 20.01196289 31.43554688 C20.00557297 30.74590851 19.99918304 30.05627014 19.99259949 29.34573364 C19.959987 27.19338049 19.959987 27.19338049 19.50024414 24.24023438 C14.43138131 20.86099248 8.45143 21.91294515 2.50024414 21.92773438 C0.55504883 21.90356445 0.55504883 21.90356445 -1.42944336 21.87890625 C-2.66952148 21.87826172 -3.90959961 21.87761719 -5.18725586 21.87695312 C-6.32549805 21.87397217 -7.46374023 21.87099121 -8.63647461 21.86791992 C-11.48036111 22.00946624 -11.48036111 22.00946624 -13.33569336 23.5480957 C-14.74625682 25.3992381 -14.74625682 25.3992381 -15.43725586 28.67773438 C-16.55090917 32.4117484 -17.5262074 33.82422625 -20.49975586 36.24023438 C-23.64887065 37.81479177 -26.01984402 37.58822556 -29.49975586 37.24023438 C-33.00015447 35.23074628 -34.8770261 34.0388449 -36.19897461 30.22070312 C-37.37543081 22.99751504 -35.14797866 17.15209466 -31.62475586 10.92773438 C-23.17759103 0.24455533 -12.57778757 0.0339062 0 0 Z " fill="#000000" transform="translate(193.499755859375,148.759765625)"/>
<path d="M0 0 C6.582942 4.84316447 10.68145307 10.52781961 12.1875 18.609375 C13.12458601 25.93035948 11.91204588 32.2140063 8.1875 38.609375 C2.78723588 45.5090617 -2.94170811 49.20718168 -11.6875 50.421875 C-19.7624813 50.98382529 -26.11131024 49.22987946 -32.73046875 44.5234375 C-38.00404244 39.6753116 -41.35796342 33.27396355 -42.05078125 26.1640625 C-42.29182653 17.46105911 -40.61735177 10.28415485 -34.625 3.734375 C-24.9618437 -4.88907461 -11.36910878 -6.65691238 0 0 Z M-19.6875 18.796875 C-21.26340926 21.33583991 -21.38537294 22.67340119 -20.8125 25.609375 C-18.41390956 27.94568248 -18.41390956 27.94568248 -15.8125 29.609375 C-12.89732708 28.53536392 -11.03439824 27.83127324 -8.8125 25.609375 C-9.16513785 21.10620377 -9.16513785 21.10620377 -11.8125 17.609375 C-14.94954316 17.275647 -16.97804166 17.08088472 -19.6875 18.796875 Z " fill="#000000" transform="translate(473.8125,136.390625)"/>
<path d="M0 0 C3 1.4375 3 1.4375 5 4 C6.49198109 8.65250907 6.45866247 11.94889852 4.5 16.4375 C1.36256421 19.65337168 -0.54297049 20.47119989 -5 21 C-9.00111604 19.86635046 -11.25762777 18.88605718 -13.9375 15.6875 C-15.22223005 12.43788871 -15.49566337 10.4696436 -15 7 C-11.0242275 -0.02386475 -7.74433432 -0.90952458 0 0 Z " fill="#000000" transform="translate(348,438)"/>
<path d="M0 0 C2.22362168 2.07655676 3.29867031 4.0443963 4 7 C3.87410794 11.21738409 2.99722198 14.68366699 0.4375 18.0625 C-3.3838665 19.53225634 -6.96882994 19.66826883 -11 19 C-13.87029869 17.20606332 -15.49131638 16.01736724 -17 13 C-17.46776468 8.32235317 -17.72969391 5.3373883 -14.75 1.5625 C-10.11489333 -2.75657667 -5.62232177 -2.67347137 0 0 Z " fill="#000000" transform="translate(497,204)"/>
</svg>
