<?xml version="1.0" encoding="UTF-8"?>
<svg version="1.1" xmlns="http://www.w3.org/2000/svg" width="512" height="512">
<path d="M0 0 C1.57587891 0.5259375 1.57587891 0.5259375 3.18359375 1.0625 C23.06222139 8.50729163 38.32042622 24.39064076 47.55859375 43.16796875 C56.12480184 62.81686742 57.86636694 84.30061941 51.0859375 104.7578125 C48.83656204 110.29895693 45.97877015 114.35383755 40.625 117.3125 C34.38878156 118.94579531 29.58860525 118.14994114 24 115 C19.96600582 111.73654403 17.71122369 108.48729712 16.9375 103.3125 C16.74730907 99.36603827 17.37698973 96.10586364 18.4375 92.3125 C22.01063644 79.40950729 20.49549062 66.96713249 14.52734375 55.0625 C7.24081819 42.65990331 -3.26235374 34.999609 -17 31.1875 C-29.88629963 28.33843248 -42.65788469 30.38554099 -54 37.3125 C-64.77196366 44.86562245 -72.55915929 54.98158255 -75.5625 68.02734375 C-77.68385381 82.44118526 -75.30080705 95.35105834 -67.04296875 107.4296875 C-57.33487353 119.6436964 -46.07996044 124.51125115 -31 127 C-26.61387591 127.36518267 -22.26643114 127.39905341 -17.86694336 127.36889648 C-16.02251396 127.3745462 -16.02251396 127.3745462 -14.14082336 127.38031006 C-11.4976674 127.38669639 -8.85513901 127.38792432 -6.21204948 127.38012505 C-2.0192434 127.36838653 2.17329367 127.38083154 6.36607361 127.39674377 C16.77318774 127.43267271 27.1802927 127.43917298 37.58746338 127.43664551 C45.69507679 127.43492742 53.80246507 127.44223172 61.910016 127.47662407 C66.06462351 127.4932637 70.21867756 127.49176022 74.3732816 127.47580135 C77.58101954 127.46856929 80.78863545 127.48729158 83.99633789 127.50170898 C85.12449921 127.49196548 86.25266052 127.48222198 87.41500854 127.47218323 C106.14510706 127.63910673 120.07464024 136.07464024 132.96875 148.96875 C140.14217467 156.64557289 143.97271936 164.85374768 146.30322266 175.00219727 C146.51490396 175.90934007 146.72658527 176.81648287 146.94468117 177.75111485 C149.78699662 190.15347824 152.18126012 202.65029972 154.60744596 215.13916469 C155.32369855 218.82067295 156.0451829 222.50115649 156.76597595 226.18177795 C158.48069806 234.94313532 160.18787168 243.70595602 161.89421511 252.46894836 C162.69744938 256.59309061 163.5014645 260.71708058 164.30551147 264.84106445 C164.54591796 266.0741489 164.54591796 266.0741489 164.79118115 267.33214414 C165.60573096 271.50998395 166.42036093 275.68780812 167.23502636 279.86562538 C167.39718012 280.69719638 167.55933388 281.52876738 167.72640139 282.38553751 C168.05452887 284.06824084 168.38266735 285.75094203 168.7108168 287.43364108 C169.53508751 291.66057274 170.35906125 295.88756193 171.18244743 300.11466599 C175.33236418 321.41869725 179.5200088 342.71463374 183.76786566 363.99935561 C184.73615764 368.85238339 185.70104351 373.70607755 186.66339111 378.56028748 C186.79605393 379.229433 186.92871675 379.89857853 187.06539965 380.58800119 C187.72117213 383.89637059 188.37648915 387.20482985 189.03147888 390.5133543 C190.28608728 396.84581295 191.5475589 403.17673992 192.82513428 409.50460815 C194.01376675 415.39204213 195.18467251 421.28273146 196.34250069 427.17629814 C196.76263385 429.29797714 197.18919937 431.41839594 197.62321281 433.53727913 C201.49428853 452.46253147 204.89127079 471.56083457 194.1875 488.75 C186.6741417 499.20904219 177.56346075 504.84922897 165 508 C161.66937524 508.25299966 161.66937524 508.25299966 158.14387989 508.25726891 C157.1595889 508.26252802 157.1595889 508.26252802 156.15541324 508.26789337 C153.96516141 508.27716838 151.77517776 508.27229427 149.58491516 508.26742554 C147.99525095 508.27116378 146.40558858 508.27576599 144.81592911 508.28115618 C140.4538833 508.29338029 136.09191421 508.2931264 131.72985518 508.29076743 C127.02280792 508.29035911 122.3157852 508.30139991 117.60874939 508.31088257 C108.38870141 508.32749069 99.168679 508.33299204 89.94861732 508.33410732 C82.45269682 508.33505796 74.95678476 508.33916902 67.46086693 508.34550858 C46.20272168 508.36312105 24.94459662 508.37234752 3.68644402 508.37084763 C2.54057423 508.37076772 1.39470444 508.3706878 0.21411133 508.37060547 C-0.93315974 508.37052371 -2.0804308 508.37044195 -3.26246766 508.37035771 C-21.85168077 508.36954497 -40.44081283 508.38867952 -59.0300025 508.4168822 C-78.12297735 508.4456203 -97.21591269 508.45942196 -116.30890971 508.45769465 C-127.02583127 508.45703103 -137.74266787 508.46251084 -148.45956993 508.48405075 C-157.58512275 508.50227478 -166.71055211 508.50659987 -175.83611526 508.4930319 C-180.48977432 508.48650825 -185.1431966 508.48636327 -189.79683304 508.5037384 C-194.06255117 508.51950097 -198.3278454 508.51657316 -202.5935534 508.49917014 C-204.13123446 508.49610722 -205.66894742 508.49970581 -207.20659085 508.51089029 C-222.46414389 508.61446107 -234.4432736 505.19181356 -245.75 494.6875 C-254.3885981 485.58897654 -257.60671369 474.15159542 -257.54866123 461.90067863 C-257.17767651 448.74157198 -254.11677769 435.80184523 -251.49564028 422.94315314 C-250.69258967 418.98130344 -249.91221482 415.01498153 -249.12911987 411.04914856 C-247.78544745 404.25955457 -246.42854452 397.47272366 -245.06192017 390.68771362 C-242.92202065 380.06301914 -240.80701032 369.4334541 -238.69604492 358.80297852 C-237.98375363 355.21739131 -237.27127599 351.63184117 -236.55870056 348.04631042 C-236.38208588 347.15754536 -236.2054712 346.26878029 -236.02350456 345.35308295 C-234.77002588 339.04724699 -233.51265123 332.74219513 -232.25367737 326.43745422 C-227.89438083 304.60075426 -223.59327514 282.75378961 -219.37060714 260.89025593 C-218.83023186 258.09291124 -218.28919044 255.29569555 -217.74817508 252.4984746 C-215.61444419 241.46549273 -213.4830637 230.43206083 -211.36373901 219.39630127 C-210.23466062 213.51809331 -209.09895895 207.64120174 -207.95843887 201.76520348 C-207.54924027 199.65008285 -207.1425711 197.53447087 -206.73876572 195.41831398 C-202.49784491 173.19924879 -197.58942088 152.77579279 -178.29785156 138.76367188 C-166.23191217 130.70152357 -153.72163249 127.40568465 -139.26171875 127.390625 C-138.01493851 127.37408875 -136.76815826 127.35755249 -135.4835968 127.34051514 C-131.55151247 127.29242833 -127.61981373 127.270751 -123.6875 127.25 C-121.00060298 127.22396795 -118.3137851 127.19213569 -115.62695312 127.16015625 C-109.08470453 127.08667997 -102.54256262 127.03480828 -96 127 C-96.54414551 126.07203613 -97.08829102 125.14407227 -97.64892578 124.18798828 C-98.37296692 122.94057219 -99.09674862 121.69300549 -99.8203125 120.4453125 C-100.17778564 119.83727783 -100.53525879 119.22924316 -100.90356445 118.6027832 C-111.47988625 100.2971449 -113.62187375 78.99352648 -108.97265625 58.55859375 C-104.84270098 43.44859676 -97.88505991 31.21847616 -87 20 C-86.45988281 19.38640625 -85.91976562 18.7728125 -85.36328125 18.140625 C-64.63492366 -4.62401961 -28.01513451 -9.60157936 0 0 Z M-165.45703125 173.546875 C-169.44894806 179.89351742 -170.70178485 187.66790235 -172.09936523 194.93579102 C-172.28948496 195.89868042 -172.47960468 196.86156982 -172.67548561 197.8536377 C-173.3088757 201.06930589 -173.93373969 204.28656935 -174.55859375 207.50390625 C-175.01557721 209.83383137 -175.47306517 212.16365758 -175.93101501 214.49339294 C-177.04907923 220.18880046 -178.16152955 225.88528379 -179.27146262 231.58228105 C-180.57493634 238.27120988 -181.88525333 244.95879304 -183.19559717 251.64637876 C-186.65410418 269.30024292 -190.09616959 286.95730525 -193.53543568 304.61492634 C-194.00513843 307.02638071 -194.47489448 309.43782469 -194.944664 311.84926605 C-200.99933405 342.9298766 -207.04814571 374.01162639 -213.08374023 405.09594727 C-213.30517325 406.23630961 -213.30517325 406.23630961 -213.53107965 407.39970958 C-214.93091736 414.60880428 -216.33058666 421.81793147 -217.72916681 429.02727026 C-218.34708845 432.2122271 -218.96533303 435.39712126 -219.58349609 438.58203125 C-219.8004737 439.70118203 -220.01745131 440.82033281 -220.24100399 441.97339725 C-220.44461324 443.0222079 -220.64822248 444.07101854 -220.85800171 445.15161133 C-221.04881695 446.13787506 -221.23963219 447.12413879 -221.43622971 448.14028931 C-221.81225031 450.04764441 -222.19960642 451.95279955 -222.59822464 453.8555603 C-222.78322903 454.7407132 -222.96823341 455.62586609 -223.15884399 456.5378418 C-223.32411402 457.30968307 -223.48938404 458.08152435 -223.65966225 458.87675476 C-224.40504233 463.52691388 -223.7118536 466.85594956 -221.25 470.8125 C-217.13580769 474.81240919 -213.18741635 475.250164 -207.59185886 475.25447559 C-206.28978066 475.26030779 -204.98770246 475.26613998 -203.64616734 475.27214891 C-202.20295894 475.26851578 -200.75975102 475.26469141 -199.31654358 475.26069641 C-197.78207683 475.26371672 -196.24761159 475.2676056 -194.71314901 475.27228898 C-190.4946181 475.28259321 -186.27617194 475.280381 -182.057634 475.27610838 C-177.50881631 475.27364557 -172.96001927 475.28264976 -168.41120911 475.29014587 C-159.49903765 475.3029071 -150.58689631 475.30468481 -141.67471725 475.30234561 C-134.43232088 475.30056395 -127.18993366 475.30230882 -119.94753838 475.30657005 C-118.91751378 475.30716524 -117.88748919 475.30776043 -116.82625173 475.30837366 C-114.73388978 475.30958538 -112.64152784 475.31079952 -110.5491659 475.31201603 C-90.91908677 475.32289697 -71.28902482 475.3207264 -51.65894472 475.31463119 C-33.69281732 475.30946102 -15.72674413 475.32071911 2.23937254 475.33972941 C20.6791073 475.35909155 39.11881639 475.36736669 57.55856138 475.36360615 C67.91424662 475.36169171 78.26988571 475.36420539 88.62556267 475.37832069 C97.44097299 475.39021476 106.25630875 475.39166158 115.07172006 475.37953053 C119.57066358 475.37362806 124.0694706 475.37258008 128.56840515 475.38453293 C132.68579831 475.39534512 136.80294024 475.39234429 140.92032141 475.37827124 C142.41084744 475.37561141 143.90139287 475.37803101 145.39189994 475.38600711 C147.41658424 475.3960908 149.44133919 475.38591359 151.46601772 475.37473011 C153.15360625 475.37481263 153.15360625 475.37481263 154.87528747 475.37489682 C159.25890349 474.84895925 162.63014704 473.32261665 165.8125 470.25 C169.52706336 463.21187995 167.3358335 455.96353531 165.83227539 448.57128906 C165.58764872 447.32191055 165.34302204 446.07253204 165.09098244 444.78529358 C164.41541984 441.33632137 163.72573805 437.89030454 163.03371024 434.44460392 C162.29339735 430.74523131 161.5664982 427.04322298 160.83808899 423.3414917 C159.58237289 416.96921448 158.31862634 410.59857455 157.04925537 404.22900391 C155.05596698 394.22642861 153.07771363 384.22091313 151.10205078 374.21484375 C150.43349943 370.82969437 149.76484087 367.44456618 149.09613037 364.05944824 C148.84680913 362.79726731 148.84680913 362.79726731 148.5924511 361.50958776 C147.40595151 355.50411256 146.21713547 349.49909854 145.02740479 343.4942627 C140.73218259 321.81148639 136.47384685 300.12185859 132.25746512 278.42361355 C131.83463031 276.24774948 131.41163168 274.07191732 130.9885807 271.89609528 C128.59965128 259.60905896 126.21264666 247.32164987 123.83035278 235.0333252 C122.6212238 228.79727905 121.40906031 222.56182975 120.19475365 216.32678986 C119.75499024 214.06560358 119.31638017 211.80419262 118.87905312 209.54253387 C115.14146579 184.31989946 115.14146579 184.31989946 100 165 C93.11344417 160.8680665 86.32469065 160.85255733 78.52468872 160.86628723 C77.10438947 160.8628889 77.10438947 160.8628889 75.6553973 160.85942191 C72.48656101 160.85309809 69.31776767 160.85391023 66.14892578 160.85473633 C63.87533513 160.85174385 61.60174499 160.84834111 59.32815552 160.84455872 C53.15461412 160.83572405 46.98108657 160.83338084 40.80753946 160.83274293 C35.65342019 160.8317932 30.49930414 160.8281142 25.34518611 160.82457083 C13.87979569 160.81689347 2.41441428 160.81390203 -9.05097805 160.81457619 C-10.0822112 160.81463612 -10.0822112 160.81463612 -11.13427734 160.81469727 C-12.16677405 160.81475859 -12.16677405 160.81475859 -13.22012927 160.81482115 C-24.37558246 160.8152276 -35.53100191 160.80565714 -46.68644534 160.7915589 C-58.14952398 160.77718652 -69.61257932 160.77047222 -81.07566845 160.77115268 C-87.50782668 160.77140766 -93.93994669 160.76855602 -100.37209702 160.75797462 C-106.42134337 160.74829474 -112.47051496 160.74821377 -118.51976395 160.75549126 C-120.73851378 160.75653719 -122.95726828 160.75417368 -125.17601013 160.7481308 C-128.20766844 160.74040936 -131.23906866 160.74505681 -134.27072144 160.75276184 C-135.14602599 160.74761828 -136.02133054 160.74247471 -136.92315948 160.73717529 C-149.02362254 160.80500706 -157.31854611 164.65446843 -165.45703125 173.546875 Z " fill="#000000" transform="translate(284,4)"/>
<path d="M0 0 C1.08042572 -0.00511093 2.16085144 -0.01022186 3.27401733 -0.01548767 C6.83914762 -0.02936703 10.40408422 -0.02842804 13.96923828 -0.02612305 C16.45256624 -0.03001099 18.93589354 -0.03434587 21.41921997 -0.03910828 C26.62260087 -0.04656702 31.82591392 -0.04628175 37.02929688 -0.04101562 C43.68947328 -0.03522275 50.34926717 -0.05214937 57.00941277 -0.0753603 C62.1378847 -0.09010953 67.26628982 -0.09096767 72.39477921 -0.08785057 C74.84991125 -0.08836322 77.3050471 -0.09359039 79.76015854 -0.10366249 C83.19705914 -0.11603167 86.6334202 -0.10923166 90.0703125 -0.09765625 C91.07940674 -0.10529999 92.08850098 -0.11294373 93.12817383 -0.12081909 C99.82075129 -0.07112792 105.8443012 0.55923587 111.22314453 4.95825195 C111.67818359 5.53704102 112.13322266 6.11583008 112.60205078 6.7121582 C113.07513672 7.28836914 113.54822266 7.86458008 114.03564453 8.45825195 C117.09390739 13.37898632 116.42192077 19.43815035 116.47705078 25.0246582 C116.50605469 25.98887695 116.53505859 26.9530957 116.56494141 27.9465332 C116.62059405 34.24812447 115.84199981 39.04737557 112.16455078 44.2746582 C106.84299809 49.21609999 103.25635162 49.62392185 96.14892578 49.5559082 C90.91042239 49.06222726 88.38426066 46.52733322 84.85205078 42.8996582 C83.16455078 40.2746582 83.16455078 40.2746582 82.16455078 34.2746582 C75.56455078 34.2746582 68.96455078 34.2746582 62.16455078 34.2746582 C62.16455078 62.6546582 62.16455078 91.0346582 62.16455078 120.2746582 C64.47455078 120.6046582 66.78455078 120.9346582 69.16455078 121.2746582 C74.0816198 123.90620069 77.16779995 127.90557475 78.79345703 133.1965332 C79.6815786 138.170014 78.82966702 142.03944233 76.41455078 146.5246582 C73.39164982 150.21931493 70.72330168 152.75507457 66.16455078 154.2746582 C64.80021717 154.37472216 63.4316576 154.42284298 62.0637207 154.43579102 C61.24244186 154.44539856 60.42116302 154.4550061 59.57499695 154.46490479 C58.24840813 154.4712796 58.24840813 154.4712796 56.89501953 154.4777832 C55.98126053 154.48348328 55.06750153 154.48918335 54.12605286 154.49505615 C52.19187578 154.50450238 50.25768263 154.51103864 48.32348633 154.51489258 C45.37373543 154.52458694 42.42468471 154.55560918 39.47509766 154.5871582 C37.59424241 154.59368968 35.71338219 154.59893958 33.83251953 154.6027832 C32.95419968 154.61513 32.07587982 154.62747681 31.17094421 154.64019775 C26.07498132 154.62178818 22.57183567 154.1159049 18.16455078 151.2746582 C14.1110646 147.12904734 11.2291701 143.29721054 11.13330078 137.3293457 C11.60174478 131.16930711 14.11686798 127.322341 18.47705078 122.9621582 C21.16455078 121.2746582 21.16455078 121.2746582 28.16455078 120.2746582 C28.16455078 91.8946582 28.16455078 63.5146582 28.16455078 34.2746582 C21.56455078 34.2746582 14.96455078 34.2746582 8.16455078 34.2746582 C7.83455078 36.2546582 7.50455078 38.2346582 7.16455078 40.2746582 C5.89501953 42.3215332 5.89501953 42.3215332 4.35205078 44.0246582 C3.85060547 44.59700195 3.34916016 45.1693457 2.83251953 45.7590332 C-1.65621999 49.83779417 -6.07223668 49.70101027 -11.92138672 49.5871582 C-15.89168741 49.16138869 -17.95023645 48.01561034 -20.83544922 45.2746582 C-25.87926878 38.59500527 -26.04355903 33.58851941 -26.08544922 25.5246582 C-26.10607422 24.54754883 -26.12669922 23.57043945 -26.14794922 22.5637207 C-26.1797563 16.66350727 -25.72951381 12.45673621 -22.83544922 7.2746582 C-15.89620047 0.33540945 -9.30892493 -0.02276292 0 0 Z " fill="#000000" transform="translate(210.83544921875,244.725341796875)"/>
</svg>
