<?xml version="1.0" encoding="UTF-8"?>
<svg version="1.1" xmlns="http://www.w3.org/2000/svg" width="512" height="512">
<path d="M0 0 C7.58366514 3.12125125 12.43118158 9.4394033 17 16 C17.56203125 16.80308594 18.1240625 17.60617188 18.703125 18.43359375 C41.12039201 53.68317482 39.46945294 91.09766204 30.76953125 130.30697632 C28.72866623 139.41282598 26.60442447 148.49860606 24.43011475 157.57345581 C23.93165552 159.65447968 23.43589059 161.73613164 22.94042969 163.81787109 C22.33318453 166.36837893 21.71221913 168.91414869 21.08300781 171.45947266 C18.11779288 183.78440766 19.48724359 191.92930184 23.3125 203.8125 C23.53486328 204.51363922 23.75722656 205.21477844 23.98632812 205.93716431 C34.64057204 239.44178293 49.08623584 272.0372792 69.76098633 300.59619141 C74.73657714 307.59524529 76.37982164 313.80208261 76.3125 322.3125 C76.30686035 323.06088135 76.3012207 323.8092627 76.29541016 324.58032227 C76.05975729 335.35852434 72.57927427 344.6275936 65.40625 352.8203125 C58.48011816 359.32172871 50.67386142 361.38461992 41.37023926 361.24511719 C35.33417534 360.80611482 29.56859989 359.37389656 23.703125 357.9375 C22.37533838 357.62244539 21.04726814 357.30858395 19.71893311 356.99584961 C16.26381786 356.17908698 12.81273435 355.34643535 9.36230469 354.51013184 C5.82460804 353.65576092 2.28324712 352.81686418 -1.2578125 351.9765625 C-8.1754862 350.33262457 -15.0890094 348.67183116 -22 347 C-24.80884844 350.5088016 -24.80884844 350.5088016 -27.60546875 354.02734375 C-33.29099556 360.89209094 -39.98897837 366.52278334 -49 368 C-59.55113759 368.82551688 -68.1454295 367.90498763 -76.75 361.4375 C-86.72699156 351.95465189 -88.77264712 338.20579083 -89.45521545 325.08114624 C-89.6182679 317.73161961 -88.54871325 310.75096647 -87.05859375 303.57421875 C-86.84122055 302.50935242 -86.62384735 301.44448608 -86.39988708 300.34735107 C-82.90493435 283.45501833 -79.0515508 266.63770919 -75.2532692 249.81169891 C-74.07001397 244.56715229 -72.89011669 239.32185002 -71.7097168 234.07666016 C-69.34710783 223.58101844 -66.98098029 213.08617258 -64.6138792 202.5915432 C-62.47864327 193.12420833 -60.34534501 183.65643828 -58.21289062 174.18847656 C-54.73795455 158.76016662 -51.26170318 143.33215354 -47.78421146 127.90441942 C-46.81334518 123.59719559 -45.84262038 119.28993991 -44.8720122 114.98265791 C-44.0880377 111.50371454 -43.30392193 108.02480303 -42.51977539 104.54589844 C-42.28985033 103.52574316 -42.28985033 103.52574316 -42.05528033 102.48497868 C-40.4029235 95.15421677 -38.74816005 87.824012 -37.08753967 80.49511719 C-36.79919156 79.22250282 -36.51084345 77.94988846 -36.21375751 76.63871002 C-35.64178322 74.11443473 -35.06972661 71.59017808 -34.49758434 69.06594086 C-32.84139173 61.74929845 -31.20358834 54.42884945 -29.58214664 47.10442924 C-28.58175664 42.59246034 -27.57191909 38.08263795 -26.56032372 33.57316971 C-26.09652118 31.49444147 -25.63713012 29.4147232 -25.18251991 27.3339653 C-24.56429246 24.50593544 -23.93082843 21.68173219 -23.29370117 18.85791016 C-23.11923399 18.04040913 -22.94476681 17.2229081 -22.76501274 16.38063431 C-21.36612705 10.29295844 -19.09829224 5.94475866 -14.4375 1.625 C-9.50632239 -0.70610214 -5.35613908 -0.95485488 0 0 Z M-5 18 C-6.52280832 22.34703426 -7.6837149 26.67458838 -8.69580078 31.16699219 C-8.85214996 31.85715927 -9.00849915 32.54732635 -9.16958618 33.25840759 C-9.68120005 35.52055666 -10.18837348 37.78367413 -10.6953125 40.046875 C-11.05097042 41.62539264 -11.4068391 43.20386282 -11.76290894 44.7822876 C-12.50615945 48.08017247 -13.24728335 51.37852567 -13.98681641 54.67724609 C-14.93600122 58.91060218 -15.88985433 63.1428897 -16.84520149 67.37485886 C-17.57943241 70.6291885 -18.31154066 73.88399268 -19.04296494 77.13895416 C-19.39405206 78.70044248 -19.74572745 80.26179866 -20.09799576 81.82302094 C-20.58843931 83.99840824 -21.07610484 86.17439947 -21.56298828 88.35058594 C-21.84119415 89.58935486 -22.11940002 90.82812378 -22.40603638 92.10443115 C-23.06698147 94.83389079 -23.06698147 94.83389079 -23 97 C-17.64416782 98.28603818 -12.28730796 99.56767049 -6.92944336 100.84521484 C-5.10656204 101.28052494 -3.28396845 101.71704179 -1.46166992 102.15478516 C1.15631765 102.7834443 3.77530623 103.40776943 6.39453125 104.03125 C7.21025101 104.22811401 8.02597076 104.42497803 8.8664093 104.62780762 C11.97512762 105.36430237 14.79316208 106 18 106 C19.68593654 98.89918659 20.35574752 92.16591415 20.3125 84.875 C20.30686035 83.86945068 20.3012207 82.86390137 20.29541016 81.82788086 C19.92313842 58.74150469 11.86606324 35.14308785 -4 18 C-4.33 18 -4.66 18 -5 18 Z M9 221 C8.68172745 222.42009621 8.68172745 222.42009621 8.35702515 223.86888123 C6.33002491 232.91196433 4.30100652 241.95459268 2.27014732 250.99680996 C1.22681668 255.64243172 0.18413123 260.28819608 -0.85693359 264.93432617 C-2.06145755 270.30953646 -3.26840581 275.68419891 -4.4765625 281.05859375 C-4.67272408 281.93212872 -4.86888565 282.80566368 -5.07099152 283.7056694 C-7.70622872 295.43042082 -10.40232228 307.13514044 -13.34390259 318.78770447 C-13.56605438 319.68413162 -13.78820618 320.58055878 -14.01708984 321.50415039 C-14.20878754 322.26079483 -14.40048523 323.01743927 -14.59799194 323.79701233 C-15.04331633 326.23737174 -15.06852983 328.5246023 -15 331 C-7.96961401 332.70570395 -0.93691379 334.40149659 6.09883118 336.08496857 C9.36638109 336.867131 12.63306541 337.65257666 15.89794922 338.44580078 C19.65913868 339.35782122 23.42297167 340.25812462 27.1875 341.15625 C28.34926758 341.44060913 29.51103516 341.72496826 30.70800781 342.01794434 C40.44719522 344.5197017 40.44719522 344.5197017 50.20703125 343.1875 C54.80905623 339.78356912 56.58371058 336.50653326 58 331 C58.226875 330.21625 58.45375 329.4325 58.6875 328.625 C58.98868269 326.09506543 59.19870233 323.60777453 59.3125 321.0625 C59.34988281 320.24910156 59.38726562 319.43570313 59.42578125 318.59765625 C58.83524807 314.99486207 57.1401319 312.94676905 55 310 C54.17816474 308.7805511 53.36339699 307.55631789 52.5546875 306.328125 C52.12260986 305.67320068 51.69053223 305.01827637 51.24536133 304.34350586 C45.00834771 294.81519804 39.33119957 285.06144411 34 275 C33.4726123 274.00516602 33.4726123 274.00516602 32.93457031 272.99023438 C24.16363986 256.28769696 16.97661272 238.88296277 11 221 C10.34 221 9.68 221 9 221 Z M-71 335 C-69.83041093 341.16692417 -68.45755555 344.54244445 -64 349 C-59.53748716 351.69804647 -55.06963188 352.02301989 -50 351 C-46.31148865 348.69543255 -42.96685045 345.9337009 -41 342 C-50.93495435 339.1078244 -60.71313264 336.35141199 -71 335 Z " fill="#000000" transform="translate(404,72)"/>
<path d="M0 0 C4.98234372 2.35528976 7.27771252 5.28385418 10 10 C11.08480457 13.18398891 11.79208576 16.42595449 12.50390625 19.7109375 C12.73466858 20.72603394 12.96543091 21.74113037 13.20318604 22.7869873 C14.00160584 26.31373611 14.78168161 29.8443153 15.5625 33.375 C16.15535911 36.0108424 16.74928094 38.64642575 17.34448242 41.28173828 C18.74469758 47.49076296 20.13513939 53.70192743 21.52148438 59.9140625 C24.07814272 71.36658666 26.65815325 82.81382192 29.23907471 94.26089859 C32.92968486 110.6299293 36.61733976 126.99961897 40.29492188 143.37158203 C40.43979538 144.0165335 40.58466888 144.66148497 40.7339325 145.32598042 C41.46955187 148.60086765 42.20513317 151.87576342 42.94070435 155.15066147 C47.57971295 175.80416872 52.22820692 196.45548118 56.89595681 217.10251343 C58.78547149 225.46056464 60.67297827 233.81906945 62.56059551 242.17754936 C64.20913754 249.47622613 65.86053271 256.77425003 67.51394463 264.07182503 C68.53472187 268.58046418 69.55270996 273.08972973 70.56993866 277.59917068 C71.0388782 279.67528799 71.50898579 281.75114188 71.98038483 283.82670212 C83.52901371 334.68602415 83.52901371 334.68602415 70.65625 355.73046875 C65.90116526 362.24628063 59.85439605 366.09525545 52 368 C41.84207153 369.1548457 32.65906633 368.12674035 24.2734375 362.01171875 C20.27736504 358.5991436 17.10816253 355.31571187 14.35693359 350.83691406 C13.91352631 350.11795959 13.47011902 349.39900513 13.01327515 348.65826416 C12.67889435 348.11103699 12.34451355 347.56380981 12 347 C5.40206658 348.51149322 -1.19582956 350.02314911 -7.79370117 351.53491211 C-10.03295063 352.04796941 -12.27220827 352.56099101 -14.51147461 353.07397461 C-16.68662448 353.57227461 -18.86174992 354.07068123 -21.03684998 354.56919861 C-23.15655974 355.05477406 -25.27640125 355.53977477 -27.39637756 356.02418518 C-31.67946057 357.0037654 -35.96164664 357.9845799 -40.23413086 359.00952148 C-41.3660083 359.27966064 -42.49788574 359.5497998 -43.6640625 359.828125 C-44.57494629 360.05016602 -45.48583008 360.27220703 -46.42431641 360.50097656 C-56.2992644 362.41418924 -64.77804153 361.08871557 -73.1875 355.5625 C-80.95939266 349.43919063 -85.28772529 340.64603714 -87 331 C-88.46053849 315.99261592 -85.5561133 306.75408005 -76.67578125 294.71484375 C-55.28372973 265.43949596 -42.68360948 230.30983114 -32 196 C-31.62431885 194.8658667 -31.2486377 193.7317334 -30.86157227 192.56323242 C-28.82909397 184.15744589 -30.68976513 177.01037432 -32.703125 168.77734375 C-32.98218689 167.60023331 -33.26124878 166.42312286 -33.54876709 165.21034241 C-34.44073181 161.45065432 -35.34418069 157.69387228 -36.25 153.9375 C-42.99966395 125.88271164 -42.99966395 125.88271164 -45.359375 112.37890625 C-45.5158551 111.48566147 -45.67233521 110.59241669 -45.83355713 109.67210388 C-50.40309536 82.28220893 -48.32454812 58.30958572 -37 33 C-36.7004541 32.32243652 -36.4009082 31.64487305 -36.09228516 30.94677734 C-28.97919349 15.08974796 -19.30964167 -1.93915779 0 0 Z M-7 18 C-23.53741454 36.69255633 -31.05069459 59.95216205 -31.25 84.625 C-31.25950684 85.59139404 -31.26901367 86.55778809 -31.27880859 87.5534668 C-31.24946949 93.91950835 -30.48436051 99.81065621 -29 106 C-23.53854182 105.39998628 -18.32704865 104.48170158 -13 103.15234375 C-12.2788501 102.97619034 -11.5577002 102.80003693 -10.81469727 102.61854553 C-8.5420742 102.062405 -6.27103883 101.50007083 -4 100.9375 C-2.44671591 100.55622758 -0.89333129 100.17536447 0.66015625 99.79492188 C4.44128144 98.86800331 8.22099718 97.93553207 12 97 C9.826744 86.99307286 7.64552678 76.98791808 5.45405006 66.98496437 C4.43677676 62.34043416 3.4222845 57.6953323 2.4140625 53.04882812 C1.44147546 48.56703925 0.4616953 44.08687926 -0.5231514 39.60776901 C-0.89812964 37.89626788 -1.27048609 36.18419022 -1.6402092 34.47154617 C-2.15740185 32.07793411 -2.68377116 29.68651795 -3.21240234 27.29541016 C-3.36417435 26.58259384 -3.51594635 25.86977753 -3.6723175 25.13536072 C-4.53883722 21.16467075 -4.53883722 21.16467075 -7 18 Z M11.625 204.625 C9.5246273 207.69477548 9.46706165 209.34556561 10 213 C11.46062889 215.84438258 12.39850468 216.76256764 15.375 217.9375 C18.74691421 218.01778367 20.30332144 216.94760118 23 215 C24.36997745 213.84254513 24.36997745 213.84254513 24.3125 210.6875 C24.30090201 207.02668938 24.30090201 207.02668938 22.375 204.5625 C18.45815056 201.98562537 15.49946918 201.97404741 11.625 204.625 Z M-22 221 C-22.22550537 221.65258789 -22.45101074 222.30517578 -22.68334961 222.97753906 C-33.64126549 254.5067402 -47.46815012 288.03219031 -69 314 C-71.66240254 319.32480508 -70.28698822 326.82692568 -68.8125 332.375 C-66.94825853 337.9412186 -63.82734597 340.78176935 -59 344 C-51.76719432 344.64653107 -45.18284611 342.86846041 -38.1875 341.15625 C-36.97803711 340.86770142 -35.76857422 340.57915283 -34.52246094 340.28186035 C-31.3316312 339.51891208 -28.14280159 338.74824552 -24.95477295 337.97369385 C-21.69147856 337.1829102 -18.42571631 336.4024579 -15.16015625 335.62109375 C-8.77113773 334.09017149 -2.3846495 332.54903612 4 331 C3.3464449 324.97118746 2.24365864 319.17303684 0.8828125 313.2668457 C0.56313507 311.85799606 0.56313507 311.85799606 0.23699951 310.42068481 C-0.46336201 307.33820944 -1.1691693 304.25700844 -1.875 301.17578125 C-2.36477834 299.02451074 -2.85419339 296.8731575 -3.34326172 294.72172546 C-4.62837015 289.07257855 -5.91801626 283.42447748 -7.20874023 277.77661133 C-8.77716763 270.9100836 -10.34066732 264.04243256 -11.90444946 257.1748457 C-13.1208346 251.83304217 -14.33809907 246.49144468 -15.55810547 241.15046692 C-15.7821405 240.1686293 -16.00617554 239.18679169 -16.23699951 238.17520142 C-16.65431619 236.34633996 -17.07212822 234.51759143 -17.49053955 232.6889801 C-18.37703741 228.80130051 -19.24838881 224.91660674 -20 221 C-20.66 221 -21.32 221 -22 221 Z M17.25 227.4375 C14.63682464 230.41361638 14.34289508 232.23837919 14.578125 236.15234375 C15.84811211 247.16820255 15.84811211 247.16820255 21.44921875 255.98046875 C24.04081552 257.27751764 24.04081552 257.27751764 27.125 256.4375 C30.26683417 254.86658291 31.56680806 254.20360551 33 251 C32.89596094 248.13892577 32.56770388 245.78174901 32 243 C31.81179687 241.92105469 31.62359375 240.84210938 31.4296875 239.73046875 C31.20539063 238.58191406 30.98109375 237.43335938 30.75 236.25 C30.43289062 234.61804688 30.43289062 234.61804688 30.109375 232.953125 C28.74431915 229.31938478 27.29073383 228.00559518 24 226 C20.07364231 225.69116386 20.07364231 225.69116386 17.25 227.4375 Z M24 268 C20.52140326 274.95719348 25.16602446 287.27553568 26.8125 294.4375 C27.06064453 295.59443359 27.30878906 296.75136719 27.56445312 297.94335938 C27.81775391 299.05388672 28.07105469 300.16441406 28.33203125 301.30859375 C28.55608643 302.30689209 28.7801416 303.30519043 29.01098633 304.33374023 C30.1599055 307.43108565 31.43795434 308.93937427 34 311 C37.60146865 311.60024477 39.27859404 311.45562482 42.375 309.5 C45.74874144 304.30962856 43.89834019 297.98042452 42.7578125 292.234375 C42.22206505 289.73773909 41.67756501 287.24296773 41.125 284.75 C40.85558594 283.48414063 40.58617187 282.21828125 40.30859375 280.9140625 C39.04186928 272.2838096 39.04186928 272.2838096 34.0625 265.75 C29.77249875 264.18999955 27.57386467 265.55472418 24 268 Z M44.4375 337.875 C43.27541016 338.14441406 42.11332031 338.41382813 40.91601562 338.69140625 C39.2540918 339.08779297 39.2540918 339.08779297 37.55859375 339.4921875 C36.54079834 339.73308105 35.52300293 339.97397461 34.47436523 340.22216797 C31.85596773 340.83569284 31.85596773 340.83569284 30 343 C31.12188559 344.14888283 32.24761684 345.29401137 33.375 346.4375 C34.00148438 347.07558594 34.62796875 347.71367187 35.2734375 348.37109375 C38.70473297 351.60831142 41.92883234 351.33874161 46.4609375 351.2734375 C50.26606146 350.86365492 52.21568088 349.58543918 55 347 C57.71405663 343.31726077 59.44556473 339.57409094 60 335 C54.69130346 335 49.5805304 336.64433608 44.4375 337.875 Z " fill="#000000" transform="translate(119,72)"/>
<path d="M0 0 C3.46895276 1.96071243 4.71249004 3.15543949 6 6.9375 C6 10 6 10 3 15 C-0.3 18.3 -3.6 21.6 -7 25 C41.84 25 90.68 25 141 25 C135.555 19.555 135.555 19.555 130 14 C128.39097926 10.78195852 128.40157017 7.48052295 129 4 C131.68113385 0.75014078 133.35133418 0.10424986 137.5 -0.5625 C141.96819669 0.15560304 142.94084654 1.73046603 146 5 C147.39976136 6.39169822 148.79954534 7.78337392 150.20001221 9.17436218 C152.32724197 11.28813858 154.45174293 13.40464936 156.57617188 15.52124023 C157.69834011 16.63833449 158.82139746 17.75453627 159.9453125 18.86987305 C161.57525916 20.48773725 163.20199561 22.10876898 164.828125 23.73046875 C165.33224915 24.22943161 165.83637329 24.72839447 166.35577393 25.24247742 C170.32129483 29.2073532 171.1089842 31.19328501 171.5234375 36.83203125 C170.70832904 40.20804017 168.5383971 41.69394252 166 44 C165.01714662 44.93115034 164.03540584 45.86347624 163.0546875 46.796875 C142.86873549 65.61750193 142.86873549 65.61750193 137.1875 66.375 C134 66 134 66 131.125 64 C129 61 129 61 128.0625 57.25 C129 53 129 53 139 44 C91.48 44 43.96 44 -5 44 C-1.7 46.97 1.6 49.94 5 53 C5.9375 57.25 5.9375 57.25 5 61 C2.63603418 64.33736351 1.16947745 65.71412773 -2.8125 66.6875 C-10.63368207 65.00057838 -16.49226483 57.79062541 -22.17578125 52.53515625 C-25.65621986 49.41094511 -29.29304341 46.53541153 -33.00390625 43.69140625 C-36.00762481 41.14618094 -36.94053396 39.30814222 -37.6875 35.4375 C-37.57416999 31.25187652 -35.94285738 29.41253782 -33.12109375 26.41796875 C-32.30390869 25.54438721 -31.48672363 24.67080566 -30.64477539 23.77075195 C-29.77199951 22.85640381 -28.89922363 21.94205566 -28 21 C-26.7150061 19.62557739 -26.7150061 19.62557739 -25.40405273 18.22338867 C-22.75633352 15.41152316 -20.07080961 12.64072974 -17.375 9.875 C-16.47265625 8.91851562 -15.5703125 7.96203125 -14.640625 6.9765625 C-13.75632813 6.07421875 -12.87203125 5.171875 -11.9609375 4.2421875 C-11.17509277 3.4260498 -10.38924805 2.60991211 -9.57958984 1.76904297 C-6.18816464 -0.55674418 -4.03223524 -0.43880723 0 0 Z " fill="#000000" transform="translate(189,88)"/>
</svg>
