<?xml version="1.0" encoding="UTF-8"?>
<svg version="1.1" xmlns="http://www.w3.org/2000/svg" width="512" height="512">
<path d="M0 0 C84.48 0 168.96 0 256 0 C256.66 5.94 257.32 11.88 258 18 C261.81833284 33.69759058 269.69102936 45.95000759 283.32421875 54.87890625 C297.24157402 63.33421469 312.98061137 63.14459281 328.7265625 63.31640625 C330.32653283 63.33701886 331.92649825 63.35801633 333.52645874 63.37937927 C337.7053017 63.43415578 341.88419011 63.4837579 346.06311035 63.53222656 C350.34029102 63.58276932 354.61740698 63.638283 358.89453125 63.69335938 C367.26296587 63.80039625 375.63145518 63.90195843 384 64 C384.08834886 68.41653692 384.14083987 72.83284148 384.1875 77.25 C384.22520508 79.10238281 384.22520508 79.10238281 384.26367188 80.9921875 C384.34660674 91.49726992 382.94155099 100.93277321 378.15234375 110.38671875 C377.36827148 111.94616211 377.36827148 111.94616211 376.56835938 113.53710938 C376.03017578 114.57673828 375.49199219 115.61636719 374.9375 116.6875 C374.39544922 117.76966797 373.85339844 118.85183594 373.29492188 119.96679688 C369.2818031 127.85909845 369.2818031 127.85909845 367 129 C364.7725044 129.244877 362.5429084 129.47075185 360.3125 129.6875 C343.61327134 131.7069322 329.57803379 139.71986411 318.7421875 152.69140625 C309.29853088 165.20530998 306.99033945 176.07728442 305 192 C288.5 192 272 192 255 192 C254.01 184.08 254.01 184.08 253 176 C248.62739735 159.77119279 238.23199598 146.70894531 224.125 137.75 C209.31034036 129.40115659 192.57956572 127.05248435 176 131 C158.86470878 135.89891901 145.09000165 146.87043186 136.3125 162.421875 C131.30807824 172.25198917 130.42709806 180.58321552 129 192 C112.5 192 96 192 79 192 C78.01 184.08 78.01 184.08 77 176 C72.62739735 159.77119279 62.23199598 146.70894531 48.125 137.75 C39.09222188 132.64391344 30.45133415 130.52578764 20.1875 129.58984375 C16.70698035 128.945777 16.16931465 128.60701516 14 126 C11.97455307 122.60198634 10.26489292 119.03914867 8.5 115.5 C8.01402344 114.55640625 7.52804688 113.6128125 7.02734375 112.640625 C6.55425781 111.69703125 6.08117187 110.7534375 5.59375 109.78125 C5.16771484 108.93626953 4.74167969 108.09128906 4.30273438 107.22070312 C-9.10971906 74.06157913 0 35.7690007 0 0 Z " fill="#000000" transform="translate(64,240)"/>
<path d="M0 0 C1.1410577 -0.00453111 2.28211541 -0.00906223 3.45775062 -0.01373065 C7.27207153 -0.02636648 11.0862495 -0.02475477 14.90058899 -0.02310181 C17.63926733 -0.02800246 20.37793572 -0.03583697 23.11660767 -0.04345703 C29.77877535 -0.06003747 36.44090764 -0.06556526 43.10309424 -0.06668179 C48.52184752 -0.06763376 53.94058917 -0.0717515 59.35933876 -0.07808304 C74.74073381 -0.09568816 90.12210101 -0.10492317 105.50350621 -0.10342209 C106.33192634 -0.10334218 107.16034647 -0.10326227 108.01387024 -0.10317993 C108.84330833 -0.10309817 109.67274642 -0.10301641 110.52731899 -0.10293217 C123.96198477 -0.1021197 137.39653832 -0.12124943 150.83117165 -0.14945666 C164.64363725 -0.17822706 178.45604819 -0.19199464 192.2685445 -0.19026911 C200.01598878 -0.1896066 207.76331545 -0.19503787 215.51073265 -0.21662521 C222.10843691 -0.23489191 228.70597023 -0.23913963 235.30368891 -0.22560637 C238.6654663 -0.21910377 242.0266505 -0.22105989 245.38843918 -0.23631287 C271.22028259 -0.34588985 271.22028259 -0.34588985 281.49555969 4.26742554 C282.49212853 4.67987487 282.49212853 4.67987487 283.50883007 5.10065651 C300.20129919 12.47322493 311.08701558 26.15034168 317.71821594 42.80648804 C318.49555969 45.26742554 318.49555969 45.26742554 318.49555969 48.26742554 C193.09555969 48.26742554 67.69555969 48.26742554 -61.50444031 48.26742554 C-59.08819613 33.76996047 -50.14929608 21.46271666 -38.75444031 12.45492554 C-26.58624518 3.7943989 -14.76061353 -0.04323923 0 0 Z " fill="#000000" transform="translate(127.50444030761719,175.73257446289063)"/>
<path d="M0 0 C10.23906578 7.73254248 18.72711365 17.59665562 20.6875 30.6875 C22.11678455 48.13329299 19.50517553 61.04058775 8.03125 74.65234375 C0.02533375 83.28136197 -10.26078398 88.35475631 -21.96875 89.00390625 C-38.65548452 89.56319388 -50.64291019 85.89777041 -63.0625 74.375 C-73.05541038 63.81645319 -75.82689781 52.26922077 -75.73217773 38.15722656 C-75.32139743 24.03483761 -69.475381 12.95884274 -59.25 3.28125 C-42.59283172 -10.42061423 -18.05009418 -11.9794347 0 0 Z " fill="#000000" transform="translate(459.3125,391.3125)"/>
<path d="M0 0 C10.23906578 7.73254248 18.72711365 17.59665562 20.6875 30.6875 C22.11678455 48.13329299 19.50517553 61.04058775 8.03125 74.65234375 C0.02533375 83.28136197 -10.26078398 88.35475631 -21.96875 89.00390625 C-38.65548452 89.56319388 -50.64291019 85.89777041 -63.0625 74.375 C-73.05541038 63.81645319 -75.82689781 52.26922077 -75.73217773 38.15722656 C-75.32139743 24.03483761 -69.475381 12.95884274 -59.25 3.28125 C-42.59283172 -10.42061423 -18.05009418 -11.9794347 0 0 Z " fill="#000000" transform="translate(283.3125,391.3125)"/>
<path d="M0 0 C10.23906578 7.73254248 18.72711365 17.59665562 20.6875 30.6875 C22.11678455 48.13329299 19.50517553 61.04058775 8.03125 74.65234375 C0.02533375 83.28136197 -10.26078398 88.35475631 -21.96875 89.00390625 C-38.65548452 89.56319388 -50.64291019 85.89777041 -63.0625 74.375 C-73.05541038 63.81645319 -75.82689781 52.26922077 -75.73217773 38.15722656 C-75.32139743 24.03483761 -69.475381 12.95884274 -59.25 3.28125 C-42.59283172 -10.42061423 -18.05009418 -11.9794347 0 0 Z " fill="#000000" transform="translate(107.3125,391.3125)"/>
<path d="M0 0 C5.26990536 3.97753875 10.13738935 8.27879267 14.82714844 12.92504883 C15.33246094 13.42480225 15.83777344 13.92455566 16.35839844 14.43945312 C20.87700277 19.04908307 22.43247826 21.96647253 22.51464844 28.42504883 C22.41328262 33.6327179 21.83913242 36.65585516 18.13964844 40.55004883 C14.32034672 44.17838546 11.25685838 44.86005341 6.13964844 45.05004883 C-1.50354349 44.73980857 -4.77398003 41.67871221 -9.92285156 36.36254883 C-22.62670881 23.40247933 -39.36661764 14.73100268 -57.67285156 14.11254883 C-78.06340018 14.65150606 -94.36112567 24.79368777 -108.29785156 38.98754883 C-108.8946875 39.62563477 -109.49152344 40.2637207 -110.10644531 40.92114258 C-114.61441038 45.10782728 -119.01170561 44.97806383 -124.94628906 44.86254883 C-130.24775258 44.29402727 -132.70007651 41.77139099 -136.23535156 38.05004883 C-138.58360882 32.99226396 -138.83132464 28.0331909 -137.86035156 22.55004883 C-126.56467733 2.45728268 -101.86495667 -11.34249996 -80.41894531 -17.53979492 C-52.01536834 -24.80437608 -23.23281002 -17.02284753 0 0 Z " fill="#000000" transform="translate(393.8603515625,51.449951171875)"/>
<path d="M0 0 C8.34296853 4.97488123 13.53708251 11.86384564 16.109375 21.2578125 C17.01215168 31.38780665 16.7769666 40.12821425 10.42578125 48.46875 C5.99481646 53.74779192 5.99481646 53.74779192 3.03216553 55.45429993 C0.82250451 57.16577962 0.82250451 57.16577962 0.59039307 60.20011902 C0.5770694 62.00214531 0.5770694 62.00214531 0.56347656 63.84057617 C0.55313889 64.50425705 0.54280121 65.16793793 0.53215027 65.85173035 C0.50267478 68.04332691 0.50122223 70.23400188 0.5 72.42578125 C0.48502139 73.94608832 0.46829491 75.4663791 0.44989014 76.98664856 C0.40616776 80.98644754 0.38620698 84.98602702 0.37115479 88.98602295 C0.34816272 93.78612261 0.29572761 98.58597961 0.24821472 103.38588715 C0.17934933 110.67659238 0.14794264 117.96660037 0.109375 125.2578125 C-10.450625 125.2578125 -21.010625 125.2578125 -31.890625 125.2578125 C-31.87 120.43027344 -31.849375 115.60273438 -31.828125 110.62890625 C-31.83285611 107.56170014 -31.83994133 104.49485849 -31.85546875 101.42773438 C-31.87986682 96.56433824 -31.89577207 91.70199659 -31.85986328 86.83862305 C-31.8314418 82.91521392 -31.84214327 78.99364518 -31.87942505 75.07032967 C-31.88684402 73.57730545 -31.88041145 72.08414309 -31.85958862 70.59124565 C-31.53194017 62.2854202 -31.53194017 62.2854202 -34.63720703 54.86502075 C-36.63784111 53.12592671 -38.69034921 51.72660897 -40.890625 50.2578125 C-47.93226684 42.21846808 -48.66914564 33.48495031 -48.0859375 23.17431641 C-47.32082975 15.66669658 -43.43289504 9.24077088 -37.890625 4.2578125 C-27.15195714 -3.81766573 -12.32399863 -5.91386512 0 0 Z " fill="#000000" transform="translate(159.890625,34.7421875)"/>
<path d="M0 0 C36.96 0 73.92 0 112 0 C112 15.84 112 31.68 112 48 C92.226357 48.16043524 92.226357 48.16043524 83.74414062 48.1953125 C77.97486504 48.21914779 72.20584537 48.24722827 66.43676758 48.30175781 C61.78128075 48.34548214 57.12606868 48.36919284 52.47039223 48.37950897 C50.70151767 48.38685292 48.93265674 48.40119299 47.16390038 48.42292023 C32.96396187 48.5902832 21.74359406 47.25617203 11 37 C0.15256187 25.63704005 0 16.18894552 0 0 Z " fill="#000000" transform="translate(336,240)"/>
<path d="M0 0 C12.69515157 10.58295998 12.69515157 10.58295998 13.74121094 17.58496094 C13.75461712 28.00156463 13.75461712 28.00156463 9.30761719 32.68261719 C5.48831547 36.31095382 2.42482713 36.99262177 -2.69238281 37.18261719 C-9.00735531 36.94152834 -11.94581688 35.13889566 -16.61425781 30.96386719 C-23.44285301 24.90541431 -28.20532346 21.95029626 -37.59863281 22.20605469 C-45.47396004 23.41917327 -51.42975147 29.0023467 -57.09863281 34.26464844 C-60.83259504 37.5867766 -64.92657175 37.01143573 -69.70800781 36.95996094 C-75.06288013 36.46232228 -77.50578558 33.9316669 -81.06738281 30.18261719 C-83.46638269 25.01554054 -83.44190361 20.28470561 -82.69238281 14.68261719 C-81.12988281 11.37011719 -81.12988281 11.37011719 -78.69238281 8.68261719 C-77.98082031 7.85890625 -77.98082031 7.85890625 -77.25488281 7.01855469 C-57.42584481 -14.62178967 -23.291299 -18.13038797 0 0 Z " fill="#000000" transform="translate(370.6923828125,91.3173828125)"/>
<path d="M0 0 C4.8846525 2.26787438 7.73212562 5.1153475 10 10 C10.75381535 15.5997712 10.77303575 20.33499991 8.375 25.5 C3.80134327 30.3143755 0.6912538 32.25156236 -6 32.5 C-12.6912538 32.25156236 -15.80134327 30.3143755 -20.375 25.5 C-22.77303575 20.33499991 -22.75381535 15.5997712 -22 10 C-17.52212837 0.3553534 -9.85292056 -1.32635469 0 0 Z " fill="#000000" transform="translate(342,128)"/>
</svg>
