<?xml version="1.0" encoding="UTF-8"?>
<svg version="1.1" xmlns="http://www.w3.org/2000/svg" width="512" height="512">
<path d="M0 0 C10.29589751 8.17807049 17.24449815 20.18456126 20 33 C20.40629765 36.63769605 20.47762704 40.21701862 20.4375 43.875 C20.43065186 44.83881592 20.42380371 45.80263184 20.41674805 46.7956543 C20.25198348 54.11502684 19.21184141 60.35444656 16 67 C15.649375 67.77988281 15.29875 68.55976563 14.9375 69.36328125 C8.36247665 82.58181777 -3.30313709 91.99920676 -17 97 C-17.99 97 -18.98 97 -20 97 C-19.99631283 97.90667986 -19.99262566 98.81335972 -19.98882675 99.74751472 C-19.90050103 121.80595003 -19.83430267 143.86435486 -19.79275131 165.92292976 C-19.77212345 176.59028599 -19.74399847 187.25752421 -19.69824219 197.92480469 C-19.6583814 207.22208258 -19.63256882 216.519275 -19.62364602 225.81663597 C-19.61843001 230.73984537 -19.6061657 235.66281025 -19.57707977 240.58594131 C-19.54992271 245.2201514 -19.54155561 249.85401631 -19.54756927 254.48829842 C-19.54646917 256.18865777 -19.53851695 257.88902871 -19.5231781 259.58931923 C-19.50324499 261.91292515 -19.50807202 264.23523176 -19.51898193 266.55886841 C-19.51529476 267.85859652 -19.51160759 269.15832462 -19.50780869 270.49743843 C-20.21446677 275.52620137 -22.3411839 278.69984684 -26.3125 281.8125 C-30.93087148 283.85317577 -34.65379655 284.23210404 -39.625 283.375 C-44.5684048 281.36102027 -47.08362021 278.37456969 -50 274 C-50.24609566 270.86658192 -50.24609566 270.86658192 -50.24050903 266.91963196 C-50.24221788 266.19427992 -50.24392673 265.46892787 -50.24568737 264.72159547 C-50.24898844 262.28475629 -50.23796854 259.84819088 -50.22705078 257.41137695 C-50.2264868 255.66711432 -50.22680297 253.92285122 -50.22793579 252.17858887 C-50.22851082 247.4371408 -50.21673229 242.69579344 -50.20278788 237.95436883 C-50.19030546 233.00158206 -50.18911198 228.04879311 -50.18673706 223.09599304 C-50.18051496 213.71438089 -50.16409428 204.33281522 -50.14403808 194.95122355 C-50.12170177 184.27179899 -50.11069136 173.59237223 -50.10064721 162.91293013 C-50.07972869 140.94192745 -50.04453854 118.97096665 -50 97 C-50.93553711 96.85755859 -51.87107422 96.71511719 -52.83496094 96.56835938 C-64.51806621 94.47037503 -75.04409229 84.60225853 -81.69140625 75.16796875 C-90.23446249 61.01454721 -92.21457409 45.50505008 -89.34765625 29.31640625 C-88.43955006 26.38162532 -87.36526595 23.75072815 -86 21 C-85.25363281 19.48212891 -85.25363281 19.48212891 -84.4921875 17.93359375 C-77.12370394 4.24192313 -65.6014692 -5.04486728 -50.875 -10 C-32.84595524 -14.08053824 -15.05731061 -10.6162499 0 0 Z M-52.8828125 26.97265625 C-54.39807568 28.9307862 -55.74480403 30.86701495 -57 33 C-57.37382812 33.60199219 -57.74765625 34.20398438 -58.1328125 34.82421875 C-60.3440225 40.37216457 -59.82258101 47.73570699 -58.3828125 53.44921875 C-55.6387463 59.62943864 -50.3446788 64.16042666 -44.5 67.375 C-36.20911097 69.44772226 -29.93675263 69.19414801 -22.3125 65.25 C-16.79530423 61.85673609 -13.53060407 56.85512314 -11 51 C-9.76071647 42.89181937 -10.36162639 35.94536972 -15.078125 29.12890625 C-19.4387305 24.29856073 -24.98446205 20.42783509 -31.56640625 19.7265625 C-39.97277843 19.44160073 -46.87773591 20.68103036 -52.8828125 26.97265625 Z " fill="#000000" transform="translate(291,180)"/>
<path d="M0 0 C3.32838519 2.55905041 5.28149647 4.84129421 6.23046875 8.921875 C6.67996787 14.5855639 6.48381723 18.09114544 3.23046875 22.921875 C1.10426138 25.15813451 -1.09506833 27.30343269 -3.3125 29.44921875 C-7.48870952 33.65198604 -11.10328735 38.27548468 -14.76953125 42.921875 C-15.56230469 43.89769531 -16.35507813 44.87351563 -17.171875 45.87890625 C-27.91986382 59.37756519 -36.56623897 74.26286239 -43.76953125 89.921875 C-44.10581543 90.64955078 -44.44209961 91.37722656 -44.78857422 92.12695312 C-66.91110643 140.6323455 -69.0128786 197.16607267 -50.89941406 247.32885742 C-47.16653642 257.19341283 -42.76032677 266.63777002 -37.76953125 275.921875 C-37.4230957 276.57994141 -37.07666016 277.23800781 -36.71972656 277.91601562 C-27.366804 295.62923585 -15.15491763 311.25938172 -1.48632812 325.86401367 C3.70283065 331.42260561 6.57585656 334.95811347 6.4453125 342.86328125 C5.98809517 347.24425455 4.04870193 350.08026373 1.04296875 353.171875 C-3.78391729 356.17527076 -8.28512171 357.60823582 -13.95703125 356.359375 C-24.99394474 352.07041898 -33.78999304 338.89196743 -40.76953125 329.921875 C-41.54554687 328.9628125 -42.3215625 328.00375 -43.12109375 327.015625 C-68.93511913 294.56370738 -86.4024045 254.90135953 -92.76953125 213.921875 C-92.94685791 212.79595947 -93.12418457 211.67004395 -93.30688477 210.51000977 C-94.77753014 200.15789679 -95.1101692 189.94569599 -95.08520508 179.49682617 C-95.08205453 176.75463671 -95.10557678 174.01354097 -95.13085938 171.27148438 C-95.19176407 154.46047154 -93.17037782 138.00710883 -89.14453125 121.671875 C-88.89147217 120.6401416 -88.63841309 119.6084082 -88.37768555 118.54541016 C-78.09272674 78.241552 -53.29814967 22.91877761 -16.76953125 -1.078125 C-10.72444332 -3.71598155 -5.6092314 -3.41754496 0 0 Z " fill="#000000" transform="translate(94.76953125,51.078125)"/>
<path d="M0 0 C2.92692828 2.08585694 5.44919592 4.47501378 8 7 C8.57492187 7.53753906 9.14984375 8.07507813 9.7421875 8.62890625 C15.00137002 13.65784806 19.483145 19.30935702 24 25 C24.78375 25.96679688 25.5675 26.93359375 26.375 27.9296875 C52.15410761 60.40144805 69.64376945 100.01616253 76 141 C76.26490234 142.70410034 76.26490234 142.70410034 76.53515625 144.44262695 C78.07871619 155.40948254 78.39977929 166.24679275 78.375 177.3125 C78.37445618 178.23108795 78.37391235 179.1496759 78.37335205 180.09609985 C78.20666164 241.60552835 53.65843493 299.12871147 12.43701172 344.42089844 C11.11308073 345.875738 9.8075854 347.34729787 8.50390625 348.8203125 C3.9674124 353.71060569 -0.17948218 357.25969468 -7 358 C-12.98860796 357.70386005 -16.88683262 355.21109994 -21 351 C-23.41879958 346.93201889 -23.55095505 342.62802246 -23 338 C-21.26299616 332.55738798 -17.45953832 329.3458416 -13.45703125 325.47265625 C-9.28013021 321.26919304 -5.67254619 316.64229859 -2 312 C-1.25363281 311.10539062 -0.50726563 310.21078125 0.26171875 309.2890625 C34.41576616 267.17514619 50.30634207 211.81185994 45.53515625 158.0390625 C43.18929543 136.21284473 37.59388245 115.17007887 29 95 C28.69368652 94.26910156 28.38737305 93.53820312 28.07177734 92.78515625 C20.39165074 74.69474458 9.67753804 57.98174544 -3 43 C-3.75676025 42.10112061 -3.75676025 42.10112061 -4.52880859 41.18408203 C-9.84812446 34.88294138 -15.23820646 28.64615301 -20.79296875 22.55078125 C-23.64712008 18.88379718 -23.46182501 14.42512324 -23 10 C-21.2859023 5.30878525 -19.21145807 2.68001877 -15 0 C-9.65716168 -2.21778195 -5.26540513 -2.46122386 0 0 Z " fill="#000000" transform="translate(434,50)"/>
<path d="M0 0 C4.44415786 4.02090473 6.84356017 7.18922239 7.1875 13.25 C6.8662936 20.39148903 3.3182741 24.85353528 -1.6953125 29.65625 C-28.42002249 56.09371052 -41.28556431 95.08803738 -41.6875 132.0625 C-41.53659759 169.96844884 -27.82726249 208.12102398 -1.23046875 235.58984375 C-0.61816406 236.17894531 -0.00585938 236.76804687 0.625 237.375 C4.97018441 241.57430292 6.7723105 245.30822575 7.0625 251.375 C6.89912738 256.10570295 5.86547455 258.79342287 2.625 262.375 C-1.6897317 266.27880487 -5.12294131 266.83350981 -10.71484375 266.90625 C-25.62059268 263.92947782 -36.57479159 244.05279929 -44.375 232.375 C-47.30206705 227.84769249 -49.90898689 223.16692593 -52.375 218.375 C-52.7354541 217.68390137 -53.0959082 216.99280273 -53.46728516 216.28076172 C-62.20953222 199.32892262 -68.51741383 181.27129163 -71.375 162.375 C-71.52727051 161.38814209 -71.52727051 161.38814209 -71.68261719 160.38134766 C-78.85143284 112.20102666 -66.93136244 62.7283403 -38.125 23.4375 C-34.578795 18.81388897 -30.89181139 14.32041696 -27.125 9.875 C-26.62967773 9.28726807 -26.13435547 8.69953613 -25.62402344 8.09399414 C-18.67013204 0.01190752 -10.57690724 -5.09258497 0 0 Z " fill="#000000" transform="translate(139.375,95.625)"/>
<path d="M0 0 C17.5095267 8.56890804 30.36740722 31.22525334 39 48 C39.3604541 48.69109863 39.7209082 49.38219727 40.09228516 50.09423828 C62.50746423 93.55886544 65.89981151 144.10702413 51.57421875 190.71484375 C43.84446742 214.74180477 31.4481938 235.94237794 15 255 C14.22527344 255.92039062 13.45054687 256.84078125 12.65234375 257.7890625 C11.88019531 258.68367188 11.10804688 259.57828125 10.3125 260.5 C9.28576172 261.69109375 9.28576172 261.69109375 8.23828125 262.90625 C4.32679183 266.56516506 0.36801619 268.42889741 -5 268.4375 C-9.73070295 268.27412738 -12.41842287 267.24047455 -16 264 C-19.88265196 259.70864783 -20.6981872 256.1417787 -20.4453125 250.51953125 C-19.41604149 244.69602424 -15.84370779 240.70763124 -11.6796875 236.71875 C14.9346639 210.39046189 27.88270742 171.19031612 28.3125 134.375 C28.16592085 96.44398034 14.47242 58.27479442 -12.14453125 30.78515625 C-12.75683594 30.19605469 -13.36914062 29.60695313 -14 29 C-18.34518441 24.80069708 -20.1473105 21.06677425 -20.4375 15 C-20.27412738 10.26929705 -19.24047455 7.58157713 -16 4 C-11.19310251 -0.34909773 -6.26015516 -1.25019251 0 0 Z " fill="#000000" transform="translate(386,94)"/>
<path d="M0 0 C19.94128261 13.29418841 32.24514821 40.94125898 37.03125 63.65625 C43.09657541 95.69207514 36.99259101 128.98052207 18.5859375 156.08203125 C4.70661658 175.30830368 4.70661658 175.30830368 -3 177 C-8.63460206 177.44719064 -12.14906044 177.19721016 -17 174 C-20.75560264 169.83838627 -22.16813949 167.31167876 -22.3125 161.75 C-22.34988281 160.81671875 -22.38726562 159.8834375 -22.42578125 158.921875 C-21.56417608 153.00920836 -17.17754901 148.98822281 -13.3125 144.6875 C2.00990584 126.84951801 8.70674234 103.27624567 7 80 C4.86530482 60.19321208 -3.32307885 42.63424944 -16.546875 27.875 C-21.2636184 22.34709691 -22.55902251 18.86208199 -22.35546875 11.66015625 C-21.72315391 6.92821771 -19.42317756 4.25067119 -15.9375 1.1875 C-10.92764191 -1.88305819 -5.41560265 -1.80520088 0 0 Z " fill="#000000" transform="translate(343,140)"/>
<path d="M0 0 C3.5677811 2.35149209 5.84221079 4.99692157 7.75 8.8125 C8.25197453 13.84870344 8.46419481 18.32459415 6.25 22.9375 C4.86573749 24.52940189 3.46811561 26.1109284 2.01953125 27.64453125 C-14.62062937 45.54681983 -22.06551652 68.04420174 -21.49609375 92.29296875 C-20.56291114 114.22043874 -11.2223456 134.09504935 3.90234375 149.7265625 C7.96116038 154.3088206 8.18189837 158.13937301 8.0703125 164.1171875 C7.50430725 168.87991463 5.1844371 171.55193406 1.6875 174.625 C-2.42615708 177.1462737 -6.56037133 177.27877283 -11.25 176.8125 C-25.54724653 172.04675116 -35.17572 152.85446683 -41.76318359 140.27539062 C-55.66150328 112.37872336 -57.07834751 79.39184218 -47.6875 49.875 C-41.67815622 32.28705173 -30.48073942 9.20498735 -13.8125 -0.625 C-8.76870008 -1.73217559 -4.80073618 -1.75411514 0 0 Z " fill="#000000" transform="translate(183.25,140.1875)"/>
</svg>
