<?xml version="1.0" encoding="UTF-8"?>
<svg version="1.1" xmlns="http://www.w3.org/2000/svg" width="512" height="512">
<path d="M0 0 C0.6379248 0.20898926 1.27584961 0.41797852 1.93310547 0.63330078 C16.32825498 5.4752067 28.11902447 13.45352101 39 24 C39.59941406 24.5259375 40.19882812 25.051875 40.81640625 25.59375 C56.25725502 39.637399 66.10431009 63.28091693 67.14038086 83.77709961 C68.54095971 128.76676583 49.83849277 165.48595029 22 200 C20.86304688 201.42505859 20.86304688 201.42505859 19.703125 202.87890625 C15.40468776 208.20748621 10.95510504 213.3652012 6.3359375 218.41796875 C4.43268327 220.52173304 2.56126622 222.64520298 0.69921875 224.78515625 C-2.98636925 229.00480868 -6.75003159 233.14486514 -10.5625 237.25 C-11.19607422 237.94351563 -11.82964844 238.63703125 -12.48242188 239.3515625 C-17.61628541 244.87139105 -22.36097336 249.6431518 -30.25 250.25 C-38.01196184 249.73253588 -42.36120365 246.23730175 -47.5 240.8125 C-48.06895996 240.22734619 -48.63791992 239.64219238 -49.22412109 239.03930664 C-52.66128541 235.48061647 -56.00118345 231.85070959 -59.203125 228.078125 C-61.06973362 225.91935156 -62.99847129 223.82486015 -64.94042969 221.73388672 C-70.55176691 215.68517842 -75.88747156 209.48078525 -81 203 C-81.73089844 202.07791748 -81.73089844 202.07791748 -82.4765625 201.13720703 C-108.82761375 167.76840353 -132.41106025 128.16018534 -128.53125 84.02734375 C-125.7261041 61.08283385 -117.04667593 41.77607029 -101 25 C-100.38640625 24.31164062 -99.7728125 23.62328125 -99.140625 22.9140625 C-75.15061429 -3.02385506 -32.71589986 -10.86019013 0 0 Z M-85.0625 41.625 C-98.72393251 55.64706038 -105.86616564 74.95704848 -106.1328125 94.41796875 C-105.40680639 140.62343433 -71.29485955 180.06950963 -41.55859375 212.22265625 C-37.98549959 216.10123633 -34.48667305 220.04377499 -31 224 C-27.12799946 221.18399961 -24.1626887 218.00883524 -21.078125 214.39453125 C-19.10910587 212.12571785 -17.08691006 209.91497583 -15.04223633 207.71435547 C-9.91808727 202.19386826 -4.99772275 196.56099368 -0.31640625 190.65527344 C0.63688633 189.45658581 1.59597472 188.26249995 2.55859375 187.07128906 C19.0522308 166.64470045 32.68292702 145.00303872 41 120 C41.34160156 118.99324219 41.68320312 117.98648438 42.03515625 116.94921875 C47.79268942 96.7309046 44.6274681 74.43097529 34.84765625 56.1171875 C32.24039281 51.71846398 29.4069658 47.80862913 26 44 C25.35675781 43.26394531 24.71351563 42.52789062 24.05078125 41.76953125 C12.44927012 29.31023741 -3.15867485 21.37505867 -20 19 C-20.825 18.8659375 -21.65 18.731875 -22.5 18.59375 C-46.08937265 15.50466549 -68.21775025 25.7801669 -85.0625 41.625 Z " fill="#000000" transform="translate(409,4)"/>
<path d="M0 0 C1.5896483 1.49330598 3.17336461 2.99296142 4.75 4.5 C5.78060547 5.41845703 5.78060547 5.41845703 6.83203125 6.35546875 C21.85508301 20.25253241 31.71328143 43.22183385 32.92700195 63.44995117 C33.22714494 78.59939952 33.17395413 92.92186461 28.75 107.5 C28.5245752 108.24942871 28.29915039 108.99885742 28.06689453 109.77099609 C18.14873435 141.53200191 -1.7776946 168.60938323 -23.25 193.5 C-23.88808594 194.23992187 -24.52617187 194.97984375 -25.18359375 195.7421875 C-26.86123798 197.67167209 -28.55157548 199.58878881 -30.25 201.5 C-30.88808594 202.21929687 -31.52617187 202.93859375 -32.18359375 203.6796875 C-33.64676808 205.31736886 -35.11724478 206.94854605 -36.59375 208.57421875 C-38.03253861 210.15900208 -39.46877821 211.7461906 -40.890625 213.34619141 C-42.68663873 215.36621016 -44.49851623 217.37111593 -46.3125 219.375 C-46.87783447 220.01767822 -47.44316895 220.66035645 -48.02563477 221.32250977 C-52.78780805 226.53411273 -57.65964115 229.98709159 -64.75 231 C-76.63030291 229.30281387 -83.88315444 219.40437594 -91.28125 210.75 C-93.32750787 208.41141958 -95.43335665 206.13986086 -97.5546875 203.86962891 C-103.39344851 197.61511035 -108.93925527 191.21405861 -114.25 184.5 C-114.76820312 183.85434082 -115.28640625 183.20868164 -115.8203125 182.54345703 C-144.95279344 146.21931056 -166.81577143 105.55365172 -161.96582031 57.69580078 C-158.41505749 33.5877395 -144.71554911 10.88794341 -125.34765625 -3.68359375 C-87.28481671 -31.04270144 -36.06928611 -31.94551102 0 0 Z M-119.25 21.5 C-133.43864958 36.83050049 -140.42088502 56.65202788 -140.25 77.5 C-138.08307363 116.50467474 -113.26713571 150.29954612 -88.25 178.5 C-87.02024445 179.91615551 -85.79098098 181.33273869 -84.5625 182.75 C-81.2344979 186.53954984 -77.85160817 190.27935012 -74.47265625 194.0234375 C-71.36474899 197.4863781 -68.30149808 200.98734304 -65.25 204.5 C-64.52296875 203.77039063 -63.7959375 203.04078125 -63.046875 202.2890625 C-61.3387121 200.58567101 -59.6220075 198.89072251 -57.890625 197.2109375 C-52.69460377 192.1337795 -47.98227531 186.87649282 -43.453125 181.19921875 C-41.36542842 178.64142028 -39.18703361 176.22791649 -36.9375 173.8125 C-12.5008238 146.90661261 11.36441843 109.82517116 10.71142578 72.28222656 C9.66618855 52.24776532 1.98137266 34.73137266 -12.25 20.5 C-12.96027344 19.78972656 -13.67054688 19.07945312 -14.40234375 18.34765625 C-28.08534786 5.45643538 -46.07037858 -0.94382551 -64.75 -1.5859375 C-85.43324116 -0.87495109 -104.35965278 7.15468745 -119.25 21.5 Z " fill="#000000" transform="translate(162.25,186.5)"/>
<path d="M0 0 C12.40627895 9.15652878 20.83773428 20.30276047 23.95703125 35.62890625 C26.20839275 52.59907451 22.60644072 67.08487323 12.7109375 81.1015625 C3.89004984 91.90350058 -9.78041459 99.2815296 -23.62890625 100.75 C-40.11556158 101.92912222 -54.59604464 97.63844095 -67.44140625 87.0625 C-77.74513916 77.25122491 -83.99526289 64.49756616 -84.83203125 50.3046875 C-85.05242644 33.00366491 -80.49104944 18.85883589 -68.33203125 6.2265625 C-49.87208261 -10.68616501 -21.18896508 -13.91721845 0 0 Z M-55.62890625 26.75 C-60.71850129 34.85925908 -62.52775855 42.21710167 -61.62890625 51.75 C-59.30578412 60.79026383 -54.61657023 68.14621717 -46.69140625 73.125 C-39.14309993 77.27093541 -31.87674863 79.03632049 -23.37109375 77.28515625 C-14.05499495 74.54226305 -6.48782825 69.22196657 -1.62890625 60.75 C2.3821563 52.4847802 2.60914411 43.83808471 -0.12890625 35.125 C-3.78113886 26.18596913 -9.63471053 20.6135802 -18.33203125 16.625 C-32.00502514 11.41624042 -46.27153365 15.73911578 -55.62890625 26.75 Z " fill="#000000" transform="translate(127.62890625,215.25)"/>
<path d="M0 0 C12.83567881 9.56805936 19.98093033 22.67347802 22.4375 38.28515625 C23.88676999 54.67757492 19.21228145 69.51542739 8.625 82.16015625 C-1.0308747 92.24066788 -13.85855801 98.63567552 -27.91015625 99.48828125 C-45.18758299 99.70629294 -59.43733973 95.16301225 -72.0859375 82.98828125 C-83.74913733 70.258101 -87.46274559 55.33812671 -86.74169922 38.4921875 C-85.57786105 24.15826787 -77.95613413 11.85042556 -67.5625 2.28515625 C-47.46602881 -13.19419739 -21.00167297 -14.05447322 0 0 Z M-57.5625 25.28515625 C-63.08825775 34.089354 -65.22888894 42.87675239 -62.9140625 53.16796875 C-59.96843277 62.20626851 -54.79550556 68.62057183 -46.51953125 73.3203125 C-39.44306485 76.80910931 -31.55749518 77.58179217 -23.9140625 75.59765625 C-14.43728779 72.09853943 -6.88302592 66.4617768 -2.59375 57.19140625 C0.51298337 49.02184814 0.30639466 40.98963747 -2.45703125 32.73828125 C-6.3537654 24.09111148 -13.03488216 17.8618788 -21.8125 14.47265625 C-35.32873565 10.48651218 -48.47016889 14.58614816 -57.5625 25.28515625 Z " fill="#000000" transform="translate(410.5625,53.71484375)"/>
<path d="M0 0 C3.40563431 2.17380913 4.71751983 3.15255949 6 7 C6.68232567 13.93697761 6.68232567 13.93697761 4.1796875 17.8359375 C0.22140606 22.2912891 -5.11850805 24.9202645 -10.25 27.8125 C-12.2557494 28.96390171 -14.26098676 30.11619605 -16.265625 31.26953125 C-17.15024414 31.77073486 -18.03486328 32.27193848 -18.94628906 32.78833008 C-20.92198714 33.83875358 -20.92198714 33.83875358 -22 35 C-21.97671504 36.7400215 -21.9472107 38.48021709 -21.88378906 40.21923828 C-21.53262677 50.83828979 -23.37478743 59.36714726 -30 68 C-30.70125 68.99 -31.4025 69.98 -32.125 71 C-37.51090579 77.31393879 -46.92050556 82.14885697 -55.15014648 83.30102539 C-57.38034722 83.43652936 -59.57847832 83.46781302 -61.8125 83.4375 C-62.59931152 83.42992676 -63.38612305 83.42235352 -64.19677734 83.41455078 C-76.45739153 83.0695715 -85.29211077 78.07731744 -93.6875 69.375 C-100.21255285 61.61063505 -103.40343564 51.41502732 -103.2109375 41.328125 C-102.01920196 28.17489567 -96.5593007 18.41827179 -86.59765625 9.9140625 C-82.96740135 7.23913783 -79.27793097 5.39823425 -75 4 C-74.42121094 3.81050781 -73.84242187 3.62101562 -73.24609375 3.42578125 C-61.59374928 1.21690204 -49.54661722 2.55129906 -39.5625 9.125 C-38.2940625 10.053125 -38.2940625 10.053125 -37 11 C-35.20176418 12.37878504 -35.20176418 12.37878504 -33 13 C-30.45431874 12.08771525 -30.45431874 12.08771525 -27.90234375 10.38671875 C-26.93619141 9.79826172 -25.97003906 9.20980469 -24.97460938 8.60351562 C-23.97236328 7.97123047 -22.97011719 7.33894531 -21.9375 6.6875 C-19.9479277 5.4601085 -17.95709783 4.23475248 -15.96484375 3.01171875 C-14.64407837 2.18353638 -14.64407837 2.18353638 -13.29663086 1.33862305 C-8.78946106 -1.28844318 -4.96154808 -1.26698401 0 0 Z M-75.75 31.8125 C-79.35073126 36.91353595 -80.54239884 40.93352332 -79.5390625 47.046875 C-78.04697343 52.4529948 -74.43961818 55.84553445 -70 59 C-66.01033143 60.99483429 -61.33712721 60.50921736 -57 60 C-51.85790756 58.10465022 -48.03001388 54.89882322 -45.625 49.94921875 C-43.94328753 44.70437797 -44.37208966 39.79428746 -46.5 34.75 C-49.01490521 30.35331257 -52.25700697 27.75425769 -57 26 C-64.69117458 24.76561396 -70.23181519 26.1689019 -75.75 31.8125 Z " fill="#000000" transform="translate(166,429)"/>
<path d="M0 0 C8.79964509 6.30771019 15.25939212 14.62065992 17.375 25.375 C18.35857935 37.88741932 16.57935168 48.67196076 8.28515625 58.41015625 C0.52926437 66.3880982 -8.6801851 70.77775691 -19.8359375 71.40625 C-27.89344632 71.31596979 -34.41013909 69.39544172 -41.43359375 65.49609375 C-43.66197131 64.35608598 -45.13872881 63.65447745 -47.625 63.375 C-50.25261308 64.51584554 -50.25261308 64.51584554 -52.94921875 66.3046875 C-53.97853516 66.93503906 -55.00785156 67.56539063 -56.06835938 68.21484375 C-58.21358971 69.56061738 -60.35685669 70.9095263 -62.49804688 72.26171875 C-68.70378569 76.05390015 -73.27183849 78.47692501 -80.625 78.375 C-84.47176353 76.41664766 -86.23466175 74.96050738 -88.625 71.375 C-88.99609375 69.32421875 -88.99609375 69.32421875 -89.0625 67.0625 C-89.10246094 66.32386719 -89.14242188 65.58523438 -89.18359375 64.82421875 C-88.06038891 59.89939755 -85.02104322 57.31097913 -80.98022461 54.60180664 C-77.80970437 52.69423012 -74.60597499 50.86570259 -71.375 49.0625 C-69.18174407 47.81737033 -66.98900619 46.57132753 -64.796875 45.32421875 C-63.8284668 44.78112061 -62.86005859 44.23802246 -61.86230469 43.6784668 C-59.72649474 42.56150085 -59.72649474 42.56150085 -58.625 41.375 C-58.64828211 39.51666407 -58.677874 37.65815833 -58.74194336 35.80078125 C-59.09573664 24.26393755 -57.2157906 15.43265443 -49.59765625 6.375 C-36.32810155 -7.07848912 -16.14748078 -9.91995406 0 0 Z M-34.0625 24 C-36.17810843 28.5697142 -36.43885531 32.41934635 -35.625 37.375 C-33.50267161 41.40010556 -30.95759659 45.3904326 -26.64453125 47.2109375 C-21.68553832 48.42216055 -18.13251618 48.60790145 -13.41796875 46.5 C-9.48635005 44.03310199 -7.09663024 40.78989073 -5.625 36.375 C-5.12298761 30.25044882 -5.52571656 27.24982354 -9.625 22.375 C-13.32605076 19.03502736 -15.86008496 17.54470337 -20.875 17.0625 C-26.76829904 17.55360825 -30.07936927 19.7104746 -34.0625 24 Z " fill="#000000" transform="translate(398.625,278.625)"/>
<path d="M0 0 C3.09610007 1.30724225 4.66294032 2.61799902 6.875 5.125 C8.45862681 9.17204629 8.46388947 12.88984881 7 17 C2.66142688 22.55041337 -3.65713119 25.56037464 -9.6875 29 C-10.72583984 29.60328125 -11.76417969 30.2065625 -12.83398438 30.828125 C-30.42413171 40.97416609 -30.42413171 40.97416609 -35.8125 41.0625 C-39.29696798 39.90101067 -41.37341941 38.54932822 -44 36 C-45.20256511 33.59486979 -45.2703777 31.87146436 -45.375 29.1875 C-45.42398438 28.33542969 -45.47296875 27.48335938 -45.5234375 26.60546875 C-44.62214309 22.11917494 -41.59189686 20.06838342 -37.90722656 17.59545898 C-35.4416565 16.05998806 -32.94888908 14.58428274 -30.4375 13.125 C-29.54579102 12.60196289 -28.65408203 12.07892578 -27.73535156 11.54003906 C-25.96335359 10.50074972 -24.19010953 9.46358157 -22.41552734 8.42871094 C-20.35198719 7.20818972 -18.320632 5.95498325 -16.30078125 4.6640625 C-10.58893674 1.08044687 -6.79368512 -1.19187458 0 0 Z " fill="#000000" transform="translate(228,391)"/>
<path d="M0 0 C2.74873923 2.25537578 3.81700143 3.85295741 4.37890625 7.375 C4.64575795 13.1596563 3.96858164 15.62412859 0 20 C-2.72973633 21.88110352 -2.72973633 21.88110352 -5.83203125 23.62890625 C-6.96060547 24.27150391 -8.08917969 24.91410156 -9.25195312 25.57617188 C-10.43865872 26.23853818 -11.62550875 26.90064575 -12.8125 27.5625 C-13.98816544 28.22757036 -15.16330084 28.89357861 -16.33789062 29.56054688 C-18.57741942 30.82880593 -20.82036458 32.09105655 -23.06713867 33.34643555 C-25.41694685 34.67127121 -27.72950519 36.03711918 -30.0390625 37.4296875 C-34.18489233 39.62839936 -37.42968637 39.97876045 -42 39 C-45.56547856 37.04977999 -47.69198828 34.92403517 -49 31 C-49.37852372 25.88992975 -48.99193213 23.15228718 -46 19 C-43.83032227 17.35009766 -43.83032227 17.35009766 -41.31640625 15.9140625 C-40.39400146 15.3787793 -39.47159668 14.84349609 -38.52124023 14.29199219 C-37.05666382 13.46683105 -37.05666382 13.46683105 -35.5625 12.625 C-34.57000244 12.05426758 -33.57750488 11.48353516 -32.55493164 10.89550781 C-30.59154128 9.76677918 -28.62569774 8.64230525 -26.65722656 7.52246094 C-24.43905868 6.25155916 -22.24084602 4.95765038 -20.0546875 3.6328125 C-18.51167969 2.70082031 -18.51167969 2.70082031 -16.9375 1.75 C-16.08027344 1.22921875 -15.22304688 0.7084375 -14.33984375 0.171875 C-9.1148474 -2.44498461 -5.41232571 -2.16493028 0 0 Z " fill="#000000" transform="translate(295,355)"/>
</svg>
