<?xml version="1.0" encoding="UTF-8"?>
<svg version="1.1" xmlns="http://www.w3.org/2000/svg" width="512" height="512">
<path d="M0 0 C5.11822877 3.04353565 9.15488207 7.13028738 11.60546875 12.6015625 C12.81532475 17.42478306 12.69265825 22.01516266 12.60546875 26.96484375 C12.59644531 27.939375 12.58742188 28.91390625 12.578125 29.91796875 C12.55468498 32.30885103 12.52187317 34.69921636 12.48046875 37.08984375 C13.21620117 37.13810303 13.95193359 37.1863623 14.70996094 37.23608398 C55.06074269 40.19398513 93.92203227 57.1499127 125.48046875 82.08984375 C126.44984375 82.85425781 127.41921875 83.61867188 128.41796875 84.40625 C133.76059094 88.69631755 138.75185474 93.13485992 143.48046875 98.08984375 C144.26421875 98.87359375 145.04796875 99.65734375 145.85546875 100.46484375 C146.72171875 101.33109375 147.58796875 102.19734375 148.48046875 103.08984375 C149.39699219 103.93675781 149.39699219 103.93675781 150.33203125 104.80078125 C182.63023145 135.45470944 204.41900366 184.11398035 208.48046875 228.08984375 C208.50348681 229.75635146 208.51043992 231.42344659 208.48046875 233.08984375 C209.06948975 233.06889648 209.65851074 233.04794922 210.26538086 233.02636719 C212.98273036 232.94225685 215.69980484 232.89088908 218.41796875 232.83984375 C219.34416016 232.80632812 220.27035156 232.7728125 221.22460938 232.73828125 C228.46527812 232.63665783 234.93420552 233.73975287 240.36499023 238.87011719 C246.07047927 245.18822201 246.99188347 250.09451896 246.859375 258.6015625 C246.1692508 264.95497397 243.14094426 268.75508781 238.54296875 272.96484375 C232.10472927 277.43219359 226.17101041 277.3481121 218.60546875 277.21484375 C217.6309375 277.20582031 216.65640625 277.19679688 215.65234375 277.1875 C213.26146147 277.16405998 210.87109614 277.13124817 208.48046875 277.08984375 C208.43220947 277.82557617 208.3839502 278.56130859 208.33422852 279.31933594 C205.37632737 319.67011769 188.4203998 358.53140727 163.48046875 390.08984375 C162.71605469 391.05921875 161.95164062 392.02859375 161.1640625 393.02734375 C156.87399495 398.36996594 152.43545258 403.36122974 147.48046875 408.08984375 C146.69671875 408.87359375 145.91296875 409.65734375 145.10546875 410.46484375 C144.23921875 411.33109375 143.37296875 412.19734375 142.48046875 413.08984375 C141.91585938 413.70085937 141.35125 414.311875 140.76953125 414.94140625 C110.11560306 447.23960645 61.45633215 469.02837866 17.48046875 473.08984375 C15.81396104 473.11286181 14.14686591 473.11981492 12.48046875 473.08984375 C12.50141602 473.67886475 12.52236328 474.26788574 12.54394531 474.87475586 C12.62805565 477.59210536 12.67942342 480.30917984 12.73046875 483.02734375 C12.76398438 483.95353516 12.7975 484.87972656 12.83203125 485.83398438 C12.93365467 493.07465312 11.83055963 499.54358052 6.70019531 504.97436523 C0.38209049 510.67985427 -4.52420646 511.60125847 -13.03125 511.46875 C-19.38466147 510.7786258 -23.18477531 507.75031926 -27.39453125 503.15234375 C-31.86188109 496.71410427 -31.7777996 490.78038541 -31.64453125 483.21484375 C-31.63550781 482.2403125 -31.62648437 481.26578125 -31.6171875 480.26171875 C-31.59374748 477.87083647 -31.56093567 475.48047114 -31.51953125 473.08984375 C-32.25308838 473.04230957 -32.98664551 472.99477539 -33.74243164 472.94580078 C-81.32686336 469.47835515 -129.32004179 446.21229089 -162.51953125 412.08984375 C-163.30328125 411.30609375 -164.08703125 410.52234375 -164.89453125 409.71484375 C-165.76078125 408.84859375 -166.62703125 407.98234375 -167.51953125 407.08984375 C-168.13054687 406.52523438 -168.7415625 405.960625 -169.37109375 405.37890625 C-201.66929395 374.72497806 -223.45806616 326.06570715 -227.51953125 282.08984375 C-227.54254931 280.42333604 -227.54950242 278.75624091 -227.51953125 277.08984375 C-228.10855225 277.11079102 -228.69757324 277.13173828 -229.30444336 277.15332031 C-232.02179286 277.23743065 -234.73886734 277.28879842 -237.45703125 277.33984375 C-238.38322266 277.37335938 -239.30941406 277.406875 -240.26367188 277.44140625 C-247.50434062 277.54302967 -253.97326802 276.43993463 -259.40405273 271.30957031 C-265.10954177 264.99146549 -266.03094597 260.08516854 -265.8984375 251.578125 C-265.2083133 245.22471353 -262.18000676 241.42459969 -257.58203125 237.21484375 C-251.14379177 232.74749391 -245.21007291 232.8315754 -237.64453125 232.96484375 C-236.67 232.97386719 -235.69546875 232.98289063 -234.69140625 232.9921875 C-232.30052397 233.01562752 -229.91015864 233.04843933 -227.51953125 233.08984375 C-227.47127197 232.35411133 -227.4230127 231.61837891 -227.37329102 230.86035156 C-224.41538987 190.50956981 -207.4594623 151.64828023 -182.51953125 120.08984375 C-181.75511719 119.12046875 -180.99070312 118.15109375 -180.203125 117.15234375 C-175.91305745 111.80972156 -171.47451508 106.81845776 -166.51953125 102.08984375 C-165.73578125 101.30609375 -164.95203125 100.52234375 -164.14453125 99.71484375 C-163.27828125 98.84859375 -162.41203125 97.98234375 -161.51953125 97.08984375 C-160.95492187 96.47882813 -160.3903125 95.8678125 -159.80859375 95.23828125 C-129.15466556 62.94008105 -80.49539465 41.15130884 -36.51953125 37.08984375 C-34.85302354 37.06682569 -33.18592841 37.05987258 -31.51953125 37.08984375 C-31.54047852 36.50082275 -31.56142578 35.91180176 -31.58300781 35.30493164 C-31.66711815 32.58758214 -31.71848592 29.87050766 -31.76953125 27.15234375 C-31.80304688 26.22615234 -31.8365625 25.29996094 -31.87109375 24.34570312 C-31.97271717 17.10503438 -30.86962213 10.63610698 -25.73925781 5.20532227 C-18.47292329 -1.35645426 -9.52943935 -3.44241763 0 0 Z M-115.51953125 115.08984375 C-116.0491748 115.50669434 -116.57881836 115.92354492 -117.12451172 116.35302734 C-152.94360204 144.82795477 -176.05362585 183.8770626 -183.51953125 229.08984375 C-183.51953125 230.40984375 -183.51953125 231.72984375 -183.51953125 233.08984375 C-182.31296875 233.12722656 -181.10640625 233.16460937 -179.86328125 233.203125 C-178.24866947 233.26883594 -176.63408747 233.33528146 -175.01953125 233.40234375 C-173.83230469 233.43618164 -173.83230469 233.43618164 -172.62109375 233.47070312 C-165.80798555 233.77785145 -160.06083282 234.94385576 -154.70703125 239.46484375 C-149.95644202 245.16555082 -148.20970843 249.495672 -148.29296875 256.93359375 C-148.67735291 260.59187057 -150.03021176 263.75554638 -151.51953125 267.08984375 C-151.82890625 267.87359375 -152.13828125 268.65734375 -152.45703125 269.46484375 C-153.89899034 271.67019295 -155.05761268 272.11803379 -157.51953125 273.08984375 C-158.69257813 273.59 -159.865625 274.09015625 -161.07421875 274.60546875 C-165.71606788 276.34339477 -170.10026427 276.63713663 -175.01953125 276.77734375 C-175.84195313 276.81150391 -176.664375 276.84566406 -177.51171875 276.88085938 C-179.51387675 276.96234255 -181.51667693 277.0277895 -183.51953125 277.08984375 C-181.14993915 307.22994757 -168.16930938 337.45208604 -149.51953125 361.08984375 C-149.09591309 361.62770508 -148.67229492 362.16556641 -148.23583984 362.71972656 C-119.72213042 398.47177892 -80.7101751 421.62759384 -35.51953125 429.08984375 C-34.19953125 429.08984375 -32.87953125 429.08984375 -31.51953125 429.08984375 C-31.48214844 427.88328125 -31.44476563 426.67671875 -31.40625 425.43359375 C-31.34053906 423.81898197 -31.27409354 422.20439997 -31.20703125 420.58984375 C-31.18447266 419.79835938 -31.16191406 419.006875 -31.13867188 418.19140625 C-30.83152355 411.37829805 -29.66551924 405.63114532 -25.14453125 400.27734375 C-19.45519975 395.53623417 -15.10470533 393.75042742 -7.671875 393.875 C-1.20430971 394.52058274 3.31567941 397.09209654 7.48046875 402.08984375 C10.4822507 406.48531018 11.53370911 410.15465092 11.796875 415.41796875 C11.83876953 416.2171875 11.88066406 417.01640625 11.92382812 417.83984375 C11.96314453 418.66484375 12.00246094 419.48984375 12.04296875 420.33984375 C12.08615234 421.1803125 12.12933594 422.02078125 12.17382812 422.88671875 C12.27955418 424.95425046 12.3804817 427.02202656 12.48046875 429.08984375 C42.62057257 426.72025165 72.84271104 413.73962188 96.48046875 395.08984375 C97.01833008 394.66622559 97.55619141 394.24260742 98.11035156 393.80615234 C133.46646616 365.60821932 157.73057706 326.08912171 164.48046875 281.08984375 C164.48046875 279.76984375 164.48046875 278.44984375 164.48046875 277.08984375 C163.27390625 277.05246094 162.06734375 277.01507813 160.82421875 276.9765625 C159.20960697 276.91085156 157.59502497 276.84440604 155.98046875 276.77734375 C155.18898438 276.75478516 154.3975 276.73222656 153.58203125 276.70898438 C146.76892305 276.40183605 141.02177032 275.23583174 135.66796875 270.71484375 C130.92685917 265.02551225 129.14105242 260.67501783 129.265625 253.2421875 C129.91120774 246.77462221 132.48272154 242.25463309 137.48046875 238.08984375 C141.87593518 235.0880618 145.54527592 234.03660339 150.80859375 233.7734375 C151.6078125 233.73154297 152.40703125 233.68964844 153.23046875 233.64648438 C154.05546875 233.60716797 154.88046875 233.56785156 155.73046875 233.52734375 C156.5709375 233.48416016 157.41140625 233.44097656 158.27734375 233.39648438 C160.34487546 233.29075832 162.41265156 233.1898308 164.48046875 233.08984375 C162.11087665 202.94973993 149.13024688 172.72760146 130.48046875 149.08984375 C130.05685059 148.55198242 129.63323242 148.01412109 129.19677734 147.45996094 C101.00286467 112.10888728 62.18254483 88.71382071 17.48046875 81.08984375 C14.64658451 80.9569317 14.64658451 80.9569317 12.48046875 81.08984375 C12.44308594 82.29640625 12.40570313 83.50296875 12.3671875 84.74609375 C12.30147656 86.36070553 12.23503104 87.97528753 12.16796875 89.58984375 C12.13413086 90.77707031 12.13413086 90.77707031 12.09960938 91.98828125 C11.84626295 97.6079655 10.68792214 101.91256905 8.48046875 107.08984375 C8.17109375 107.87359375 7.86171875 108.65734375 7.54296875 109.46484375 C6.10100966 111.67019295 4.94238732 112.11803379 2.48046875 113.08984375 C1.61035156 113.47849609 1.61035156 113.47849609 0.72265625 113.875 C-5.66395459 116.56739476 -11.07485727 117.0798868 -17.70703125 114.90234375 C-23.33183961 112.55315908 -26.77133284 108.44883064 -29.51953125 103.08984375 C-30.34909462 100.29392139 -30.69054079 97.66965304 -30.8359375 94.76171875 C-30.8987793 93.56289062 -30.8987793 93.56289062 -30.96289062 92.33984375 C-31.00220703 91.51484375 -31.04152344 90.68984375 -31.08203125 89.83984375 C-31.12521484 88.999375 -31.16839844 88.15890625 -31.21289062 87.29296875 C-31.31861668 85.22543704 -31.4195442 83.15766094 -31.51953125 81.08984375 C-60.67137078 81.08984375 -93.14869723 97.32132483 -115.51953125 115.08984375 Z " fill="#000000" transform="translate(265.51953125,0.91015625)"/>
<path d="M0 0 C1.65371451 -0.0071192 3.30742661 -0.01482069 4.96113586 -0.02307129 C8.41646191 -0.03645935 11.87155972 -0.0381116 15.3269043 -0.03222656 C19.71318701 -0.02634914 24.09835572 -0.05686676 28.48442364 -0.09734344 C31.89839884 -0.12344365 35.31211413 -0.12607764 38.72617531 -0.12245178 C40.34100952 -0.12412363 41.95585836 -0.13357512 43.57059288 -0.15159607 C61.69219955 -0.33155064 76.53835095 4.44658817 90.11328125 17.03125 C102.59961751 30.19252336 107.16353585 45.65947739 107.42578125 63.46875 C107.44447266 64.34088135 107.46316406 65.2130127 107.48242188 66.11157227 C107.42401571 71.96510588 106.34459932 76.63101779 102.92578125 81.46875 C97.98154621 85.40395748 94.30012652 86.59091097 88.0761261 86.61592102 C86.85509689 86.62307632 85.63406769 86.63023163 84.3760376 86.63760376 C83.02063014 86.640444 81.6652224 86.64315573 80.30981445 86.64575195 C78.88394505 86.65201776 77.45807729 86.65866466 76.0322113 86.66566467 C71.34700658 86.68669651 66.66180157 86.69706738 61.9765625 86.70703125 C60.36240306 86.71107937 58.74824379 86.71519631 57.1340847 86.71938133 C49.54898719 86.7384324 41.9638994 86.75266266 34.37878257 86.7609933 C25.63032999 86.77076076 16.88213076 86.79706766 8.13376743 86.83749419 C1.36760602 86.86768499 -5.3984829 86.88246505 -12.16471034 86.88577431 C-16.20374437 86.88812176 -20.24250773 86.89704189 -24.28146935 86.92223549 C-28.08432001 86.94557283 -31.88672289 86.94972699 -35.68962669 86.93947411 C-37.08114616 86.93897997 -38.47268809 86.94526418 -39.86413956 86.95903015 C-47.67956674 87.03198903 -53.4627853 86.8522312 -60.07421875 82.46875 C-67.00000909 73.76711598 -65.77218477 63.07136738 -65.07421875 52.46875 C-63.190469 37.57334348 -56.6105471 26.02369377 -46.07421875 15.46875 C-45.50960937 14.89253906 -44.945 14.31632812 -44.36328125 13.72265625 C-31.9265226 2.04423654 -16.21994014 -0.00855745 0 0 Z " fill="#000000" transform="translate(235.07421875,255.53125)"/>
<path d="M0 0 C9.01643625 7.03880521 15.1108423 16.14007339 17.25 27.4375 C18.57745953 41.22372037 16.25002545 52.78115963 7.57421875 63.89453125 C-0.86877257 73.13215705 -11.15283274 78.33023854 -23.68408203 78.90625 C-36.67374665 79.10273748 -47.12290409 75.23645862 -56.75 66.4375 C-65.54895862 56.81040409 -69.41523748 46.36124665 -69.21875 33.37158203 C-68.64273854 20.84033274 -63.44465705 10.55627257 -54.20703125 2.11328125 C-38.00161747 -10.53769834 -17.12245062 -11.43845467 0 0 Z " fill="#000000" transform="translate(281.75,156.5625)"/>
</svg>
