<?xml version="1.0" encoding="UTF-8"?>
<svg version="1.1" xmlns="http://www.w3.org/2000/svg" width="512" height="512">
<path d="M0 0 C3.9906056 1.18633712 7.99738959 2.31517167 12.00457764 3.44400024 C12.83688904 3.67870529 13.66920044 3.91341034 14.5267334 4.15522766 C95.87596743 26.91531281 181.72231771 33.2026207 382.58270264 1.82681274 C383.56027779 1.54296722 383.56027779 1.54296722 384.55760193 1.25338745 C387.51434156 0.38881474 390.46103022 -0.49936866 393.39984131 -1.42318726 C402.73017421 -4.27282365 410.69594055 -5.13753444 419.76629639 -1.08724976 C426.02877992 2.48530796 429.98396458 7.32326682 432.09442139 14.24087524 C433.83443287 22.28842836 433.14083742 29.42230584 428.68426514 36.47134399 C420.03955524 47.3640872 405.54176381 49.6599227 392.78192139 53.05337524 C391.81046173 53.31444061 390.83900208 53.57550598 389.83810425 53.84448242 C310.50394658 75.12597536 228.8483482 84.01999267 -18.53057861 48.99087524 C-19.59727783 48.67384644 -20.66397705 48.35681763 -21.76300049 48.03018188 C-30.32199709 45.371896 -36.89785993 41.94392487 -41.90557861 34.24087524 C-45.32930063 26.86002524 -45.67856502 19.81167912 -43.21807861 12.08071899 C-40.2925009 5.30225993 -34.78216103 0.22814981 -28.03057861 -2.69662476 C-18.28892408 -5.55153102 -9.39764692 -2.80746824 0 0 Z M-30.84307861 14.42837524 C-32.84765174 19.73459822 -32.69900129 24.3294479 -30.53057861 29.55337524 C-23.58400864 36.66533974 -11.2341944 38.33662529 -1.84307861 40.92837524 C-1.06980225 41.1426416 -0.29652588 41.35690796 0.50018311 41.57766724 C59.35615673 57.79864147 120.06134057 66.80887687 181.09442139 68.24087524 C182.08716064 68.2642395 183.0798999 68.28760376 184.10272217 68.31167603 C250.16672725 69.60662193 316.67211322 60.44612045 380.46942139 43.55337524 C381.15040894 43.37309784 381.83139648 43.19282043 382.53302002 43.00708008 C389.97982381 41.02219755 397.38554804 38.90218086 404.75848389 36.65884399 C405.4194809 36.46220657 406.08047791 36.26556915 406.76150513 36.06297302 C411.55383205 34.57769221 415.60870154 32.98275368 418.90692139 29.11587524 C420.57947325 25.06653914 420.76472029 21.55973295 420.09442139 17.24087524 C418.20722754 13.16453653 416.700504 11.60219373 412.84442139 9.30337524 C406.2522282 7.43558717 400.13825851 9.35793707 393.70379639 11.24478149 C392.27677877 11.6564246 390.84960697 12.06753344 389.42230225 12.47817993 C388.67785858 12.69421875 387.93341492 12.91025757 387.16641235 13.13284302 C337.96066195 27.34221844 287.2186074 36.08219237 236.09442139 39.24087524 C235.16565186 39.29872192 234.23688232 39.3565686 233.27996826 39.41616821 C153.11233669 44.13603052 72.98796996 33.81287133 -4.07427979 11.7460022 C-4.89507019 11.51306961 -5.7158606 11.28013702 -6.56152344 11.04014587 C-8.09588108 10.60387499 -9.62868529 10.16208695 -11.1595459 9.71369934 C-19.26691504 7.41155468 -25.04886837 7.88652497 -30.84307861 14.42837524 Z " fill="#000000" transform="translate(61.90557861328125,125.75912475585938)"/>
<path d="M0 0 C1.5332034 -0.00697942 3.06640652 -0.01402037 4.59960938 -0.02111816 C9.47005576 -0.0403878 14.34045714 -0.04529359 19.2109375 -0.046875 C20.4542345 -0.04775871 20.4542345 -0.04775871 21.72264862 -0.04866028 C46.47704444 -0.06108564 70.97319641 0.31494236 95.5859375 3.203125 C96.93619904 3.3506085 98.28662557 3.4965888 99.63720703 3.64111328 C141.2279784 8.11371778 182.21390057 16.40058064 222.5234375 27.515625 C223.27833466 27.72231812 224.03323181 27.92901123 224.81100464 28.14196777 C249.42272796 34.92127324 249.42272796 34.92127324 255.87109375 44.015625 C259.6854651 50.79672962 260.45051008 57.89846313 258.4609375 65.390625 C255.94906004 72.6307424 252.38341137 77.45757818 245.5859375 81.203125 C235.11929365 86.18724112 223.46920881 82.46720554 213.01422119 79.32974243 C209.02833469 78.13720854 205.02504151 77.00563306 201.0234375 75.8671875 C199.81580246 75.52186729 199.81580246 75.52186729 198.58377075 75.16957092 C164.07091747 65.346965 128.23935456 59.02930216 92.5859375 55.203125 C91.28736816 55.05359375 89.98879883 54.9040625 88.65087891 54.75 C42.84615943 49.5411588 -5.65922457 49.77704535 -51.4140625 55.203125 C-52.92608752 55.37663269 -54.43813226 55.54996856 -55.95019531 55.72314453 C-98.12687887 60.624927 -140.32729553 68.85554592 -180.84954834 81.65493774 C-188.80001819 84.09867933 -196.95884769 84.64706771 -204.67578125 81.1640625 C-211.54343459 77.367562 -214.7391175 72.5032737 -217.4140625 65.203125 C-219.1938756 58.16030628 -218.53533557 51.76745188 -215.4140625 45.203125 C-208.51192901 34.64049328 -197.79689509 32.17845792 -186.2265625 29.015625 C-185.53754852 28.8250351 -184.84853455 28.63444519 -184.13864136 28.43807983 C-124.35517467 11.91626163 -62.21646848 0.17678605 0 0 Z M-52.4140625 15.203125 C-53.96923458 15.37649802 -55.52441045 15.54983713 -57.07958984 15.72314453 C-99.27761646 20.49818438 -140.93128773 28.90765011 -181.82766724 40.32720947 C-183.7859594 40.87236229 -185.74827686 41.40299106 -187.71069336 41.93310547 C-194.67700503 43.94387202 -199.38487918 45.91343722 -204.4140625 51.203125 C-206.15110405 54.6772081 -205.87447866 58.40469169 -205.4140625 62.203125 C-203.22019662 66.59085675 -200.96885668 69.29646697 -196.4140625 71.203125 C-191.24648066 71.51271454 -186.82420543 70.73376091 -181.91015625 69.26171875 C-181.20289398 69.05871658 -180.49563171 68.85571442 -179.76693726 68.64656067 C-178.24966975 68.21103933 -176.73343575 67.77190391 -175.21817017 67.32946777 C-171.1684019 66.15071151 -167.10793822 65.0102247 -163.046875 63.87109375 C-162.22735855 63.64108673 -161.4078421 63.41107971 -160.56349182 63.17410278 C-126.22392311 53.59433519 -91.00703719 47.63824638 -55.63543701 43.46740723 C-53.54514784 43.21872054 -51.45640998 42.95961492 -49.36767578 42.69824219 C-3.39603677 37.16445985 46.57979486 37.19735959 92.52471924 42.94665527 C94.71974788 43.21977453 96.91605887 43.4802301 99.11279297 43.73925781 C140.66744032 48.6858406 181.90492821 56.53654046 221.94848633 68.81591797 C231.47970131 71.87737469 231.47970131 71.87737469 240.8359375 69.515625 C244.25951956 66.63670372 246.13915165 64.59952183 246.97265625 60.12890625 C247.31711299 55.6203502 246.87981485 53.24529807 244.08984375 49.6171875 C240.51106355 45.71716081 236.9787613 44.35965466 231.9609375 42.953125 C230.58143921 42.54223633 230.58143921 42.54223633 229.17407227 42.12304688 C225.65633852 41.10454568 222.12434769 40.14647853 218.5859375 39.203125 C217.82919739 39.00033936 217.07245728 38.79755371 216.29278564 38.58862305 C158.80493707 23.23097244 99.21057209 12.20482553 39.51953125 12 C38.12416047 11.99297252 36.72879 11.98588576 35.3334198 11.97874451 C30.89675427 11.959352 26.46014114 11.95430947 22.0234375 11.953125 C21.26580864 11.95268314 20.50817978 11.95224129 19.72759247 11.95178604 C-4.43847377 11.94440215 -28.38353641 12.44334277 -52.4140625 15.203125 Z " fill="#000000" transform="translate(235.4140625,307.796875)"/>
<path d="M0 0 C1.82436972 -0.00461073 3.64873573 -0.0109648 5.47309399 -0.01890898 C10.47917123 -0.03560178 15.48494332 -0.02735607 20.49102163 -0.0149641 C25.89260516 -0.00591579 31.29413613 -0.01988227 36.69570923 -0.03088379 C47.27456461 -0.04867588 57.8533065 -0.04482592 68.43216634 -0.03323323 C77.02936183 -0.02420191 85.6265255 -0.0229736 94.22372437 -0.02732849 C95.44704033 -0.02794142 96.6703563 -0.02855436 97.93074244 -0.02918586 C100.41583833 -0.03046475 102.90093421 -0.03176161 105.38603008 -0.03307623 C128.69209335 -0.04448405 151.9980937 -0.03136512 175.30414665 -0.00987476 C195.30445007 0.00799639 215.30462829 0.00489235 235.30493164 -0.0135498 C258.52725536 -0.03495291 281.74952392 -0.0433854 304.97185612 -0.03110075 C307.447841 -0.02982655 309.92382589 -0.02856906 312.39981079 -0.02732849 C314.2271875 -0.02640284 314.2271875 -0.02640284 316.09148091 -0.02545848 C324.67895117 -0.02200391 333.26638647 -0.02783625 341.85385132 -0.0372467 C352.31824876 -0.04846182 362.78252618 -0.0454368 373.24690986 -0.02412373 C378.58662634 -0.01360685 383.92614266 -0.00950249 389.2658577 -0.02272034 C394.15368108 -0.03463665 399.04111867 -0.02809404 403.92890704 -0.00681013 C405.69730073 -0.00234087 407.46572699 -0.00461759 409.23409975 -0.01431328 C427.04827909 -0.10449523 427.04827909 -0.10449523 434.55395508 6.47277832 C440.10173231 13.17523646 442.37585764 18.70196002 442.31176758 27.50793457 C441.25706598 35.02693629 438.05850447 40.57075784 432.31176758 45.50793457 C426.00331242 49.5684141 420.53990562 50.63196711 413.07236385 50.64215565 C412.33828986 50.64450788 411.60421586 50.64686011 410.8478972 50.64928362 C408.37473388 50.65596936 405.90162314 50.65551552 403.42845154 50.65510559 C401.64267476 50.65840448 399.85689874 50.6621301 398.07112366 50.66624707 C393.15311365 50.67627236 388.23511585 50.67998472 383.31709707 50.68263638 C378.01697036 50.68653787 372.71685333 50.69611633 367.41673279 50.70484924 C354.61141449 50.72461824 341.8060954 50.73468051 329.00076565 50.74357703 C322.97170704 50.7479593 316.9426493 50.75332628 310.91359138 50.7585659 C290.87354814 50.77557877 270.83350544 50.79007312 250.79345608 50.79731464 C245.59212175 50.79922456 240.39078743 50.80114489 235.18945312 50.80310059 C233.89667373 50.80358433 232.60389434 50.80406807 231.27193982 50.80456647 C210.32805228 50.81286741 189.38422183 50.83820518 168.44035923 50.87068126 C146.94169241 50.90374607 125.44305461 50.92176289 103.94436222 50.92495888 C91.87206136 50.92712453 79.79984377 50.93588128 67.72756767 50.96142006 C57.4465309 50.98311913 47.16559762 50.99118135 36.88454055 50.98145328 C31.63965396 50.97690629 26.39498094 50.97881817 21.1501236 50.99821472 C16.34527098 51.01583045 11.54078798 51.01486144 6.73593152 50.99931743 C5.00100368 50.99693896 3.26605035 51.00127732 1.53116148 51.01314608 C-9.48568403 51.08382467 -20.0654241 50.97766821 -28.68823242 43.19543457 C-33.99647196 37.2014416 -35.85344522 30.40274618 -35.68823242 22.50793457 C-34.63765599 15.12037054 -31.51500747 9.23123187 -25.68823242 4.50793457 C-17.80052461 -0.90258298 -9.18048134 -0.05033501 0 0 Z M-21.00073242 17.63293457 C-23.35369853 21.64169164 -23.36555278 24.96493217 -22.68823242 29.50793457 C-20.94233266 33.73484977 -18.7637239 35.51988995 -14.68823242 37.50793457 C-10.98853746 38.73892029 -7.40769714 38.63563075 -3.53135967 38.63936234 C-2.80621753 38.64141497 -2.08107539 38.6434676 -1.33395925 38.64558244 C1.10878307 38.65126073 3.55146915 38.64979417 5.99421692 38.64837646 C7.75809551 38.65095962 9.52197351 38.65397264 11.2858507 38.65737987 C16.14317553 38.66545885 21.00048559 38.66723994 25.85781634 38.66797733 C31.09242502 38.6698263 36.32702601 38.67737281 41.56163025 38.68411255 C53.0119104 38.69770232 64.46218705 38.70372147 75.91247392 38.70812321 C83.05918531 38.71088429 90.20589534 38.71512137 97.35260582 38.71962738 C117.13187608 38.73182041 136.91114526 38.74211997 156.6904192 38.74550247 C157.95665539 38.74572204 159.22289159 38.7459416 160.52749858 38.74616782 C161.79679571 38.7463861 163.06609283 38.74660438 164.3738535 38.74682927 C166.94601301 38.74727274 169.51817252 38.7477193 172.09033203 38.74816895 C174.00415945 38.74850109 174.00415945 38.74850109 175.95665004 38.74883994 C196.63810119 38.75278934 217.31951712 38.77024752 238.00095467 38.79352847 C259.2238794 38.81722657 280.44678646 38.8297036 301.66972464 38.83087039 C313.58985701 38.83178797 325.5099435 38.83756116 337.43006325 38.85569 C347.5787195 38.87107012 357.72731569 38.87622378 367.87598137 38.8679519 C373.05552816 38.86403812 378.23495393 38.8650105 383.41448593 38.87900925 C388.15493029 38.89170433 392.89516213 38.8905894 397.63560601 38.87841853 C399.35161781 38.87645391 401.06764443 38.87957511 402.78363536 38.8882629 C405.11513927 38.89932072 407.44588858 38.8918919 409.77737141 38.87987137 C411.07270748 38.88046846 412.36804356 38.88106555 413.70263225 38.88168073 C419.71346904 38.25922495 424.34882375 36.23298298 428.31176758 31.50793457 C430.07139331 27.9886831 429.98668624 24.33872291 429.31176758 20.50793457 C427.01749579 16.58008318 424.65201172 13.95468262 420.31176758 12.50793457 C417.93560943 12.41163291 415.55675956 12.37876182 413.17865181 12.37650681 C412.44393408 12.37445417 411.70921635 12.37240154 410.95223445 12.3702867 C408.47091681 12.36459688 405.98965434 12.36607638 403.5083313 12.36749268 C401.71914159 12.36491018 399.92995245 12.36189735 398.14076412 12.35848927 C393.20890932 12.35040255 388.27706905 12.34862878 383.34520841 12.34789181 C378.03222845 12.34604418 372.7192561 12.33849838 367.40628052 12.33175659 C355.78252724 12.31816142 344.1587774 12.31214686 332.53501749 12.30774593 C325.28162341 12.30498582 318.02823067 12.30074892 310.77483749 12.29624176 C290.70479732 12.28404813 270.63475823 12.27374862 250.56471443 12.27036667 C249.27963432 12.2701471 247.99455421 12.26992754 246.67053228 12.26970132 C245.38232645 12.26948304 244.09412062 12.26926476 242.76687825 12.26903987 C240.15635308 12.2685964 237.5458279 12.26814983 234.93530273 12.2677002 C232.9929246 12.26736805 232.9929246 12.26736805 231.01130651 12.2670292 C210.01804764 12.26307922 189.02482343 12.24561953 168.03157796 12.22234067 C146.49455111 12.19865093 124.95754168 12.18616592 103.42050159 12.18499875 C91.32156606 12.18408071 79.22267571 12.17829596 67.12375259 12.16017914 C56.82350027 12.14481029 46.52330709 12.13963866 36.22304548 12.14791724 C30.96476874 12.15183502 25.70661122 12.15083933 20.448349 12.13685989 C15.63827108 12.12418853 10.82840279 12.12525857 6.01832543 12.13745061 C4.2747287 12.13941939 2.53111746 12.13627516 0.78754117 12.12760624 C-1.57637466 12.11659366 -3.93954015 12.12394433 -6.30343437 12.13599777 C-7.61829854 12.13540068 -8.93316271 12.1348036 -10.28787124 12.13418841 C-15.04143297 12.6566698 -17.54450225 14.45693928 -21.00073242 17.63293457 Z " fill="#000000" transform="translate(52.688232421875,231.4920654296875)"/>
<path d="M0 0 C4.03490466 1.24034083 5.3392035 2.96231492 7.92578125 6.26953125 C8.57015137 7.08139893 8.57015137 7.08139893 9.22753906 7.90966797 C10.54230995 9.57804354 11.83135681 11.26332803 13.11328125 12.95703125 C13.82355469 13.89160156 14.53382813 14.82617188 15.265625 15.7890625 C16.70723149 17.70851993 18.14175303 19.63331261 19.5703125 21.5625 C22.66631427 25.7227917 25.8613468 29.80572068 29.05078125 33.89453125 C30.25262857 35.43617889 31.45445176 36.97784535 32.65625 38.51953125 C33.23810059 39.26589844 33.81995117 40.01226562 34.41943359 40.78125 C36.90907867 43.97924898 39.38925132 47.18444158 41.86328125 50.39453125 C42.641875 51.40386719 43.42046875 52.41320312 44.22265625 53.453125 C48.12040227 58.61522251 48.12040227 58.61522251 48.05078125 61.95703125 C47.11328125 64.95703125 47.11328125 64.95703125 45.16796875 66.6328125 C40.83927031 68.50931988 36.96059015 68.28005142 32.30078125 68.14453125 C30.97530273 68.12422852 30.97530273 68.12422852 29.62304688 68.10351562 C27.45286102 68.06832342 25.28299092 68.0145211 23.11328125 67.95703125 C23.1289917 69.00157471 23.14470215 70.04611816 23.16088867 71.12231445 C23.21517822 74.99674777 23.24962755 78.87114744 23.27807617 82.74584961 C23.29316509 84.42299045 23.31363873 86.10009182 23.33959961 87.77709961 C23.37597936 90.18743629 23.39300611 92.59725144 23.40625 95.0078125 C23.42173386 95.75791092 23.43721771 96.50800934 23.45317078 97.28083801 C23.45485823 102.49749423 23.45485823 102.49749423 21.85127258 104.65486145 C19.71794059 106.25323564 18.61054524 106.33656948 15.96484375 106.34521484 C14.71840088 106.35939957 14.71840088 106.35939957 13.44677734 106.37387085 C12.10607178 106.36476181 12.10607178 106.36476181 10.73828125 106.35546875 C9.81740723 106.35833893 8.8965332 106.36120911 7.94775391 106.36416626 C6.00097031 106.36620756 4.05416623 106.36067308 2.10742188 106.34814453 C-0.87546574 106.33209181 -3.85699836 106.34799097 -6.83984375 106.3671875 C-8.73047175 106.36520508 -10.6210989 106.36136143 -12.51171875 106.35546875 C-13.40552246 106.36154144 -14.29932617 106.36761414 -15.22021484 106.37387085 C-16.05117676 106.36441437 -16.88213867 106.35495789 -17.73828125 106.34521484 C-18.46869629 106.34282806 -19.19911133 106.34044128 -19.95166016 106.33798218 C-22.47760936 105.84070385 -23.36242817 105.00771968 -24.88671875 102.95703125 C-25.14828136 100.22796763 -25.23593006 97.73242135 -25.1796875 95.0078125 C-25.17544266 94.23519577 -25.17119781 93.46257904 -25.16682434 92.66654968 C-25.15004058 90.20052133 -25.11239022 87.73531229 -25.07421875 85.26953125 C-25.05917146 83.59701702 -25.04548313 81.92448997 -25.03320312 80.25195312 C-25.00013821 76.15333047 -24.94835903 72.05531974 -24.88671875 67.95703125 C-26.20027344 67.99183594 -27.51382813 68.02664063 -28.8671875 68.0625 C-30.60285176 68.09064591 -32.3385299 68.11794521 -34.07421875 68.14453125 C-34.93853516 68.16966797 -35.80285156 68.19480469 -36.69335938 68.22070312 C-45.36821136 68.32041407 -45.36821136 68.32041407 -48.88671875 64.95703125 C-49.96875 62.1484375 -49.96875 62.1484375 -49.88671875 58.95703125 C-48.53031119 56.63742191 -47.29838044 54.89994137 -45.57421875 52.89453125 C-44.63496374 51.74125414 -43.69617372 50.58759821 -42.7578125 49.43359375 C-42.27554199 48.85254883 -41.79327148 48.27150391 -41.29638672 47.67285156 C-39.17470673 45.09038413 -37.16017215 42.42931192 -35.13671875 39.76953125 C-30.48186544 33.705419 -25.78573572 27.67334724 -21.08374023 21.64575195 C-18.3267308 18.10859246 -15.58030945 14.5651909 -12.875 10.98828125 C-12.41931641 10.38757813 -11.96363281 9.786875 -11.49414062 9.16796875 C-10.28409422 7.56917441 -9.07934451 5.96637512 -7.875 4.36328125 C-5.38377784 1.34836406 -4.00009329 -0.05954131 0 0 Z M-1.88671875 16.95703125 C-3.33143748 18.45207436 -3.33143748 18.45207436 -4.79296875 20.4375 C-5.36740723 21.18362549 -5.9418457 21.92975098 -6.53369141 22.69848633 C-7.14519043 23.50568115 -7.75668945 24.31287598 -8.38671875 25.14453125 C-9.32523682 26.36789185 -9.32523682 26.36789185 -10.28271484 27.6159668 C-11.55406658 29.27418804 -12.82279183 30.93442635 -14.08886719 32.59667969 C-16.13319419 35.2806223 -18.18915356 37.95540053 -20.24804688 40.62817383 C-21.43472051 42.16951981 -22.61787429 43.71357389 -23.80078125 45.2578125 C-25.22006002 47.09436986 -26.67500633 48.90378901 -28.16015625 50.6875 C-30.0885405 52.74705027 -30.0885405 52.74705027 -29.88671875 54.95703125 C-28.63955078 55.04791016 -28.63955078 55.04791016 -27.3671875 55.140625 C-26.28050781 55.22441406 -25.19382813 55.30820312 -24.07421875 55.39453125 C-22.99527344 55.47574219 -21.91632813 55.55695313 -20.8046875 55.640625 C-17.88671875 55.95703125 -17.88671875 55.95703125 -14.88671875 56.95703125 C-13.33176177 60.06694521 -13.64594919 63.39047174 -13.5703125 66.80859375 C-13.5495314 67.58262543 -13.52875031 68.3566571 -13.50733948 69.15414429 C-13.44188427 71.63001517 -13.38297788 74.10599327 -13.32421875 76.58203125 C-13.28102968 78.25912573 -13.23741527 79.93620932 -13.19335938 81.61328125 C-13.08540533 85.72775623 -12.98630261 89.84231102 -12.88671875 93.95703125 C-4.96671875 93.95703125 2.95328125 93.95703125 11.11328125 93.95703125 C11.20416016 90.20199219 11.20416016 90.20199219 11.296875 86.37109375 C11.35864887 83.95179169 11.42204298 81.53253716 11.4855957 79.11328125 C11.52895942 77.42940483 11.57063345 75.74548402 11.6105957 74.06152344 C11.66826359 71.64374401 11.73196775 69.2261883 11.796875 66.80859375 C11.81358749 66.05333405 11.83029999 65.29807434 11.84751892 64.51992798 C11.99940954 59.18477466 11.99940954 59.18477466 13.11328125 56.95703125 C16.27573666 55.90287945 18.98276343 55.64427453 22.30078125 55.39453125 C23.38746094 55.31074219 24.47414063 55.22695313 25.59375 55.140625 C26.42519531 55.08003906 27.25664062 55.01945312 28.11328125 54.95703125 C26.81854512 52.20811986 25.39006457 49.84621221 23.53125 47.4453125 C23.01731689 46.77749756 22.50338379 46.10968262 21.97387695 45.42163086 C21.42175537 44.71143799 20.86963379 44.00124512 20.30078125 43.26953125 C19.13117489 41.75676977 17.96191476 40.24374055 16.79296875 38.73046875 C16.18936523 37.95026367 15.58576172 37.17005859 14.96386719 36.36621094 C13.10268945 33.94324235 11.26503359 31.50409884 9.43359375 29.05859375 C8.84553955 28.27701904 8.25748535 27.49544434 7.65161133 26.69018555 C6.51396674 25.17692029 5.38087321 23.66022134 4.25268555 22.13989258 C3.73875244 21.45950928 3.22481934 20.77912598 2.6953125 20.078125 C2.24389893 19.47411865 1.79248535 18.8701123 1.32739258 18.24780273 C0.72640747 17.60887085 0.72640747 17.60887085 0.11328125 16.95703125 C-0.54671875 16.95703125 -1.20671875 16.95703125 -1.88671875 16.95703125 Z " fill="#000000" transform="translate(256.88671875,388.04296875)"/>
<path d="M0 0 C0.83096191 -0.00945648 1.66192383 -0.01891296 2.51806641 -0.02865601 C3.41187012 -0.02258331 4.30567383 -0.01651062 5.2265625 -0.01025391 C6.14743652 -0.01312408 7.06831055 -0.01599426 8.01708984 -0.01895142 C9.96387344 -0.02099272 11.91067752 -0.01545824 13.85742188 -0.00292969 C16.84030949 0.01312303 19.82184211 -0.00277613 22.8046875 -0.02197266 C24.6953155 -0.01999024 26.58594265 -0.01614659 28.4765625 -0.01025391 C29.37036621 -0.0163266 30.26416992 -0.02239929 31.18505859 -0.02865601 C32.43150146 -0.01447128 32.43150146 -0.01447128 33.703125 0 C34.79874756 0.00358017 34.79874756 0.00358017 35.91650391 0.00723267 C38.44245311 0.50451099 39.32727192 1.33749516 40.8515625 3.38818359 C41.11312511 6.11724721 41.20077381 8.6127935 41.14453125 11.33740234 C41.14028641 12.11001907 41.13604156 12.8826358 41.13166809 13.67866516 C41.11488433 16.14469352 41.07723397 18.60990255 41.0390625 21.07568359 C41.02401521 22.74819783 41.01032688 24.42072488 40.99804688 26.09326172 C40.96498196 30.19188437 40.91320278 34.2898951 40.8515625 38.38818359 C42.16511719 38.35337891 43.47867188 38.31857422 44.83203125 38.28271484 C46.56769551 38.25456894 48.30337365 38.22726964 50.0390625 38.20068359 C50.90337891 38.17554688 51.76769531 38.15041016 52.65820312 38.12451172 C61.33305511 38.02480078 61.33305511 38.02480078 64.8515625 41.38818359 C65.93359375 44.19677734 65.93359375 44.19677734 65.8515625 47.38818359 C64.49515494 49.70779293 63.26322419 51.44527347 61.5390625 53.45068359 C60.59980749 54.6039607 59.66101747 55.75761664 58.72265625 56.91162109 C58.24038574 57.49266602 57.75811523 58.07371094 57.26123047 58.67236328 C55.13955048 61.25483071 53.1250159 63.91590292 51.1015625 66.57568359 C46.44670919 72.63979584 41.75057947 78.6718676 37.04858398 84.69946289 C34.29157455 88.23662239 31.5451532 91.78002395 28.83984375 95.35693359 C28.38416016 95.95763672 27.92847656 96.55833984 27.45898438 97.17724609 C26.24893797 98.77604044 25.04418826 100.37883973 23.83984375 101.98193359 C21.8515625 104.38818359 21.8515625 104.38818359 18.8515625 106.38818359 C14.91077451 106.32952504 13.29416656 105.80264113 10.39453125 103.08740234 C9.22857422 101.59660156 9.22857422 101.59660156 8.0390625 100.07568359 C7.39469238 99.26381592 7.39469238 99.26381592 6.73730469 98.43554688 C5.4225338 96.7671713 4.13348694 95.08188682 2.8515625 93.38818359 C2.14128906 92.45361328 1.43101562 91.51904297 0.69921875 90.55615234 C-0.74238774 88.63669491 -2.17690928 86.71190223 -3.60546875 84.78271484 C-6.70147052 80.62242315 -9.89650305 76.53949416 -13.0859375 72.45068359 C-14.28778482 70.90903595 -15.48960801 69.36736949 -16.69140625 67.82568359 C-17.27325684 67.07931641 -17.85510742 66.33294922 -18.45458984 65.56396484 C-20.94423492 62.36596586 -23.42440757 59.16077326 -25.8984375 55.95068359 C-26.67703125 54.94134766 -27.455625 53.93201172 -28.2578125 52.89208984 C-32.15555852 47.72999233 -32.15555852 47.72999233 -32.0859375 44.38818359 C-31.1484375 41.38818359 -31.1484375 41.38818359 -29.203125 39.71240234 C-24.87442656 37.83589496 -20.9957464 38.06516342 -16.3359375 38.20068359 C-15.01045898 38.22098633 -15.01045898 38.22098633 -13.65820312 38.24169922 C-11.48801727 38.27689142 -9.31814717 38.33069374 -7.1484375 38.38818359 C-7.16414795 37.34364014 -7.1798584 36.29909668 -7.19604492 35.22290039 C-7.25033447 31.34846708 -7.2847838 27.4740674 -7.31323242 23.59936523 C-7.32832134 21.92222439 -7.34879498 20.24512302 -7.37475586 18.56811523 C-7.41113561 16.15777856 -7.42816236 13.74796341 -7.44140625 11.33740234 C-7.45689011 10.58730392 -7.47237396 9.83720551 -7.48832703 9.06437683 C-7.49001448 3.84772062 -7.49001448 3.84772062 -5.88642883 1.69035339 C-3.75309684 0.0919792 -2.64570149 0.00864537 0 0 Z M4.8515625 12.38818359 C4.76068359 16.14322266 4.76068359 16.14322266 4.66796875 19.97412109 C4.60619488 22.39342315 4.54280077 24.81267769 4.47924805 27.23193359 C4.43588433 28.91581002 4.3942103 30.59973082 4.35424805 32.28369141 C4.29658016 34.70147084 4.232876 37.11902654 4.16796875 39.53662109 C4.14290001 40.66951065 4.14290001 40.66951065 4.11732483 41.82528687 C3.96543421 47.16044018 3.96543421 47.16044018 2.8515625 49.38818359 C-0.31089291 50.4423354 -3.01791968 50.70094032 -6.3359375 50.95068359 C-7.42261719 51.03447266 -8.50929687 51.11826172 -9.62890625 51.20458984 C-10.46035156 51.26517578 -11.29179687 51.32576172 -12.1484375 51.38818359 C-10.85370137 54.13709498 -9.42522082 56.49900263 -7.56640625 58.89990234 C-7.05231201 59.56771729 -6.53821777 60.23553223 -6.00854492 60.92358398 C-5.45658447 61.63377686 -4.90462402 62.34396973 -4.3359375 63.07568359 C-3.16916956 64.58862633 -2.00250616 66.10164969 -0.8359375 67.61474609 C-0.23265625 68.39495117 0.370625 69.17515625 0.9921875 69.97900391 C4.06367412 73.95870847 7.11289193 77.95539646 10.1640625 81.95068359 C11.26421882 83.38956528 12.36446951 84.82837481 13.46484375 86.26708984 C14.25246094 87.29705078 15.04007813 88.32701172 15.8515625 89.38818359 C19.07068132 88.31514399 19.49361113 87.89204649 21.3828125 85.28271484 C22.09630859 84.31168823 22.09630859 84.31168823 22.82421875 83.32104492 C23.32824219 82.62132568 23.83226562 81.92160645 24.3515625 81.20068359 C25.42308546 79.74132592 26.496033 78.28301329 27.5703125 76.82568359 C28.38628906 75.71580078 28.38628906 75.71580078 29.21875 74.58349609 C31.70384136 71.2422967 34.26971849 67.96738918 36.8515625 64.70068359 C37.29564453 64.13776611 37.73972656 63.57484863 38.19726562 62.99487305 C40.15987106 60.51202735 42.13546667 58.04816998 44.1640625 55.61865234 C46.05267805 53.58850717 46.05267805 53.58850717 45.8515625 51.38818359 C44.60439453 51.29730469 44.60439453 51.29730469 43.33203125 51.20458984 C42.24535156 51.12080078 41.15867187 51.03701172 40.0390625 50.95068359 C38.96011719 50.86947266 37.88117188 50.78826172 36.76953125 50.70458984 C33.8515625 50.38818359 33.8515625 50.38818359 30.8515625 49.38818359 C29.29660552 46.27826963 29.61079294 42.9547431 29.53515625 39.53662109 C29.51437515 38.76258942 29.49359406 37.98855774 29.47218323 37.19107056 C29.40672802 34.71519967 29.34782163 32.23922157 29.2890625 29.76318359 C29.24587343 28.08608911 29.20225902 26.40900553 29.15820312 24.73193359 C29.05024908 20.61745862 28.95114636 16.50290382 28.8515625 12.38818359 C20.9315625 12.38818359 13.0115625 12.38818359 4.8515625 12.38818359 Z " fill="#000000" transform="translate(239.1484375,17.61181640625)"/>
</svg>
