<?xml version="1.0" encoding="UTF-8"?>
<svg version="1.1" xmlns="http://www.w3.org/2000/svg" width="512" height="512">
<path d="M0 0 C1.485 -0.01546875 1.485 -0.01546875 3 -0.03125 C8.85133695 1.00492425 12.9193613 5.17027677 16.99560547 9.26855469 C17.45489944 9.72755661 17.91419342 10.18655853 18.3874054 10.6594696 C19.8854638 12.15890742 21.37633588 13.66527451 22.8671875 15.171875 C23.9119247 16.22034728 24.957108 17.26837521 26.00271606 18.315979 C28.73940558 21.06026602 31.47003257 23.81050778 34.19940186 26.56207275 C36.99124722 29.37446061 39.78883805 32.1811206 42.5859375 34.98828125 C48.06290148 40.48662655 53.53346762 45.99128124 59 51.5 C60.90428886 49.45360285 62.80627375 47.40514184 64.70703125 45.35546875 C65.24009888 44.78308472 65.7731665 44.21070068 66.3223877 43.62097168 C70.36246769 39.25929328 74.1322895 34.74880713 77.85546875 30.11328125 C80.69878693 26.64847276 83.71532259 23.35862606 86.73828125 20.05078125 C89.14923855 17.33168778 91.41889672 14.52610411 93.6875 11.6875 C101.18313953 2.43895349 101.18313953 2.43895349 107 0.5 C108.59993443 0.35680449 110.20644312 0.27960474 111.8125 0.25 C113.05966797 0.21132813 113.05966797 0.21132813 114.33203125 0.171875 C120.6163546 0.94476396 124.24211323 4.417046 128.3125 9 C129.02188721 9.79349854 129.02188721 9.79349854 129.74560547 10.60302734 C133.56750351 14.91277263 137.20810509 19.36522661 140.8203125 23.8515625 C142.97757399 26.47275119 145.21311 28.99154281 147.5 31.5 C151.41891252 35.79991791 155.09170869 40.25919547 158.75 44.78125 C160.93501569 47.42147729 163.19171391 49.9672972 165.5 52.5 C169.41891252 56.79991791 173.09170869 61.25919547 176.75 65.78125 C178.93501569 68.42147729 181.19171391 70.9672972 183.5 73.5 C187.41891252 77.79991791 191.09170869 82.25919547 194.75 86.78125 C196.93501569 89.42147729 199.19171391 91.9672972 201.5 94.5 C206.20571298 99.67219235 210.61863557 105.05227174 215 110.5 C216.14275391 111.90958984 216.14275391 111.90958984 217.30859375 113.34765625 C223.321788 120.79715715 224.90755666 124.734179 224 134.5 C221.73212562 139.3846525 218.8846525 142.23212562 214 144.5 C208.4840457 145.24253231 203.87587358 145.54638946 198.92578125 142.78515625 C196.01738277 140.51357666 193.63599766 138.19459769 191.1875 135.4375 C190.32640625 134.468125 189.4653125 133.49875 188.578125 132.5 C185.38493482 128.78428779 182.29167001 124.99583016 179.21484375 121.18359375 C177.04367173 118.55291443 174.79758643 116.02057576 172.5 113.5 C168.58108748 109.20008209 164.90829131 104.74080453 161.25 100.21875 C159.06498431 97.57852271 156.80828609 95.0327028 154.5 92.5 C150.58108748 88.20008209 146.90829131 83.74080453 143.25 79.21875 C141.06498431 76.57852271 138.80828609 74.0327028 136.5 71.5 C132.59161718 67.21163551 128.92695115 62.76610327 125.28125 58.25390625 C122.22064752 54.55917209 119.00085811 51.02350056 115.75 47.49609375 C114 45.5 114 45.5 113 43.5 C112.34 43.5 111.68 43.5 111 43.5 C109.58561594 45.07286684 108.24395599 46.71139996 106.9375 48.375 C103.88974135 52.18835562 100.79499659 55.89808809 97.5 59.5 C94.38541332 62.91739372 91.4081338 66.4052235 88.5 70 C84.88967558 74.46276213 81.11572071 78.72719533 77.25 82.96875 C74.92137947 85.5884481 72.70437053 88.2751531 70.5 91 C66.88967558 95.46276213 63.11572071 99.72719533 59.25 103.96875 C56.92137947 106.5884481 54.70437053 109.2751531 52.5 112 C48.89427624 116.45707521 45.12833033 120.71821446 41.26171875 124.94921875 C38.85076145 127.66831222 36.58110328 130.47389589 34.3125 133.3125 C30.7044802 137.77206293 27.21118289 141.89440855 22 144.5 C16.46957948 145.00502343 11.58969476 145.23807257 6.5 142.875 C1.6856245 138.30134327 -0.25156236 135.1912538 -0.5 128.5 C-0.58265982 120.56465747 4.56203145 115.64928175 9.5 110 C10.56905663 108.7643629 11.63806567 107.52868462 12.70703125 106.29296875 C13.25182129 105.66567871 13.79661133 105.03838867 14.35791016 104.39208984 C16.97738549 101.37381244 19.58415834 98.34469646 22.1875 95.3125 C22.68088867 94.73806152 23.17427734 94.16362305 23.68261719 93.57177734 C28.20950953 88.28538977 32.62529026 82.91315094 37 77.5 C34.38509213 74.1496493 31.78839462 71.23224725 28.53125 68.5 C22.90878222 63.63890806 17.72912395 58.33682023 12.5 53.0625 C11.47679861 52.0342702 10.45336267 51.00627374 9.4296875 49.97851562 C6.95042001 47.48835662 4.47432462 44.99507167 2 42.5 C-1.76478859 43.75492953 -2.69380667 45.33097519 -5.125 48.4375 C-8.15073542 52.2319093 -11.22397726 55.91936462 -14.5 59.5 C-17.61458668 62.91739372 -20.5918662 66.4052235 -23.5 70 C-27.11032442 74.46276213 -30.88427929 78.72719533 -34.75 82.96875 C-37.07862053 85.5884481 -39.29562947 88.2751531 -41.5 91 C-45.11032442 95.46276213 -48.88427929 99.72719533 -52.75 103.96875 C-55.07862053 106.5884481 -57.29562947 109.2751531 -59.5 112 C-63.10572376 116.45707521 -66.87166967 120.71821446 -70.73828125 124.94921875 C-73.14923855 127.66831222 -75.41889672 130.47389589 -77.6875 133.3125 C-81.2955198 137.77206293 -84.78881711 141.89440855 -90 144.5 C-95.53042052 145.00502343 -100.41030524 145.23807257 -105.5 142.875 C-110.3143755 138.30134327 -112.25156236 135.1912538 -112.5 128.5 C-112.58265796 120.56483586 -107.43807718 115.64905688 -102.5 110 C-101.42699446 108.7604936 -100.35408035 107.52090804 -99.28125 106.28125 C-98.73597656 105.65347656 -98.19070312 105.02570313 -97.62890625 104.37890625 C-95.07280865 101.4305059 -92.53699151 98.46483725 -90 95.5 C-89.00010736 94.33324132 -88.0001071 93.16657486 -87 92 C-86.2575 91.13375 -86.2575 91.13375 -85.5 90.25 C-68 69.83333333 -50.5 49.41666667 -33 29 C-32.5045166 28.42169434 -32.0090332 27.84338867 -31.49853516 27.24755859 C-30.5043837 26.08820113 -29.50927532 24.92966351 -28.51318359 23.77197266 C-25.91500668 20.74970786 -23.33799378 17.71239785 -20.7890625 14.6484375 C-20.25925781 14.01679688 -19.72945313 13.38515625 -19.18359375 12.734375 C-18.1773046 11.5338897 -17.17685121 10.32847708 -16.18359375 9.1171875 C-11.64180272 3.72301552 -7.39739153 -0.07705616 0 0 Z " fill="#000000" transform="translate(144,271.5)"/>
<path d="M0 0 C4.55016535 3.14496722 9.1524051 3.65375491 14.62109375 3.515625 C19.98890362 2.35842373 23.84151811 -0.3846568 28.34863281 -3.41210938 C41.57082817 -12.26056661 56.66717893 -13.26408457 72.1328125 -10.61328125 C80.6848338 -8.25586249 87.50174285 -3.61445221 94.6953125 1.4140625 C99.59099171 3.89887854 104.93794343 3.31731316 110.28125 2.7265625 C112.9898935 1.81336269 114.99639156 0.41943489 117.28125 -1.2734375 C132.17918215 -11.08299141 147.40545631 -13.85700578 165.015625 -10.578125 C172.26260542 -8.34395228 178.91787629 -4.50630075 185 0 C190.54240368 3.83077901 196.79044204 3.86530074 203.28125 2.7265625 C206.33207131 1.27224289 208.913252 -0.42108864 211.65625 -2.390625 C214.18811315 -4.20663399 216.69489328 -5.6736385 219.46875 -7.0859375 C220.20480469 -7.46363281 220.94085938 -7.84132813 221.69921875 -8.23046875 C234.30718845 -13.32324925 250.7083539 -13.23744517 263.4140625 -8.6171875 C268.36246734 -6.29804409 272.79550078 -3.37176749 277.28125 -0.2734375 C282.58230427 3.11224334 286.57476478 4.05320727 292.90625 3.2890625 C298.14138391 1.81794929 302.48262993 -1.39737518 307.01953125 -4.30078125 C319.95252222 -12.12253028 334.43795328 -13.08246992 349.16796875 -10.625 C358.65510608 -7.94708669 367.40154025 -3.32693749 373.28125 4.7265625 C375.37430576 8.91267402 374.70489608 14.16789198 374.28125 18.7265625 C372.01337562 23.611215 369.1659025 26.45868812 364.28125 28.7265625 C358.21701147 29.64046887 352.99206825 29.64215211 347.71875 26.2890625 C346.81962891 25.61037109 346.81962891 25.61037109 345.90234375 24.91796875 C341.21212006 21.47093688 334.79788576 22.33567788 329.28125 22.7265625 C326.06562782 23.84218652 323.72356855 25.4213627 320.9375 27.34375 C310.45745978 34.36055854 301.14023369 37.05036482 288.59375 37.1640625 C287.7270166 37.17429443 286.8602832 37.18452637 285.96728516 37.19506836 C277.55230919 37.08087766 269.97994087 35.04624613 262.65625 30.8515625 C261.74101562 30.33464844 260.82578125 29.81773437 259.8828125 29.28515625 C257.55120992 27.88829524 255.29280162 26.42030827 253.03125 24.9140625 C248.24045607 21.89547283 244.27166425 21.48634009 238.65625 22.1640625 C233.42111609 23.63517571 229.07987007 26.85050018 224.54296875 29.75390625 C211.60997778 37.57565528 197.12454672 38.53559492 182.39453125 36.078125 C174.83310252 33.9437772 168.70572367 30.15944933 162.28125 25.7265625 C156.56242464 21.95457131 150.93769232 22.07107373 144.28125 22.7265625 C141.06562782 23.84218652 138.72356855 25.4213627 135.9375 27.34375 C121.76769657 36.83100344 106.33810317 39.20430223 89.6171875 36.03125 C82.91828658 33.97138124 77.1291649 30.52668838 71.28125 26.7265625 C65.3678651 22.93194102 60.28735519 20.92239867 53.21875 22.4140625 C49.36131569 23.35191651 46.53841677 25.51072042 43.28125 27.7265625 C41.17409728 28.96575653 39.04850872 30.17409826 36.90625 31.3515625 C35.84664063 31.94195312 34.78703125 32.53234375 33.6953125 33.140625 C21.12676361 38.97910423 4.04198177 38.75421152 -8.85546875 34.0703125 C-13.78803028 31.75544051 -18.24244794 28.81521092 -22.71875 25.7265625 C-28.42085121 21.96560213 -34.0776196 22.04143901 -40.71875 22.7265625 C-43.91300386 23.9461867 -46.21582246 25.3798343 -49.0078125 27.3046875 C-53.71154636 29.77177558 -58.54313349 29.35156911 -63.71875 28.7265625 C-68.6034025 26.45868812 -71.45087562 23.611215 -73.71875 18.7265625 C-74.44957201 13.29759896 -74.45752532 8.5063394 -72.34375 3.4140625 C-52.77184659 -16.62383861 -21.7056484 -16.08191222 0 0 Z " fill="#000000" transform="translate(105.71875,443.2734375)"/>
<path d="M0 0 C1.00804687 -0.02835937 2.01609375 -0.05671875 3.0546875 -0.0859375 C10.22008929 0.9897844 15.18769774 7.14404776 20.078125 12.0625 C20.8195575 12.80201904 21.56098999 13.54153809 22.32489014 14.3034668 C23.88376596 15.86098675 25.44013951 17.42101475 26.99414062 18.98339844 C29.37408972 21.37408561 31.76455579 23.75388184 34.15625 26.1328125 C35.67251695 27.65040055 37.18816364 29.16860862 38.703125 30.6875 C39.4176886 31.39801514 40.1322522 32.10853027 40.86846924 32.84057617 C41.52965759 33.50806885 42.19084595 34.17556152 42.87207031 34.86328125 C43.45353821 35.44634033 44.0350061 36.02939941 44.63409424 36.63012695 C48.58380484 41.25264821 48.55217381 45.56957053 48.4375 51.4609375 C47.86897844 56.76240101 45.34634216 59.21472495 41.625 62.75 C36.47053976 65.14314225 31.71451145 65.14940419 26.125 64.375 C22.28738726 62.42253036 20.16773677 60.41773677 17.125 57.375 C17.125 125.355 17.125 193.335 17.125 263.375 C19.435 261.395 21.745 259.415 24.125 257.375 C28.31111152 255.28194424 33.56632948 255.95135392 38.125 256.375 C43.0096525 258.64287438 45.85712562 261.4903475 48.125 266.375 C48.95963636 272.5751558 49.12331894 277.3883045 45.47106934 282.65270996 C42.74391094 286.14209763 39.57363412 289.20986034 36.4375 292.328125 C35.32822144 293.44027374 35.32822144 293.44027374 34.1965332 294.57489014 C32.63901325 296.13376596 31.07898525 297.69013951 29.51660156 299.24414062 C27.12591439 301.62408972 24.74611816 304.01455579 22.3671875 306.40625 C20.84959945 307.92251695 19.33139138 309.43816364 17.8125 310.953125 C16.74672729 312.0249704 16.74672729 312.0249704 15.65942383 313.11846924 C14.99193115 313.77965759 14.32443848 314.44084595 13.63671875 315.12207031 C13.05365967 315.70353821 12.47060059 316.2850061 11.86987305 316.88409424 C8.16069976 320.0533952 5.07972245 320.68855315 0.25 320.75 C-0.75804687 320.77835937 -1.76609375 320.80671875 -2.8046875 320.8359375 C-9.97008929 319.7602156 -14.93769774 313.60595224 -19.828125 308.6875 C-20.5695575 307.94798096 -21.31098999 307.20846191 -22.07489014 306.4465332 C-23.63376596 304.88901325 -25.19013951 303.32898525 -26.74414062 301.76660156 C-29.12408972 299.37591439 -31.51455579 296.99611816 -33.90625 294.6171875 C-35.42251695 293.09959945 -36.93816364 291.58139138 -38.453125 290.0625 C-39.5249704 288.99672729 -39.5249704 288.99672729 -40.61846924 287.90942383 C-41.61025177 286.90818481 -41.61025177 286.90818481 -42.62207031 285.88671875 C-43.20353821 285.30365967 -43.7850061 284.72060059 -44.38409424 284.11987305 C-48.33380484 279.49735179 -48.30217381 275.18042947 -48.1875 269.2890625 C-47.61897844 263.98759899 -45.09634216 261.53527505 -41.375 258 C-36.22053976 255.60685775 -31.46451145 255.60059581 -25.875 256.375 C-22.03738726 258.32746964 -19.91773677 260.33226323 -16.875 263.375 C-16.875 195.395 -16.875 127.415 -16.875 57.375 C-19.185 59.355 -21.495 61.335 -23.875 63.375 C-28.06111152 65.46805576 -33.31632948 64.79864608 -37.875 64.375 C-42.7596525 62.10712562 -45.60712562 59.2596525 -47.875 54.375 C-48.70963636 48.1748442 -48.87331894 43.3616955 -45.22106934 38.09729004 C-42.49391094 34.60790237 -39.32363412 31.54013966 -36.1875 28.421875 C-35.44798096 27.6804425 -34.70846191 26.93901001 -33.9465332 26.17510986 C-32.38901325 24.61623404 -30.82898525 23.05986049 -29.26660156 21.50585938 C-26.87591439 19.12591028 -24.49611816 16.73544421 -22.1171875 14.34375 C-20.59959945 12.82748305 -19.08139138 11.31183636 -17.5625 9.796875 C-16.85198486 9.0823114 -16.14146973 8.3677478 -15.40942383 7.63153076 C-14.74193115 6.97034241 -14.07443848 6.30915405 -13.38671875 5.62792969 C-12.80365967 5.04646179 -12.22060059 4.4649939 -11.61987305 3.86590576 C-7.91069976 0.6966048 -4.82972245 0.06144685 0 0 Z " fill="#000000" transform="translate(415.875,95.625)"/>
<path d="M0 0 C1.81455688 0.01703979 1.81455688 0.01703979 3.66577148 0.03442383 C16.11424602 0.3041895 25.97249805 2.73092929 37.0078125 8.57421875 C40.19317617 10.00944915 41.79530986 9.7001923 45.0625 8.5 C47.63000418 7.32340234 50.17689868 6.13038322 52.6953125 4.8515625 C62.33705886 0.98144157 71.61332726 -0.00059217 81.9375 0.0625 C83.12085938 0.04251953 84.30421875 0.02253906 85.5234375 0.00195312 C91.98459375 0.00559116 96.20415412 0.05738506 101.0625 4.5 C104.69083663 8.31930172 105.37250458 11.38279006 105.5625 16.5 C105.37250458 21.61720994 104.69083663 24.68069828 101.0625 28.5 C95.59637296 33.23437132 90.47248255 33.14839113 83.4375 33.4375 C69.9888247 34.29703964 61.43704103 36.86366371 51.0234375 45.828125 C46.98777322 49.26889056 43.16771742 48.83237733 38.03125 48.77734375 C34.02496659 48.40307254 32.09121075 47.11570474 29.0625 44.5 C18.51837676 35.85196909 9.06412206 33.92820043 -4.3671875 33.3671875 C-12.15639544 32.91363868 -15.8671198 31.73197916 -21.3125 26 C-23.71053575 20.83499991 -23.69131535 16.0997712 -22.9375 10.5 C-18.08814611 0.05523778 -10.37016251 -0.16239945 0 0 Z " fill="#000000" transform="translate(374.9375,31.5)"/>
</svg>
