<?xml version="1.0" encoding="UTF-8"?>
<svg version="1.1" xmlns="http://www.w3.org/2000/svg" width="512" height="512">
<path d="M0 0 C0.90280701 -0.0071553 1.80561401 -0.01431061 2.73577881 -0.02168274 C3.72904175 -0.02437164 4.72230469 -0.02706055 5.7456665 -0.02983093 C6.78970642 -0.03640213 7.83374634 -0.04297333 8.90942383 -0.04974365 C12.37599758 -0.06950798 15.84252794 -0.0811464 19.30914307 -0.09111023 C20.49133675 -0.09518576 21.67353043 -0.09926128 22.89154816 -0.10346031 C29.14890876 -0.12433466 35.40624734 -0.13863035 41.66363525 -0.147995 C48.13132863 -0.15906077 54.59867808 -0.19345915 61.06624985 -0.23316669 C66.03508143 -0.25929682 71.00383066 -0.26768366 75.97272491 -0.27127647 C78.35695976 -0.27615192 80.74119069 -0.287793 83.12535858 -0.30631447 C86.46261425 -0.33062784 89.79897463 -0.32975469 93.1362915 -0.32279968 C94.12145752 -0.33560974 95.10662354 -0.3484198 96.12164307 -0.36161804 C101.83882936 -0.31818768 105.18423869 0.28739416 109.69976807 4.14717102 C113.05004987 7.67378344 114.09416608 10.7751054 114.51226807 15.52217102 C114.16940894 23.35078781 110.41345208 29.04305219 106.36627197 35.47920227 C104.37299949 38.67030712 102.43158944 41.89162169 100.49273682 45.11592102 C97.88793013 49.4407498 95.27832286 53.762473 92.64741516 58.07148743 C91.6183064 59.75768494 90.59354569 61.44653371 89.56890869 63.13545227 C88.41784624 64.99014224 87.23517171 66.82615534 86.00250244 68.62763977 C84.3987203 70.90063957 84.3987203 70.90063957 82.69976807 74.14717102 C84.31257112 78.8021388 88.13164014 82.02356613 91.51226807 85.45967102 C92.43749268 86.44677063 92.43749268 86.44677063 93.38140869 87.45381165 C93.9879126 88.07062805 94.5944165 88.68744446 95.21929932 89.32295227 C95.76690918 89.88925354 96.31451904 90.45555481 96.87872314 91.03901672 C98.68722245 92.38825973 98.68722245 92.38825973 101.08526611 91.92134094 C101.94805176 91.66586487 102.8108374 91.41038879 103.69976807 91.14717102 C104.58277588 90.89838196 105.46578369 90.6495929 106.37554932 90.39326477 C107.2456665 90.12642883 108.11578369 89.8595929 109.01226807 89.58467102 C109.89527588 89.31525696 110.77828369 89.0458429 111.68804932 88.76826477 C112.3519165 88.56330383 113.01578369 88.3583429 113.69976807 88.14717102 C113.6788208 87.26980286 113.65787354 86.39243469 113.6362915 85.48847961 C113.56784206 82.21200419 113.51783756 78.9362959 113.4800415 75.65937805 C113.46000964 74.24519307 113.43277559 72.83109006 113.39801025 71.41719055 C113.34911318 69.37645683 113.32671684 67.33682412 113.30914307 65.29560852 C113.2881958 64.07019348 113.26724854 62.84477844 113.2456665 61.58222961 C113.95339371 56.22861573 116.212529 53.33888009 120.37402344 50.00431824 C124.32138735 47.8000492 126.76158918 47.64045414 131.26226807 47.6295929 C131.99477783 47.62258362 132.7272876 47.61557434 133.48199463 47.60835266 C135.88831189 47.59083705 138.29344015 47.60237148 140.69976807 47.61592102 C142.38075993 47.61322423 144.06175027 47.60934025 145.74273682 47.60432434 C149.2598155 47.59843804 152.77648686 47.60696393 156.29351807 47.62568665 C160.79278996 47.64847601 165.29110733 47.63534822 169.79034424 47.61139679 C173.25973653 47.59691511 176.72890401 47.60155559 180.19830322 47.61190796 C181.85683303 47.61456871 183.51538351 47.61132846 185.17388916 47.60198975 C187.49556228 47.59178456 189.81570817 47.60737823 192.13726807 47.6295929 C193.455979 47.63277527 194.77468994 47.63595764 196.13336182 47.63923645 C201.55377437 48.41122223 204.58856196 50.82198734 208.050354 54.95039368 C209.9875895 58.7050061 210.16228505 61.08992763 210.09039307 65.29560852 C210.08473328 65.95300018 210.07907349 66.61039185 210.07324219 67.28770447 C210.05103082 69.36663293 210.00087227 71.44377265 209.94976807 73.52217102 C209.92968296 74.9401147 209.91143572 76.35808567 209.89508057 77.77607727 C209.85121873 81.23367979 209.78230244 84.69025053 209.69976807 88.14717102 C211.26135866 88.62929316 212.82408734 89.10772975 214.38726807 89.58467102 C215.25738525 89.85150696 216.12750244 90.1183429 217.02398682 90.39326477 C217.90699463 90.64205383 218.79000244 90.8908429 219.69976807 91.14717102 C220.54595703 91.42214417 221.392146 91.69711731 222.26397705 91.98042297 C224.80369432 92.41021323 224.80369432 92.41021323 226.85626221 90.64009094 C227.90994995 89.52017761 227.90994995 89.52017761 228.98492432 88.37763977 C229.76287354 87.57133118 230.54082275 86.76502258 231.34234619 85.9342804 C232.14092041 85.0764093 232.93949463 84.21853821 233.76226807 83.33467102 C235.35283505 81.6572297 236.94772375 79.98387306 238.54742432 78.31513977 C239.24875488 77.56514709 239.95008545 76.81515442 240.67266846 76.04243469 C244.28154071 72.66827171 247.18367993 71.84067366 252.07476807 71.77217102 C252.99000244 71.74381165 253.90523682 71.71545227 254.84820557 71.68623352 C260.63188744 72.62113004 264.7336737 76.9299666 268.75543213 80.94404602 C269.45418457 81.6375415 269.45418457 81.6375415 270.16705322 82.345047 C271.68819769 83.85746909 273.20200289 85.37699274 274.71539307 86.89717102 C275.77790654 87.95833557 276.84071661 89.01920322 277.90380859 90.07978821 C280.12258799 92.2956296 282.33773622 94.51502122 284.550354 96.73701477 C287.38373684 99.58181925 290.22604232 102.41751257 293.07110977 105.25062561 C295.26404109 107.43632632 297.45218229 109.62677252 299.63890839 111.81867981 C300.68521174 112.86631488 301.73299608 113.91247304 302.78229523 114.95710754 C304.24698975 116.41671406 305.70510582 117.88259397 307.16168213 119.35029602 C307.99185852 120.1820636 308.82203491 121.01383118 309.67736816 121.87080383 C313.05146898 125.66861473 314.00400554 128.46972675 314.07476807 133.52217102 C314.10312744 134.4374054 314.13148682 135.35263977 314.16070557 136.29560852 C312.83981346 144.46722919 304.86401555 150.00654267 299.10406494 155.31318665 C298.39701416 155.99187805 297.68996338 156.67056946 296.96148682 157.36982727 C296.31139648 157.97576721 295.66130615 158.58170715 294.99151611 159.20600891 C293.44506253 161.09457995 293.44506253 161.09457995 293.89825439 163.55122375 C294.16275391 164.40788635 294.42725342 165.26454895 294.69976807 166.14717102 C295.07295166 167.47168274 295.07295166 167.47168274 295.45367432 168.82295227 C295.85392822 170.12812805 295.85392822 170.12812805 296.26226807 171.45967102 C296.66638916 172.78418274 296.66638916 172.78418274 297.07867432 174.13545227 C297.28363525 174.79931946 297.48859619 175.46318665 297.69976807 176.14717102 C298.57713623 176.12622375 299.45450439 176.10527649 300.35845947 176.08369446 C303.6349349 176.01524502 306.91064319 175.96524051 310.18756104 175.92744446 C311.60174602 175.90741259 313.01584903 175.88017854 314.42974854 175.84541321 C316.47048225 175.79651614 318.51011496 175.77411979 320.55133057 175.75654602 C321.77674561 175.73559875 323.00216064 175.71465149 324.26470947 175.69306946 C329.61832336 176.40079667 332.508059 178.65993195 335.84262085 182.82142639 C338.04688989 186.7687903 338.20648495 189.20899213 338.21734619 193.70967102 C338.22786011 194.80843567 338.22786011 194.80843567 338.23858643 195.92939758 C338.25610204 198.33571484 338.24456761 200.74084311 338.23101807 203.14717102 C338.23371486 204.82816289 338.23759883 206.50915323 338.24261475 208.19013977 C338.24850104 211.70721845 338.23997515 215.22388982 338.22125244 218.74092102 C338.19846308 223.24019291 338.21159087 227.73851029 338.2355423 232.23774719 C338.25002398 235.70713949 338.2453835 239.17630696 338.23503113 242.64570618 C338.23237037 244.30423598 338.23561063 245.96278647 338.24494934 247.62129211 C338.25515453 249.94296523 338.23956085 252.26311113 338.21734619 254.58467102 C338.21416382 255.90338196 338.21098145 257.2220929 338.20770264 258.58076477 C337.43571685 264.00117732 335.02495175 267.03596492 330.89654541 270.49775696 C327.14193299 272.43499245 324.75701146 272.609688 320.55133057 272.53779602 C319.8939389 272.53213623 319.23654724 272.52647644 318.55923462 272.52064514 C316.48030615 272.49843377 314.40316644 272.44827523 312.32476807 272.39717102 C310.90682439 272.37708591 309.48885342 272.35883867 308.07086182 272.34248352 C304.6132593 272.29862169 301.15668856 272.22970539 297.69976807 272.14717102 C297.21764592 273.70876161 296.73920934 275.2714903 296.26226807 276.83467102 C295.99543213 277.70478821 295.72859619 278.5749054 295.45367432 279.47138977 C295.08049072 280.79590149 295.08049072 280.79590149 294.69976807 282.14717102 C294.28730835 283.41645447 294.28730835 283.41645447 293.86651611 284.71138 C293.43672586 287.25109727 293.43672586 287.25109727 295.20684814 289.30366516 C295.95345703 290.00612366 296.70006592 290.70858215 297.46929932 291.43232727 C298.27560791 292.21027649 299.0819165 292.98822571 299.91265869 293.78974915 C300.77052979 294.58832336 301.62840088 295.38689758 302.51226807 296.20967102 C304.18970939 297.800238 305.86306603 299.3951267 307.53179932 300.99482727 C308.28179199 301.69615784 309.03178467 302.3974884 309.80450439 303.12007141 C313.17866738 306.72894366 314.00626543 309.63108288 314.07476807 314.52217102 C314.10312744 315.4374054 314.13148682 316.35263977 314.16070557 317.29560852 C313.22580904 323.0792904 308.91697249 327.18107666 304.90289307 331.20283508 C304.44056274 331.66867004 303.97823242 332.134505 303.50189209 332.61445618 C301.98947 334.13560064 300.46994634 335.64940585 298.94976807 337.16279602 C297.88860352 338.22530949 296.82773587 339.28811956 295.76715088 340.35121155 C293.55130949 342.56999094 291.33191787 344.78513918 289.10992432 346.99775696 C286.26511983 349.8311398 283.42942652 352.67344527 280.59631348 355.51851273 C278.41061276 357.71144405 276.22016657 359.89958525 274.02825928 362.08631134 C272.98062421 363.13261469 271.93446605 364.18039904 270.88983154 365.22969818 C269.43022503 366.6943927 267.96434511 368.15250877 266.49664307 369.60908508 C265.66487549 370.43926147 264.83310791 371.26943787 263.97613525 372.12477112 C260.17832436 375.49887193 257.37721233 376.4514085 252.32476807 376.52217102 C251.40953369 376.5505304 250.49429932 376.57888977 249.55133057 376.60810852 C241.3797099 375.28721641 235.84039642 367.31141851 230.53375244 361.5514679 C229.85506104 360.84441711 229.17636963 360.13736633 228.47711182 359.40888977 C227.87117188 358.75879944 227.26523193 358.10870911 226.64093018 357.43891907 C224.75235914 355.89246549 224.75235914 355.89246549 222.29571533 356.34565735 C221.43905273 356.61015686 220.58239014 356.87465637 219.69976807 357.14717102 C218.81676025 357.39596008 217.93375244 357.64474915 217.02398682 357.90107727 C215.71881104 358.30133118 215.71881104 358.30133118 214.38726807 358.70967102 C213.50426025 358.97908508 212.62125244 359.24849915 211.71148682 359.52607727 C211.04761963 359.73103821 210.38375244 359.93599915 209.69976807 360.14717102 C209.72071533 361.02453918 209.7416626 361.90190735 209.76324463 362.80586243 C209.83169407 366.08233785 209.88169858 369.35804615 209.91949463 372.63496399 C209.93952649 374.04914897 209.96676055 375.46325199 210.00152588 376.87715149 C210.05042295 378.91788521 210.07281929 380.95751792 210.09039307 382.99873352 C210.11134033 384.22414856 210.1322876 385.4495636 210.15386963 386.71211243 C209.44614242 392.06572632 207.18700714 394.95546195 203.0255127 398.2900238 C199.07814878 400.49429284 196.63794696 400.6538879 192.13726807 400.66474915 C191.03850342 400.67526306 191.03850342 400.67526306 189.9175415 400.68598938 C187.51122424 400.70350499 185.10609598 400.69197057 182.69976807 400.67842102 C181.0187762 400.68111781 179.33778586 400.68500179 177.65679932 400.6900177 C174.13972064 400.695904 170.62304927 400.68737811 167.10601807 400.6686554 C162.60674618 400.64586603 158.1084288 400.65899382 153.60919189 400.68294525 C150.1397996 400.69742693 146.67063212 400.69278646 143.20123291 400.68243408 C141.5427031 400.67977333 139.88415262 400.68301359 138.22564697 400.69235229 C135.90397386 400.70255748 133.58382796 400.68696381 131.26226807 400.66474915 C129.94355713 400.66156677 128.62484619 400.6583844 127.26617432 400.65510559 C121.84576176 399.88311981 118.81097417 397.4723547 115.34918213 393.34394836 C113.41194664 389.58933594 113.23725109 387.20441442 113.30914307 382.99873352 C113.31480286 382.34134186 113.32046265 381.6839502 113.32629395 381.00663757 C113.34850531 378.92770911 113.39866386 376.85056939 113.44976807 374.77217102 C113.46985317 373.35422734 113.48810042 371.93625637 113.50445557 370.51826477 C113.5483174 367.06066225 113.61723369 363.60409151 113.69976807 360.14717102 C112.13817747 359.66504888 110.57544879 359.18661229 109.01226807 358.70967102 C108.14215088 358.44283508 107.27203369 358.17599915 106.37554932 357.90107727 C105.0510376 357.52789368 105.0510376 357.52789368 103.69976807 357.14717102 C102.852854 356.87219788 102.00593994 356.59722473 101.13336182 356.31391907 C98.59689374 355.88330349 98.59689374 355.88330349 96.55914307 357.6542511 C95.86304932 358.40085999 95.16695557 359.14746887 94.44976807 359.91670227 C93.67633057 360.72301086 92.90289307 361.52931946 92.10601807 362.36006165 C91.31195557 363.21793274 90.51789307 364.07580383 89.69976807 364.95967102 C88.12353381 366.63953756 86.54042654 368.31298752 84.94976807 369.97920227 C84.25367432 370.72919495 83.55758057 371.47918762 82.84039307 372.25190735 C79.35766823 375.33543756 75.86434583 376.43506098 71.26226807 376.45967102 C70.54168213 376.47642883 69.82109619 376.49318665 69.07867432 376.51045227 C63.7253338 375.69294707 59.88419187 372.70599868 56.16314697 368.9511261 C55.32272858 368.11048111 54.48231018 367.26983612 53.61642456 366.40371704 C52.72869354 365.50050217 51.84096252 364.59728729 50.92633057 363.66670227 C50.00258636 362.73871323 49.07884216 361.81072418 48.12710571 360.85461426 C45.68407882 358.40019158 43.2502004 355.93689186 40.81817627 353.47157288 C38.32978775 350.95236934 35.83277092 348.4417498 33.33648682 345.93037415 C28.44914665 341.01096294 23.57142656 336.08211085 18.69976807 331.14717102 C14.42690077 333.0594356 11.99700838 336.02947486 9.07476807 339.58467102 C8.00458442 340.86191301 6.93295026 342.13794094 5.85992432 343.41279602 C5.32770264 344.04637024 4.79548096 344.67994446 4.24713135 345.3327179 C2.06344707 347.89332717 -0.20459242 350.36216313 -2.48773193 352.83467102 C-5.67760038 356.30853411 -8.72072088 359.84627127 -11.67523193 363.52217102 C-15.54242057 368.31857812 -19.65003909 372.81758562 -23.8583374 377.31074524 C-26.97562529 380.65798887 -29.93589676 384.07713008 -32.80023193 387.64717102 C-36.62017204 392.4082558 -40.68962013 396.85990127 -44.85882568 401.31123352 C-47.97591747 404.65833971 -50.93604306 408.07731243 -53.80023193 411.64717102 C-57.61611985 416.40320524 -61.67801949 420.85370192 -65.84783936 425.29585266 C-69.09588649 428.77764699 -72.14401966 432.35734402 -75.11273193 436.08467102 C-78.87856641 440.77484669 -82.82776366 445.41093688 -88.30023193 448.14717102 C-93.83065246 448.65219445 -98.71053717 448.88524359 -103.80023193 446.52217102 C-108.19408822 442.34800755 -110.53944557 439.24883654 -110.92523193 433.10420227 C-110.77016099 423.64772004 -106.00514444 415.6432827 -101.92523193 407.33467102 C-101.05499621 405.51831087 -100.18728237 403.70074054 -99.32196045 401.8820343 C-97.53680905 398.13461531 -95.74137454 394.39240048 -93.93841553 390.65351868 C-90.31506632 383.11825245 -86.82561978 375.52227366 -83.33972168 367.92271423 C-81.48754205 363.88797865 -79.62567784 359.85771505 -77.76507568 355.82685852 C-77.02137552 354.21457589 -76.27772316 352.60227121 -75.53411865 350.98994446 C-73.29151194 346.12795839 -71.04796541 341.26640642 -68.80413818 336.40498352 C-68.43241486 335.59961655 -68.06069153 334.79424957 -67.67770386 333.96447754 C-66.17849144 330.71637351 -64.67924175 327.46828669 -63.17999268 324.22019958 C-59.38533756 315.99910225 -55.59091156 307.77789997 -51.79849243 299.55577087 C-50.23617717 296.16867658 -48.67360743 292.78169971 -47.11102295 289.39472961 C-46.38824201 287.8278926 -45.66557642 286.26100236 -44.9430542 284.69404602 C-38.0901443 269.83207561 -31.19606215 254.98926099 -24.30023193 240.14717102 C-25.23904205 240.15605347 -26.17785217 240.16493591 -27.14511108 240.17408752 C-36.00229249 240.25525396 -44.8593982 240.31517501 -53.71686745 240.35441971 C-58.27036695 240.37527435 -62.82356568 240.40355295 -67.37689209 240.44892883 C-71.77300336 240.4924627 -76.16882572 240.5163241 -80.56513596 240.52667999 C-82.24045737 240.53405787 -83.91576338 240.54846531 -85.59096146 240.57009125 C-87.94182469 240.59922646 -90.2915017 240.60312295 -92.64251709 240.60127258 C-93.33160156 240.61565369 -94.02068604 240.63003479 -94.73065186 240.64485168 C-99.7001824 240.60266434 -102.4529621 239.21346509 -106.30023193 236.14717102 C-110.51882323 231.70654861 -110.96847349 227.74114393 -110.87200928 221.8585968 C-109.62907973 213.79069973 -105.49149403 206.59725002 -101.92523193 199.33467102 C-101.05499621 197.51831087 -100.18728237 195.70074054 -99.32196045 193.8820343 C-97.53680905 190.13461531 -95.74137454 186.39240048 -93.93841553 182.65351868 C-90.31506632 175.11825245 -86.82561978 167.52227366 -83.33972168 159.92271423 C-81.48754205 155.88797865 -79.62567784 151.85771505 -77.76507568 147.82685852 C-77.02137552 146.21457589 -76.27772316 144.60227121 -75.53411865 142.98994446 C-72.16618059 135.68823264 -68.79612001 128.38750044 -65.42623901 121.08668518 C-63.55081824 117.02355306 -61.67553182 112.96035893 -59.80023193 108.89717102 C-59.05023258 107.27217072 -58.30023258 105.64717072 -57.55023193 104.02217102 C-57.17898193 103.21779602 -56.80773193 102.41342102 -56.42523193 101.58467102 C-53.05023193 94.27217102 -53.05023193 94.27217102 -51.92538452 91.83502197 C-51.17485526 90.20886166 -50.42434665 88.58269181 -49.67385864 86.95651245 C-47.80712513 82.91168709 -45.94004109 78.86702428 -44.07220459 74.82270813 C-40.59839478 67.30011212 -37.12792416 59.77603255 -33.66955566 52.24632263 C-32.05983101 48.7421155 -30.44816513 45.2388027 -28.83636475 41.73554993 C-28.07856586 40.08706647 -27.32168733 38.43815952 -26.56585693 36.78877258 C-24.17061202 31.56219198 -21.74824475 26.34923474 -19.30023193 21.14717102 C-18.95077515 20.39828613 -18.60131836 19.64940125 -18.24127197 18.87782288 C-17.20441616 16.66774541 -16.14971311 14.46711722 -15.08929443 12.26826477 C-14.78188324 11.60810867 -14.47447205 10.94795258 -14.15774536 10.26779175 C-11.08680007 3.99927429 -7.0765513 0.03843644 0 0 Z M12.69976807 32.14717102 C6.40595155 44.66516845 6.40595155 44.66516845 0.39508057 57.30732727 C-0.14677132 58.47860924 -0.14677132 58.47860924 -0.6995697 59.67355347 C-1.86048275 62.1845109 -3.01790311 64.69705986 -4.17523193 67.20967102 C-5.00631287 69.00908808 -5.83761646 70.80840231 -6.66912842 72.60762024 C-8.80146479 77.22304703 -10.93090064 81.83980562 -13.05957031 86.45692444 C-15.00652816 90.67870144 -16.95616406 94.89924064 -18.90570068 99.11982727 C-22.2561758 106.37440207 -25.60422522 113.63009297 -28.9510498 120.88635254 C-31.94118365 127.36918951 -34.93240522 133.85152381 -37.92454529 140.33343506 C-39.78742744 144.36906227 -41.64980891 148.4049186 -43.51092529 152.44136047 C-47.04359061 160.10165762 -50.58201683 167.75916783 -54.13720703 175.40904236 C-55.82789662 179.04775578 -57.51583629 182.68774165 -59.20355225 186.32783508 C-60.01369459 188.07310575 -60.82520376 189.81774263 -61.63812256 191.5617218 C-62.76066153 193.97015429 -63.87859711 196.38067266 -64.99554443 198.79170227 C-65.33208038 199.51054092 -65.66861633 200.22937958 -66.01535034 200.97000122 C-67.72054548 204.4140875 -67.72054548 204.4140875 -68.30023193 208.14717102 C-67.36142181 208.15081665 -66.42261169 208.15446228 -65.45535278 208.15821838 C-56.59789704 208.19519692 -47.74078804 208.2530007 -38.88359642 208.33107376 C-34.33024044 208.37054395 -29.77707771 208.40273462 -25.22357178 208.41816711 C-20.82723447 208.43333681 -16.43142847 208.46778762 -12.03532791 208.51548004 C-10.36009978 208.53029066 -8.6847958 208.53821186 -7.00950241 208.53905487 C-4.65841106 208.54142734 -2.30878472 208.5685268 0.04205322 208.60127258 C1.07567993 208.59372704 1.07567993 208.59372704 2.13018799 208.58602905 C7.07144636 208.69216504 9.87966868 210.07797747 13.69976807 213.14717102 C17.01076014 217.54048392 17.47279343 221.09312275 17.31988525 226.48847961 C15.95805426 234.52328249 11.88805401 241.70366533 8.32476807 248.95967102 C7.46112881 250.7621173 6.60000389 252.56577027 5.74127197 254.37055969 C3.962689 258.1040512 2.17374908 261.83230415 0.37750244 265.55732727 C-3.83003911 274.30852701 -7.87154621 283.13647938 -11.92523193 291.95967102 C-13.04523904 294.39219723 -14.16586918 296.82443576 -15.28651428 299.25666809 C-16.32811959 301.51800766 -17.36866754 303.77983148 -18.40911865 306.04170227 C-20.08556292 309.68443001 -21.77258455 313.32219177 -23.46038818 316.95967102 C-24.30342151 318.79273523 -25.14593503 320.62603868 -25.98773193 322.45967102 C-26.35656494 323.24769104 -26.72539795 324.03571106 -27.10540771 324.84761047 C-27.89787439 326.58767958 -28.61006286 328.3640528 -29.30023193 330.14717102 C-28.97023193 330.80717102 -28.64023193 331.46717102 -28.30023193 332.14717102 C-23.71811552 327.1534224 -19.23186767 322.12040784 -14.98773193 316.83467102 C-11.09702485 312.02051514 -6.97022728 307.49792768 -2.74237061 302.98384094 C0.37501533 299.63652859 3.33535974 296.21730314 6.19976807 292.64717102 C10.01970818 287.88608624 14.08915626 283.43444077 18.25836182 278.98310852 C21.3754536 275.63600233 24.33557919 272.21702961 27.19976807 268.64717102 C31.01970818 263.88608624 35.08915626 259.43444077 39.25836182 254.98310852 C42.3754536 251.63600233 45.33557919 248.21702961 48.19976807 244.64717102 C52.01970818 239.88608624 56.08915626 235.43444077 60.25836182 230.98310852 C63.3754536 227.63600233 66.33557919 224.21702961 69.19976807 220.64717102 C72.58865171 216.42647048 76.13926143 212.41925445 79.82476807 208.45967102 C80.33555908 207.91077209 80.8463501 207.36187317 81.37261963 206.79634094 C82.36010104 205.73606237 83.34772604 204.6759175 84.33551025 203.61592102 C86.22604945 201.58058033 88.09725606 199.52968443 89.94976807 197.45967102 C90.49117432 196.85767883 91.03258057 196.25568665 91.59039307 195.63545227 C92.89898157 194.18929263 92.89898157 194.18929263 92.69976807 192.14717102 C91.49786835 192.14352539 90.29596863 192.13987976 89.05764771 192.13612366 C77.72792307 192.09917391 66.39847023 192.0414012 55.06895256 191.96326828 C49.24438224 191.9237682 43.41996368 191.89159199 37.59527588 191.87617493 C31.97354505 191.86102525 26.35223137 191.82660912 20.73068619 191.778862 C18.58654533 191.76403088 16.44234491 191.75612902 14.29815292 191.75528717 C11.29338923 191.75292104 8.28978166 191.72586895 5.28521729 191.69306946 C3.95704231 191.70061501 3.95704231 191.70061501 2.60203552 191.70831299 C-2.84120875 191.61645357 -5.98616167 190.77830361 -10.30023193 187.14717102 C-13.64628416 182.72151647 -14.12744811 179.04198856 -13.93695068 173.59638977 C-12.75895227 167.21496276 -9.30986698 162.12601098 -5.9052124 156.70967102 C-4.10233016 153.83120251 -2.34207741 150.92905753 -0.58538818 148.02217102 C1.52353037 144.53395497 3.63395786 141.04687527 5.75836182 137.56806946 C11.46330645 128.22375016 17.06467609 118.8209048 22.63726807 109.39717102 C27.73249759 100.78333857 32.84509515 92.19017965 38.20635986 83.73823547 C42.13832983 77.51510243 45.84892331 71.16371269 49.57501221 64.81587219 C54.41598886 56.5839942 59.37784664 48.42871963 64.38238525 40.29536438 C64.94731689 39.37376526 65.51224854 38.45216614 66.09429932 37.50263977 C66.59808105 36.68432678 67.10186279 35.86601379 67.62091064 35.02290344 C68.7828646 33.36334092 68.7828646 33.36334092 68.69976807 32.14717102 C50.21976807 32.14717102 31.73976807 32.14717102 12.69976807 32.14717102 Z M145.69976807 80.14717102 C145.52963188 88.43320943 145.52963188 88.43320943 145.4019165 96.71992493 C145.07475029 107.84185411 145.07475029 107.84185411 140.69976807 112.14717102 C135.43377903 115.57305594 129.34468498 117.46365716 123.44976807 119.52217102 C117.76785604 121.53709193 112.43795931 123.67650967 107.13726807 126.58467102 C102.01670163 129.25222868 97.41678352 130.55135025 91.69976807 129.14717102 C84.5466257 125.96206534 79.65878072 120.44520563 74.26226807 114.89717102 C73.33994385 113.96131165 72.41761963 113.02545227 71.46734619 112.06123352 C69.20450822 109.7632219 66.94900242 107.45848615 64.69976807 105.14717102 C61.4038897 108.17055014 59.26941483 111.27147646 57.04742432 115.14326477 C56.71052582 115.72514053 56.37362732 116.3070163 56.02651978 116.90652466 C55.30601066 118.1518576 54.58818598 119.39874691 53.87283325 120.64704895 C51.99748887 123.91899436 50.10271752 127.17963 48.20758057 130.44013977 C47.82857101 131.09297943 47.44956146 131.74581909 47.05906677 132.41844177 C43.00037903 139.38760474 38.75489854 146.23738246 34.45977783 153.0629425 C33.96018555 153.85901917 33.46059326 154.65509583 32.94586182 155.47529602 C32.50943359 156.16526672 32.07300537 156.85523743 31.62335205 157.56611633 C30.61570115 158.98590769 30.61570115 158.98590769 30.69976807 160.14717102 C32.65295456 160.15263947 32.65295456 160.15263947 34.64559937 160.15821838 C46.91714535 160.19516023 59.18844021 160.25292438 71.459795 160.33107376 C77.76863775 160.37058206 84.07734022 160.40275428 90.3862915 160.41816711 C96.47484468 160.43331131 102.56301227 160.46771785 108.65139389 160.51548004 C110.97416711 160.53031679 113.29699537 160.53821334 115.61981583 160.53905487 C118.87360999 160.54141927 122.12633402 160.56845821 125.37994385 160.60127258 C126.34019974 160.59624222 127.30045563 160.59121185 128.28981018 160.58602905 C134.06539851 160.67613962 137.27228233 161.35549668 141.69976807 165.14717102 C145.18317942 169.67338704 145.33665889 173.54527662 145.16070557 179.10810852 C144.38761498 184.20526512 141.92255742 187.23868181 138.69976807 191.14717102 C137.44929859 192.74801359 136.19894985 194.34895175 134.95050049 195.95137024 C133.55239558 197.73826492 132.14231806 199.51521736 130.73101807 201.29170227 C127.44734243 205.44490386 124.25295801 209.66293393 121.07476807 213.89717102 C120.55382568 214.58883362 120.0328833 215.28049622 119.49615479 215.99311829 C114.8814734 222.15759822 113.98352205 225.51403495 114.69976807 233.14717102 C117.41227208 245.59854487 124.65224947 256.3834077 135.01226807 263.80342102 C147.09487482 271.50608282 160.17023588 273.13476811 174.17633057 270.49092102 C187.19902141 266.5874788 197.82714053 257.49787374 204.41070557 245.72138977 C210.05120882 234.45747571 210.76601803 220.64687279 207.07476807 208.58467102 C202.00913551 195.7705622 193.1850973 186.21514336 180.70367432 180.41279602 C177.8917109 179.2280416 175.06000854 178.14620357 172.19976807 177.08467102 C167.3615725 175.22860563 165.01995883 172.78755255 162.69976807 168.14717102 C162.18985817 162.56323969 161.96106743 157.70665014 164.38726807 152.58467102 C167.38193907 149.42812591 170.01348217 147.44475088 174.35601807 146.67842102 C182.70340912 146.58669145 189.17364693 148.63560212 196.69976807 152.14717102 C198.10742432 152.79879211 198.10742432 152.79879211 199.54351807 153.46357727 C218.98235167 163.26678215 230.16629267 179.93310954 238.08648682 199.58857727 C244.55664844 219.54391784 241.91904926 241.94275249 232.88726807 260.52217102 C229.76186966 266.59973558 226.32044477 272.07779224 221.69976807 277.14717102 C220.60922119 278.37500305 220.60922119 278.37500305 219.49664307 279.62763977 C206.48849619 293.49600281 187.50252728 302.79509007 168.36773682 303.58076477 C166.20771007 303.60445433 164.04732637 303.60528288 161.88726807 303.58467102 C160.74725342 303.57564758 159.60723877 303.56662415 158.43267822 303.55732727 C139.28768235 303.16511225 121.87554485 296.0799226 107.69976807 283.14717102 C107.09133057 282.63025696 106.48289307 282.1133429 105.85601807 281.58076477 C97.04989475 273.59521204 91.1146238 262.01792133 86.69976807 251.14717102 C77.97041747 259.77952883 69.68246987 268.77816876 62.01226807 278.36592102 C59.33047946 281.59131543 56.50474247 284.6499612 53.63726807 287.70967102 C48.70315052 292.97460672 44.09575039 298.41946464 39.69976807 304.14717102 C45.50660025 311.26622329 52.06262251 317.62091914 58.57476807 324.08467102 C59.75208445 325.25696306 60.92916981 326.42948716 62.10601807 327.60224915 C64.96794296 330.45324084 67.83298264 333.30106717 70.69976807 336.14717102 C74.568969 332.8998181 78.2978872 329.64471309 81.76226807 325.95967102 C86.27531339 321.44662569 89.83098602 319.03235478 96.32867432 318.82685852 C101.96202655 318.89022351 105.86826707 320.64460704 110.76226807 323.27217102 C117.76015406 326.82839358 124.68640804 329.77412953 132.18048096 332.11836243 C137.00816729 333.68374463 141.01781179 335.4912361 143.8081665 339.89741516 C144.93871033 342.75008804 145.02365857 345.1594481 145.11383057 348.22529602 C145.16724609 349.79392395 145.16724609 349.79392395 145.22174072 351.39424133 C145.25573975 352.71520813 145.28973877 354.03617493 145.32476807 355.39717102 C145.44851807 359.60467102 145.57226807 363.81217102 145.69976807 368.14717102 C156.25976807 368.14717102 166.81976807 368.14717102 177.69976807 368.14717102 C177.86990426 359.86113261 177.86990426 359.86113261 177.99761963 351.57441711 C178.32478584 340.45248793 178.32478584 340.45248793 182.69976807 336.14717102 C187.96575711 332.72128611 194.05485115 330.83068488 199.94976807 328.77217102 C205.6316801 326.75725011 210.96157682 324.61783237 216.26226807 321.70967102 C221.38283451 319.04211336 225.98275261 317.74299179 231.69976807 319.14717102 C237.36474231 321.87426327 241.31627484 325.38270049 245.63726807 329.89717102 C246.2257251 330.49916321 246.81418213 331.1011554 247.42047119 331.72138977 C248.85393636 333.1898175 250.27786907 334.66754079 251.69976807 336.14717102 C256.95151733 331.76274576 261.8319928 327.13875009 266.63726807 322.27217102 C267.32111572 321.58381165 268.00496338 320.89545227 268.70953369 320.18623352 C270.37528271 318.50883591 272.03863027 316.82913311 273.69976807 315.14717102 C270.45241515 311.27797009 267.19731013 307.54905189 263.51226807 304.08467102 C258.99922274 299.57162569 256.58495182 296.01595306 256.37945557 289.51826477 C256.44282056 283.88491254 258.19720408 279.97867202 260.82476807 275.08467102 C264.38099063 268.08678503 267.32672658 261.16053105 269.67095947 253.66645813 C271.23634168 248.8387718 273.04383314 244.8291273 277.45001221 242.03877258 C280.30268509 240.90822876 282.71204514 240.82328052 285.77789307 240.73310852 C286.82364502 240.69749817 287.86939697 240.66188782 288.94683838 240.62519836 C290.26780518 240.59119934 291.58877197 240.55720032 292.94976807 240.52217102 C297.15726807 240.39842102 301.36476807 240.27467102 305.69976807 240.14717102 C305.69976807 229.58717102 305.69976807 219.02717102 305.69976807 208.14717102 C297.41372966 207.97703483 297.41372966 207.97703483 289.12701416 207.84931946 C278.00508497 207.52215325 278.00508497 207.52215325 273.69976807 203.14717102 C270.27388315 197.88118198 268.38328193 191.79208793 266.32476807 185.89717102 C264.30984716 180.21525899 262.17042941 174.88536227 259.26226807 169.58467102 C256.59471041 164.46410458 255.29558883 159.86418647 256.69976807 154.14717102 C259.42686032 148.48219678 262.93529753 144.53066424 267.44976807 140.20967102 C268.35275635 139.32698547 268.35275635 139.32698547 269.27398682 138.4264679 C270.74241455 136.99300273 272.22013783 135.56907002 273.69976807 134.14717102 C269.31534281 128.89542176 264.69134714 124.01494629 259.82476807 119.20967102 C258.792229 118.18389954 258.792229 118.18389954 257.73883057 117.1374054 C256.06143296 115.47165638 254.38173016 113.80830882 252.69976807 112.14717102 C248.83056714 115.39452394 245.10164893 118.64962895 241.63726807 122.33467102 C237.12422274 126.84771635 233.56855011 129.26198726 227.07086182 129.46748352 C221.43750959 129.40411853 217.53126907 127.649735 212.63726807 125.02217102 C205.63938207 121.46594846 198.71312809 118.52021251 191.21905518 116.17597961 C186.39136884 114.61059741 182.38172434 112.80310595 179.59136963 108.39692688 C178.4608258 105.544254 178.37587756 103.13489395 178.28570557 100.06904602 C178.23229004 98.50041809 178.23229004 98.50041809 178.17779541 96.90010071 C178.14379639 95.57913391 178.10979736 94.25816711 178.07476807 92.89717102 C177.95101807 88.68967102 177.82726807 84.48217102 177.69976807 80.14717102 C167.13976807 80.14717102 156.57976807 80.14717102 145.69976807 80.14717102 Z " fill="#000000" transform="translate(142.30023193359375,31.852828979492188)"/>
</svg>
