<?xml version="1.0" encoding="UTF-8"?>
<svg version="1.1" xmlns="http://www.w3.org/2000/svg" width="512" height="512">
<path d="M0 0 C5.37564015 5.88760588 6.48988784 14.05266884 8.09155273 21.65380859 C8.32066975 22.71670042 8.54978676 23.77959225 8.78584671 24.87469292 C9.54921729 28.42305946 10.30386488 31.97322369 11.05859375 35.5234375 C11.60547617 38.07366472 12.15291981 40.62377165 12.70088196 43.17376709 C13.87857295 48.65816956 15.05191779 54.14348682 16.22229004 59.62945557 C17.9150064 67.56357177 19.61455844 75.49621106 21.31615281 83.42842746 C22.11014931 87.12976705 22.90390491 90.8311583 23.69760132 94.53256226 C23.85665132 95.27428621 24.01570133 96.01601017 24.17957103 96.78021061 C25.32304836 102.11347175 26.46524311 107.44700666 27.60684204 112.78067017 C32.29096697 134.66451447 36.99268476 156.54452175 41.70703125 178.421875 C41.95158778 179.55680319 41.95158778 179.55680319 42.20108485 180.71465921 C43.80975529 188.18003145 45.41871778 195.6453407 47.02792495 203.11059725 C49.0487546 212.48547949 51.06849468 221.8605961 53.08764648 231.23583984 C53.30745428 232.25644076 53.30745428 232.25644076 53.53170264 233.29765987 C54.2433869 236.60214592 54.95505198 239.9066361 55.66670799 243.21112823 C56.94405209 249.14223733 58.22154004 255.07331544 59.49902344 261.00439453 C59.91615878 262.94109074 60.33329346 264.8777871 60.75042725 266.81448364 C60.92054195 267.60430193 61.09065666 268.39412022 61.26592636 269.20787239 C61.44366781 270.03310056 61.44366781 270.03310056 61.625 270.875 C69.73592619 248.94918019 77.78046933 227.0023681 85.65609741 204.99090576 C88.10269896 198.15433968 90.56006481 191.3216333 93.015625 184.48828125 C93.97725119 181.81202524 94.93882461 179.13575028 95.90039062 176.45947266 C96.24736354 175.49385595 96.24736354 175.49385595 96.60134602 174.50873184 C98.08926064 170.3675288 99.57524907 166.22563829 101.06054688 162.08349609 C102.82085564 157.17682889 104.58915692 152.27312539 106.36477661 147.37197876 C106.98883114 145.64546472 107.61006077 143.91792659 108.22824097 142.18930054 C109.06523791 139.84997165 109.91211048 137.51446007 110.76171875 135.1796875 C110.99610657 134.51716476 111.23049438 133.85464203 111.47198486 133.17204285 C113.83133678 126.75688009 116.91010301 121.73255547 122.625 117.875 C127.17945687 116.05321725 132.12044757 116.35301242 136.6875 117.9375 C144.5627043 123.13178369 148.15934861 131.24233648 152.25 139.4375 C153.48108276 141.86562828 154.71921506 144.29014268 155.95703125 146.71484375 C156.41981728 147.62459961 156.41981728 147.62459961 156.89195251 148.55273438 C159.80214989 154.26035269 162.84865143 159.88760528 165.9375 165.5 C166.90772831 167.26813248 167.87778452 169.0363594 168.84765625 170.8046875 C169.30930176 171.64612305 169.77094727 172.48755859 170.24658203 173.35449219 C172.4772611 177.43340305 174.68424476 181.52452447 176.875 185.625 C177.44988159 186.68968506 177.44988159 186.68968506 178.03637695 187.77587891 C180.625 192.6425145 180.625 192.6425145 180.625 194.875 C181.285 194.875 181.945 194.875 182.625 194.875 C182.73875977 194.16158447 182.85251953 193.44816895 182.96972656 192.71313477 C183.6704121 189.67831012 184.73359033 187.25694874 186.109375 184.46484375 C186.62540283 183.40773193 187.14143066 182.35062012 187.6730957 181.26147461 C188.23472412 180.12331299 188.79635254 178.98515137 189.375 177.8125 C190.57509578 175.35585642 191.7702035 172.89680036 192.96484375 170.4375 C193.27121262 169.80782822 193.57758148 169.17815643 193.89323425 168.52940369 C196.98600705 162.15984511 199.96986326 155.74122129 202.9375 149.3125 C208.10393251 138.13419009 213.32649048 126.98364329 218.57849121 115.8453064 C222.23785887 108.08406901 225.89007646 100.31980983 229.5078125 92.5390625 C229.82035477 91.86726959 230.13289703 91.19547668 230.45491028 90.50332642 C231.92106612 87.35124617 233.38506648 84.19821451 234.84545898 81.04345703 C235.89492215 78.78527303 236.95161094 76.53043052 238.01611328 74.27929688 C239.15207817 71.87567101 240.26728612 69.46718343 241.37060547 67.04882812 C241.9636075 65.7873319 242.55749651 64.52625218 243.15234375 63.265625 C243.6743335 62.13672852 244.19632324 61.00783203 244.73413086 59.84472656 C247.49082529 55.51516801 250.80677558 53.48107481 255.625 51.875 C261.24099916 51.50673776 264.80165989 51.65943993 269.625 54.875 C273.43804759 58.96056682 275.45903461 62.26383618 277.2109375 67.6484375 C277.42924728 68.30780807 277.64755707 68.96717865 277.8724823 69.64653015 C278.5954196 71.84345389 279.29790114 74.04633613 280 76.25 C280.51468442 77.83157869 281.03025248 79.41287005 281.54663086 80.99389648 C287.50304775 99.31599594 293.19735346 117.72453413 298.90608215 136.12493896 C301.93438459 145.88247278 304.99502559 155.6297224 308.0625 165.375 C308.53396664 166.87376952 309.00540333 168.37254845 309.47680664 169.87133789 C310.52574642 173.20603617 311.57518789 176.54057623 312.625 179.875 C312.91165527 178.91630005 312.91165527 178.91630005 313.20410156 177.93823242 C314.09109486 174.97865279 314.98302458 172.02058174 315.875 169.0625 C316.17535156 168.05767578 316.47570312 167.05285156 316.78515625 166.01757812 C323.20503845 144.77732957 323.20503845 144.77732957 329.625 140.875 C335.41837196 138.78877617 340.71257421 138.5681523 346.8359375 138.57421875 C347.80350983 138.56993362 348.77108215 138.5656485 349.76797485 138.56123352 C351.80689718 138.55551227 353.84583991 138.55497363 355.88476562 138.55932617 C358.98343176 138.56248312 362.08113934 138.53900932 365.1796875 138.51367188 C367.16926964 138.51139817 369.15885432 138.51069572 371.1484375 138.51171875 C372.52230118 138.49790413 372.52230118 138.49790413 373.92391968 138.48381042 C380.21753706 138.52847648 387.33859739 138.942264 392.25204468 143.32695007 C396.70074035 148.54550771 396.96609344 152.21421078 396.91015625 158.88671875 C396.43481716 163.86801195 394.20739469 166.48441073 390.5625 169.6875 C386.44122615 172.21344204 382.3527624 172.08720123 377.67578125 172.19140625 C376.90316452 172.21218735 376.13054779 172.23296844 375.33451843 172.25437927 C372.8689352 172.31971038 370.40324639 172.37868315 367.9375 172.4375 C366.26496309 172.48070087 364.59243681 172.52431566 362.91992188 172.56835938 C358.8217225 172.6753749 354.72341704 172.77668857 350.625 172.875 C350.37079285 173.77622589 350.11658569 174.67745178 349.85467529 175.60598755 C347.45355657 184.11321847 345.04125544 192.61720891 342.6180687 201.11818123 C341.37274455 205.48835577 340.13133901 209.85956378 338.89892578 214.23339844 C337.70866132 218.45709085 336.50805633 222.67771856 335.30033112 226.89645004 C334.84216756 228.50368012 334.38769241 230.11196652 333.93703461 231.72131729 C333.30347188 233.98137354 332.65670402 236.23726252 332.00683594 238.49267578 C331.82485153 239.15370804 331.64286713 239.8147403 331.45536804 240.49580383 C329.80255647 246.1427159 327.38948152 250.39123145 322.875 254.1875 C317.56467849 256.94478232 313.09131134 257.60127647 307.4375 255.8125 C303.35992927 254.36174326 300.81748787 251.4995729 298.625 247.875 C296.71004928 243.34613958 295.23477875 238.68317261 293.75 234 C293.27911527 232.54903171 292.80732456 231.09835719 292.3347168 229.64794922 C290.7404035 224.73130542 289.18018915 219.80413748 287.625 214.875 C287.20513824 213.545896 287.20513824 213.545896 286.77679443 212.18994141 C283.04093495 200.35537107 279.34805249 188.50756579 275.66758728 176.65567017 C271.7005063 163.88721114 267.69298735 151.13145105 263.6875 138.375 C262.97562879 136.10694569 262.26379506 133.83887961 261.55200195 131.57080078 C259.90998537 126.33876751 258.26764416 121.10683626 256.625 115.875 C250.89432417 127.21431935 245.36048379 138.63566954 239.9375 150.125 C239.14139144 151.80844708 238.34524832 153.49187781 237.54907227 155.17529297 C232.50221215 165.85510266 227.50563408 176.55715373 222.54614258 187.27783203 C217.94869515 197.20553785 213.29344548 207.10551806 208.625 217 C208.07922806 218.15825287 208.07922806 218.15825287 207.52243042 219.33990479 C205.52101423 223.58627622 203.51197175 227.82882955 201.48822021 232.06460571 C200.69578181 233.72655237 199.91029117 235.39180716 199.12548828 237.05737305 C198.69478027 237.95238525 198.26407227 238.84739746 197.8203125 239.76953125 C197.46469238 240.51565674 197.10907227 241.26178223 196.74267578 242.03051758 C194.36135738 245.96036915 190.90143239 247.44952254 186.625 248.875 C181.41711198 249.49066118 176.75301991 249.34972877 172.22436523 246.37451172 C165.70442443 240.26163179 161.89161968 229.92275041 157.75 222.125 C157.10753127 220.91868093 156.46486743 219.71246575 155.82202148 218.50634766 C154.81256477 216.6121239 153.80340422 214.7177464 152.79533386 212.82278442 C150.61708011 208.72947631 148.42719801 204.64261693 146.2286377 200.56018066 C144.73959686 197.79486472 143.25376138 195.02783306 141.76824951 192.26062012 C141.04910698 190.92273153 140.32861169 189.58556918 139.60675049 188.24914551 C138.59988324 186.38427407 137.59819325 184.51671088 136.59765625 182.6484375 C136.02281494 181.58028809 135.44797363 180.51213867 134.85571289 179.41162109 C133.625 176.875 133.625 176.875 133.625 174.875 C132.965 174.875 132.305 174.875 131.625 174.875 C131.37476074 176.1343335 131.12452148 177.39366699 130.86669922 178.69116211 C129.62700157 184.24855575 127.7382392 189.48590376 125.7578125 194.81640625 C125.37126999 195.87174561 124.98472748 196.92708496 124.58647156 198.0144043 C123.75037264 200.29573432 122.91178116 202.57615207 122.07095337 204.85574341 C120.02770218 210.39600591 117.99941666 215.94174045 115.97131538 221.48756218 C115.50154684 222.77191607 115.03156808 224.05619308 114.5613842 225.34039497 C109.86049427 238.1806051 105.26012124 251.05570815 100.68136597 263.93997192 C97.01205638 274.25741259 93.32038328 284.56687452 89.625 294.875 C89.22095947 296.00286926 88.81691895 297.13073853 88.40063477 298.29278564 C86.0476178 304.85565483 83.68024388 311.41302707 81.2918396 317.96310425 C80.56420581 319.96407203 79.84081146 321.9665873 79.12197876 323.97073364 C78.13606152 326.71671496 77.13462265 329.4565318 76.12890625 332.1953125 C75.84642029 332.99256241 75.56393433 333.78981232 75.27288818 334.61122131 C73.20659285 340.16178173 70.7049212 344.98658116 65.484375 348.1875 C59.7266398 350.06409518 55.28396994 350.19826826 49.625 347.875 C42.50020907 343.38902052 41.04346003 336.99943094 39.25558472 329.22674561 C38.77594773 327.01546769 38.30300539 324.80273097 37.83544922 322.58886719 C37.57232626 321.36728566 37.3092033 320.14570414 37.03810692 318.88710499 C36.31503787 315.52437568 35.59743597 312.16056546 34.88215733 308.7961762 C34.11276356 305.18394837 33.33621657 301.5732583 32.56048584 297.96238708 C31.22780247 291.75450556 29.89943355 285.54571409 28.57403564 279.33627319 C26.67075745 270.41980085 24.76039326 261.50485876 22.84790587 252.59035766 C20.00586043 239.34286472 17.16710515 226.0946705 14.33101869 212.84590065 C8.81252766 187.06721173 3.27071801 161.29355683 -2.281744 135.5221653 C-3.91787813 127.92796448 -5.55199638 120.33333409 -7.18427277 112.73830318 C-8.18743483 108.07193887 -9.19197374 103.40587176 -10.19689178 98.73988533 C-10.65951204 96.59052842 -11.12156614 94.44104957 -11.58301544 92.29144096 C-12.20662261 89.38690949 -12.83228715 86.48282888 -13.45849609 83.57885742 C-13.64003801 82.73085949 -13.82157993 81.88286156 -14.00862312 81.00916672 C-14.67955715 77.90602185 -15.37014596 74.88956211 -16.375 71.875 C-16.71942139 72.77887451 -17.06384277 73.68274902 -17.41870117 74.61401367 C-22.0344268 86.71509014 -26.69663815 98.79801664 -31.375 110.875 C-31.81156921 112.00321167 -32.24813843 113.13142334 -32.69793701 114.29382324 C-35.48487521 121.49213905 -38.28641535 128.68453823 -41.10440063 135.87075806 C-42.0325612 138.24286377 -42.95671665 140.61654063 -43.87680054 142.99179077 C-45.18040123 146.35438123 -46.49857692 149.71090996 -47.8203125 153.06640625 C-48.20630112 154.07109955 -48.59228973 155.07579285 -48.98997498 156.1109314 C-51.4435295 162.2825149 -53.71504675 167.64008296 -59.59594727 171.23120117 C-63.68427461 172.17830819 -67.65558785 172.18014424 -71.83984375 172.17578125 C-72.75077286 172.18006638 -73.66170197 172.1843515 -74.60023499 172.18876648 C-76.52246267 172.19449698 -78.44471204 172.19501949 -80.36694336 172.19067383 C-83.29904363 172.1875145 -86.23013375 172.21098672 -89.16210938 172.23632812 C-91.0338529 172.2386014 -92.90559912 172.23930448 -94.77734375 172.23828125 C-96.08541237 172.25209587 -96.08541237 172.25209587 -97.41990662 172.26618958 C-102.48799374 172.22789184 -105.99003565 171.69664021 -110.375 168.875 C-115.25607733 163.46623864 -115.7293966 160.01672868 -115.65234375 152.859375 C-115.27833603 148.83484118 -114.14891295 146.79490837 -111.375 143.875 C-106.0383463 139.67380454 -101.73646766 138.73838323 -95.07421875 138.77734375 C-94.09775391 138.78056641 -93.12128906 138.78378906 -92.11523438 138.78710938 C-91.10783203 138.79548828 -90.10042969 138.80386719 -89.0625 138.8125 C-88.03576172 138.81701172 -87.00902344 138.82152344 -85.95117188 138.82617188 C-83.42572118 138.83791816 -80.90039095 138.85434435 -78.375 138.875 C-78.03339844 137.61558594 -77.69179687 136.35617188 -77.33984375 135.05859375 C-75.04081413 127.41609031 -71.98946451 120.06161615 -69.02642822 112.65847778 C-67.12238198 107.90071009 -65.23248746 103.13731224 -63.33984375 98.375 C-62.93975098 97.369496 -62.5396582 96.363992 -62.12744141 95.32801819 C-57.81240252 84.47758941 -53.54981047 73.60672865 -49.29147339 62.73394775 C-48.00678328 59.45481413 -46.72053229 56.17629684 -45.43383789 52.89794922 C-41.87083171 43.81718548 -38.31371806 34.73458513 -34.8046875 25.6328125 C-34.29235481 24.30908604 -33.77983208 22.98543311 -33.26708984 21.66186523 C-32.37846877 19.3642608 -31.49540489 17.0644941 -30.61962891 14.76196289 C-27.59192015 6.95119364 -25.02402224 1.08976736 -17.375 -3.125 C-11.3879246 -5.39037988 -5.17617255 -3.25907161 0 0 Z " fill="#000000" transform="translate(115.375,83.125)"/>
</svg>
