<?xml version="1.0" encoding="UTF-8"?>
<svg version="1.1" xmlns="http://www.w3.org/2000/svg" width="512" height="512">
<path d="M0 0 C21.78 0 43.56 0 66 0 C66 12.21 66 24.42 66 37 C68.97 37.66 71.94 38.32 75 39 C77.54348218 39.89649422 80.06664894 40.85336849 82.5625 41.875 C83.20872314 42.13676025 83.85494629 42.39852051 84.52075195 42.66821289 C88.00648886 44.09943971 91.3695602 45.65426269 94.6875 47.4375 C97.67203809 49.15965777 97.67203809 49.15965777 99.86816406 48.91821289 C103.00028539 47.56916246 105.08647601 45.28144527 107.421875 42.87109375 C107.92672424 42.36199966 108.43157349 41.85290558 108.95172119 41.3283844 C110.55833979 39.7050088 112.15419822 38.071503 113.75 36.4375 C114.83914984 35.3332995 115.92898605 34.22977555 117.01953125 33.12695312 C119.6877076 30.4257471 122.34628291 27.71540937 125 25 C128.53239023 26.50684968 130.7962166 28.55366612 133.49316406 31.26611328 C134.37377502 32.14687531 135.25438599 33.02763733 136.16168213 33.93508911 C137.11310431 34.89672351 138.06441603 35.8584672 139.015625 36.8203125 C139.99596129 37.80438107 140.97674168 38.78800742 141.95794678 39.77120972 C144.53354467 42.35442714 147.10307857 44.94359512 149.67138672 47.53405762 C152.29551067 50.1786762 154.92533771 52.8176101 157.5546875 55.45703125 C162.7087167 60.63248072 167.85635157 65.81423122 173 71 C171.22856398 74.81761164 169.0271239 77.12006926 165.95703125 80.02734375 C164.95581145 80.9935516 163.95517759 81.96036693 162.95507812 82.92773438 C161.38101625 84.43973028 159.80287502 85.94656633 158.21411133 87.44311523 C156.67737259 88.89528464 155.16009556 90.36563232 153.64453125 91.83984375 C152.73034424 92.70988037 151.81615723 93.57991699 150.87426758 94.47631836 C148.71668273 96.82661021 148.71668273 96.82661021 149.11669922 99.61328125 C150.31952972 102.8633838 151.77903972 105.95964832 153.3125 109.0625 C161 125.05691878 161 125.05691878 161 132 C173.21 132 185.42 132 198 132 C198 153.78 198 175.56 198 198 C185.79 198 173.58 198 161 198 C160.34 200.97 159.68 203.94 159 207 C158.10350578 209.54348218 157.14663151 212.06664894 156.125 214.5625 C155.86323975 215.20872314 155.60147949 215.85494629 155.33178711 216.52075195 C153.90056029 220.00648886 152.34573731 223.3695602 150.5625 226.6875 C148.84034223 229.67203809 148.84034223 229.67203809 149.08178711 231.86816406 C150.43083754 235.00028539 152.71855473 237.08647601 155.12890625 239.421875 C155.63800034 239.92672424 156.14709442 240.43157349 156.6716156 240.95172119 C158.2949912 242.55833979 159.928497 244.15419822 161.5625 245.75 C162.6667005 246.83914984 163.77022445 247.92898605 164.87304688 249.01953125 C167.5742529 251.6877076 170.28459063 254.34628291 173 257 C171.49315032 260.53239023 169.44633388 262.7962166 166.73388672 265.49316406 C165.85312469 266.37377502 164.97236267 267.25438599 164.06491089 268.16168213 C163.10327649 269.11310431 162.1415328 270.06441603 161.1796875 271.015625 C160.19561893 271.99596129 159.21199258 272.97674168 158.22879028 273.95794678 C155.64557286 276.53354467 153.05640488 279.10307857 150.46594238 281.67138672 C147.8213238 284.29551067 145.1823899 286.92533771 142.54296875 289.5546875 C137.36751928 294.7087167 132.18576878 299.85635157 127 305 C123.18238836 303.22856398 120.87993074 301.0271239 117.97265625 297.95703125 C117.0064484 296.95581145 116.03963307 295.95517759 115.07226562 294.95507812 C113.56026972 293.38101625 112.05343367 291.80287502 110.55688477 290.21411133 C109.10471536 288.67737259 107.63436768 287.16009556 106.16015625 285.64453125 C105.29011963 284.73034424 104.42008301 283.81615723 103.52368164 282.87426758 C101.17338979 280.71668273 101.17338979 280.71668273 98.38671875 281.11669922 C95.1366162 282.31952972 92.04035168 283.77903972 88.9375 285.3125 C72.94308122 293 72.94308122 293 66 293 C66 305.21 66 317.42 66 330 C44.22 330 22.44 330 0 330 C0 317.79 0 305.58 0 293 C-2.97 292.34 -5.94 291.68 -9 291 C-11.50190069 290.12497627 -13.98336701 289.18870172 -16.4375 288.1875 C-17.63246094 287.70667969 -18.82742187 287.22585938 -20.05859375 286.73046875 C-24.78358659 284.65596743 -29.38445123 282.30777439 -34 280 C-42.25 288.25 -50.5 296.5 -59 305 C-62.74049738 303.12975131 -64.60348271 301.64017543 -67.49316406 298.73388672 C-68.37377502 297.85312469 -69.25438599 296.97236267 -70.16168213 296.06491089 C-71.11310431 295.10327649 -72.06441603 294.1415328 -73.015625 293.1796875 C-73.99596129 292.19561893 -74.97674168 291.21199258 -75.95794678 290.22879028 C-78.53354467 287.64557286 -81.10307857 285.05640488 -83.67138672 282.46594238 C-86.29551067 279.8213238 -88.92533771 277.1823899 -91.5546875 274.54296875 C-96.7087167 269.36751928 -101.85635157 264.18576878 -107 259 C-105.22856398 255.18238836 -103.0271239 252.87993074 -99.95703125 249.97265625 C-98.95581145 249.0064484 -97.95517759 248.03963307 -96.95507812 247.07226562 C-95.38101625 245.56026972 -93.80287502 244.05343367 -92.21411133 242.55688477 C-90.67737259 241.10471536 -89.16009556 239.63436768 -87.64453125 238.16015625 C-86.73034424 237.29011963 -85.81615723 236.42008301 -84.87426758 235.52368164 C-82.71668273 233.17338979 -82.71668273 233.17338979 -83.11669922 230.38671875 C-84.31952972 227.1366162 -85.77903972 224.04035168 -87.3125 220.9375 C-95 204.94308122 -95 204.94308122 -95 198 C-107.21 198 -119.42 198 -132 198 C-132 176.22 -132 154.44 -132 132 C-119.79 132 -107.58 132 -95 132 C-94.34 129.03 -93.68 126.06 -93 123 C-92.10350578 120.45651782 -91.14663151 117.93335106 -90.125 115.4375 C-89.86323975 114.79127686 -89.60147949 114.14505371 -89.33178711 113.47924805 C-87.90056029 109.99351114 -86.34573731 106.6304398 -84.5625 103.3125 C-82.84034223 100.32796191 -82.84034223 100.32796191 -83.08178711 98.13183594 C-84.43083754 94.99971461 -86.71855473 92.91352399 -89.12890625 90.578125 C-89.63800034 90.07327576 -90.14709442 89.56842651 -90.6716156 89.04827881 C-92.2949912 87.44166021 -93.928497 85.84580178 -95.5625 84.25 C-96.6667005 83.16085016 -97.77022445 82.07101395 -98.87304688 80.98046875 C-101.5742529 78.3122924 -104.28459063 75.65371709 -107 73 C-105.49315032 69.46760977 -103.44633388 67.2037834 -100.73388672 64.50683594 C-99.85312469 63.62622498 -98.97236267 62.74561401 -98.06491089 61.83831787 C-97.10327649 60.88689569 -96.1415328 59.93558397 -95.1796875 58.984375 C-94.19561893 58.00403871 -93.21199258 57.02325832 -92.22879028 56.04205322 C-89.64557286 53.46645533 -87.05640488 50.89692143 -84.46594238 48.32861328 C-81.8213238 45.70448933 -79.1823899 43.07466229 -76.54296875 40.4453125 C-71.36751928 35.2912833 -66.18576878 30.14364843 -61 25 C-57.18238836 26.77143602 -54.87993074 28.9728761 -51.97265625 32.04296875 C-51.0064484 33.04418855 -50.03963307 34.04482241 -49.07226562 35.04492188 C-47.56026972 36.61898375 -46.05343367 38.19712498 -44.55688477 39.78588867 C-43.10471536 41.32262741 -41.63436768 42.83990444 -40.16015625 44.35546875 C-39.29011963 45.26965576 -38.42008301 46.18384277 -37.52368164 47.12573242 C-35.17338979 49.28331727 -35.17338979 49.28331727 -32.38671875 48.88330078 C-29.1366162 47.68047028 -26.04035168 46.22096028 -22.9375 44.6875 C-6.94308122 37 -6.94308122 37 0 37 C0 24.79 0 12.58 0 0 Z M-16 121 C-29.23720511 137.47249645 -33.28233504 154.23402343 -32 175 C-30.00316962 191.1380201 -20.49111362 205.82830113 -8.3125 216.25 C7.10520789 227.89096704 23.95526979 231.65589723 43 230 C60.35680862 227.54976364 75.65229721 217.69960124 86.15234375 203.79296875 C96.77332233 187.73800113 100.8739223 169.83535165 97.30859375 150.765625 C93.22545564 134.02305034 83.45698162 119.55049205 69 110 C40.76578814 93.68325198 6.85380564 96.31039686 -16 121 Z " fill="#000000" transform="translate(223,91)"/>
<path d="M0 0 C0.96988861 0.00182281 1.93977722 0.00364563 2.9390564 0.00552368 C17.29056055 0.05091691 31.25442918 0.5562653 45.375 3.3125 C46.72053955 3.55395752 46.72053955 3.55395752 48.09326172 3.80029297 C85.54463752 10.57708459 120.58770702 26.0976911 151.375 48.3125 C152.69099281 49.25318283 154.00738765 50.19330352 155.32421875 51.1328125 C156.33097656 51.85210937 157.33773438 52.57140625 158.375 53.3125 C158.43034912 52.62099854 158.48569824 51.92949707 158.54272461 51.21704102 C158.79463531 48.10262786 159.05347351 44.98882905 159.3125 41.875 C159.39951172 40.78638672 159.48652344 39.69777344 159.57617188 38.57617188 C159.66318359 37.54169922 159.75019531 36.50722656 159.83984375 35.44140625 C159.918396 34.48306885 159.99694824 33.52473145 160.07788086 32.53735352 C160.375 30.3125 160.375 30.3125 161.375 29.3125 C171.43754136 29.49169594 181.43138412 30.85974477 191.375 32.3125 C191.59045653 40.28367925 190.91658156 48.0563192 190.0625 55.9765625 C189.92932373 57.24978363 189.79614746 58.52300476 189.65893555 59.83480835 C189.30753047 63.18553402 188.95169845 66.53572669 188.59362793 69.88574219 C188.22790303 73.31796115 187.86812393 76.75080302 187.5078125 80.18359375 C186.8022951 86.89381022 186.09092526 93.60338641 185.375 100.3125 C176.80434084 101.22641817 168.23356293 102.13921216 159.66263008 103.05056 C155.68306761 103.47374309 151.70354759 103.89731741 147.72412109 104.32177734 C143.8857667 104.7311756 140.0473054 105.13955728 136.20876694 105.54722595 C134.74226887 105.7031564 133.27581009 105.85945687 131.80939102 106.01612854 C129.75991078 106.23503115 127.71029641 106.45263314 125.66064453 106.66992188 C124.49260284 106.79427612 123.32456116 106.91863037 122.12112427 107.04675293 C119.375 107.3125 119.375 107.3125 117.375 107.3125 C115.68356263 96.9503934 114.89044174 86.79314866 114.375 76.3125 C122.79 74.8275 122.79 74.8275 131.375 73.3125 C95.27707743 49.89441851 54.76555409 32.37905515 10.95703125 32.109375 C10.18587982 32.10231537 9.41472839 32.09525574 8.62020874 32.08798218 C-7.98217413 31.97059559 -24.29540446 31.94366963 -40.625 35.3125 C-41.60645996 35.51117676 -42.58791992 35.70985352 -43.59912109 35.91455078 C-79.61875272 43.41279002 -111.86051817 58.42035183 -140.625 81.3125 C-141.48085693 81.9926416 -141.48085693 81.9926416 -142.35400391 82.68652344 C-155.5083655 93.24549208 -167.30177514 105.03312412 -177.35009766 118.59326172 C-178.5877098 120.26221322 -179.84553819 121.91427553 -181.10546875 123.56640625 C-206.69234641 157.66361356 -223.42612459 202.14328294 -223.86328125 244.9921875 C-223.8730751 245.7942865 -223.88286896 246.5963855 -223.89295959 247.42279053 C-224.23392672 282.64149112 -219.39418546 315.73919757 -204.91796875 348.16015625 C-203.625 351.3125 -203.625 351.3125 -203.625 354.3125 C-207.69897855 356.35260939 -211.78551848 358.36617126 -215.875 360.375 C-217.03386719 360.95572266 -218.19273437 361.53644531 -219.38671875 362.13476562 C-221.05927734 362.95170898 -221.05927734 362.95170898 -222.765625 363.78515625 C-223.79204102 364.29312744 -224.81845703 364.80109863 -225.87597656 365.32446289 C-228.625 366.3125 -228.625 366.3125 -230.84545898 366.265625 C-233.43942293 364.87629378 -233.87924219 363.30188237 -234.95703125 360.58984375 C-235.35970215 359.58856445 -235.76237305 358.58728516 -236.17724609 357.55566406 C-236.59312988 356.46479492 -237.00901367 355.37392578 -237.4375 354.25 C-237.87400879 353.1269043 -238.31051758 352.00380859 -238.76025391 350.84667969 C-245.62485285 332.82175041 -250.73966197 314.39146685 -253.625 295.3125 C-253.88990234 293.62882324 -253.88990234 293.62882324 -254.16015625 291.91113281 C-255.8170586 280.29802257 -256.02373513 268.78070055 -256 257.0625 C-255.99945618 256.05048523 -255.99891235 255.03847046 -255.99835205 253.99578857 C-255.95761956 237.46719428 -255.05424222 221.53336001 -251.625 205.3125 C-251.40537598 204.27061523 -251.18575195 203.22873047 -250.95947266 202.15527344 C-240.86185215 155.86200689 -218.50271242 113.44836279 -185.625 79.3125 C-184.99287598 78.65314453 -184.36075195 77.99378906 -183.70947266 77.31445312 C-174.56502521 67.82619695 -165.26765991 59.0862956 -154.625 51.3125 C-153.47394983 50.45443848 -152.32290823 49.59636549 -151.171875 48.73828125 C-142.98224019 42.70072604 -134.47961724 37.31792698 -125.625 32.3125 C-124.91778809 31.9103125 -124.21057617 31.508125 -123.48193359 31.09375 C-97.33439144 16.37245949 -68.31333558 6.67328667 -38.625 2.3125 C-37.42037109 2.13517334 -36.21574219 1.95784668 -34.97460938 1.77514648 C-23.31732646 0.176175 -11.75313902 -0.0459053 0 0 Z " fill="#000000" transform="translate(255.625,-0.3125)"/>
<path d="M0 0 C2.59396394 1.38933122 3.03378321 2.96374263 4.11157227 5.67578125 C4.51424316 6.67706055 4.91691406 7.67833984 5.33178711 8.70996094 C5.95561279 10.34626465 5.95561279 10.34626465 6.59204102 12.015625 C7.2468042 13.70026855 7.2468042 13.70026855 7.91479492 15.41894531 C14.77942391 33.44395349 19.89394992 51.87413937 22.77954102 70.953125 C22.95614258 72.07485107 23.13274414 73.19657715 23.31469727 74.35229492 C24.97533257 85.98637967 25.17827411 97.52625435 25.15454102 109.265625 C25.15372528 110.78656265 25.15372528 110.78656265 25.15289307 112.33822632 C25.1130007 128.54745321 24.19637675 144.05954444 20.77954102 159.953125 C20.55991699 161.01176758 20.34029297 162.07041016 20.11401367 163.16113281 C10.2484744 209.89851419 -12.06402172 252.52787124 -45.22045898 286.953125 C-45.85258301 287.61248047 -46.48470703 288.27183594 -47.13598633 288.95117188 C-56.28043377 298.43942805 -65.57779908 307.1793294 -76.22045898 314.953125 C-77.37150915 315.81118652 -78.52255076 316.66925951 -79.67358398 317.52734375 C-87.8632188 323.56489896 -96.36584174 328.94769802 -105.22045898 333.953125 C-105.9276709 334.3553125 -106.63488281 334.7575 -107.36352539 335.171875 C-133.51106755 349.89316551 -162.5321234 359.59233833 -192.22045898 363.953125 C-193.42508789 364.13045166 -194.6297168 364.30777832 -195.87084961 364.49047852 C-207.52813252 366.08945 -219.09231996 366.3115303 -230.84545898 366.265625 C-232.3002919 366.26289078 -232.3002919 366.26289078 -233.78451538 366.26010132 C-248.13601954 366.21470809 -262.09988816 365.7093597 -276.22045898 362.953125 C-277.11748535 362.79215332 -278.01451172 362.63118164 -278.9387207 362.46533203 C-316.3900965 355.68854041 -351.43316601 340.1679339 -382.22045898 317.953125 C-383.53645179 317.01244217 -384.85284664 316.07232148 -386.16967773 315.1328125 C-387.17643555 314.41351563 -388.18319336 313.69421875 -389.22045898 312.953125 C-389.27580811 313.64462646 -389.33115723 314.33612793 -389.38818359 315.04858398 C-389.6400943 318.16299714 -389.8989325 321.27679595 -390.15795898 324.390625 C-390.2449707 325.47923828 -390.33198242 326.56785156 -390.42163086 327.68945312 C-390.50864258 328.72392578 -390.5956543 329.75839844 -390.68530273 330.82421875 C-390.76385498 331.78255615 -390.84240723 332.74089355 -390.92333984 333.72827148 C-391.22045898 335.953125 -391.22045898 335.953125 -392.22045898 336.953125 C-394.01971485 336.91125552 -395.81733489 336.79519879 -397.61108398 336.6484375 C-398.71323242 336.55949219 -399.81538086 336.47054688 -400.95092773 336.37890625 C-402.6930957 336.23001953 -402.6930957 336.23001953 -404.47045898 336.078125 C-405.61643555 335.98660156 -406.76241211 335.89507812 -407.94311523 335.80078125 C-412.77452579 335.40144464 -417.47758865 334.98716207 -422.22045898 333.953125 C-422.43591649 325.98190987 -421.76220454 318.20942753 -420.90795898 310.2890625 C-420.79000977 309.15895752 -420.67206055 308.02885254 -420.55053711 306.86450195 C-420.11281684 302.68511519 -419.66612179 298.50667229 -419.22045898 294.328125 C-417.73545898 280.2825 -417.73545898 280.2825 -416.22045898 265.953125 C-382.56045898 262.488125 -382.56045898 262.488125 -348.22045898 258.953125 C-345.92107627 275.04880401 -345.92107627 275.04880401 -345.59545898 282.328125 C-345.47170898 284.844375 -345.34795898 287.360625 -345.22045898 289.953125 C-350.83045898 290.943125 -356.44045898 291.933125 -362.22045898 292.953125 C-326.08764645 316.28971006 -285.60254028 333.886622 -241.80249023 334.15625 C-240.64576309 334.16683945 -240.64576309 334.16683945 -239.46566772 334.17764282 C-222.86328485 334.29502941 -206.55005452 334.32195537 -190.22045898 330.953125 C-188.74826904 330.65510986 -188.74826904 330.65510986 -187.24633789 330.35107422 C-135.82949154 319.64758289 -87.48096494 291.95265162 -55.22045898 249.953125 C-54.78878418 249.39254395 -54.35710937 248.83196289 -53.91235352 248.25439453 C-46.98340912 239.20027869 -40.85065322 229.8618461 -35.22045898 219.953125 C-34.88449707 219.37691406 -34.54853516 218.80070313 -34.20239258 218.20703125 C-17.60044313 189.64941172 -7.31996756 154.38267622 -6.98217773 121.2734375 C-6.97238388 120.4713385 -6.96259003 119.6692395 -6.95249939 118.84283447 C-6.61153226 83.62413388 -11.45127353 50.52642743 -25.92749023 18.10546875 C-27.22045898 14.953125 -27.22045898 14.953125 -27.22045898 11.953125 C-23.14648043 9.91301561 -19.0599405 7.89945374 -14.97045898 5.890625 C-13.8115918 5.30990234 -12.65272461 4.72917969 -11.45874023 4.13085938 C-10.34370117 3.58623047 -9.22866211 3.04160156 -8.07983398 2.48046875 C-6.54020996 1.71851196 -6.54020996 1.71851196 -4.96948242 0.94116211 C-2.22045898 -0.046875 -2.22045898 -0.046875 0 0 Z " fill="#000000" transform="translate(487.220458984375,146.046875)"/>
</svg>
