<?xml version="1.0" encoding="UTF-8"?>
<svg version="1.1" xmlns="http://www.w3.org/2000/svg" width="512" height="512">
<path d="M0 0 C0.68368652 0.20898926 1.36737305 0.41797852 2.07177734 0.63330078 C31.23312042 9.83887964 57.1417972 30.93837842 71.35766602 58.09228516 C72.99175715 61.35733023 74.51712342 64.66396538 76 68 C76.72316406 69.59908203 76.72316406 69.59908203 77.4609375 71.23046875 C81.45896573 80.78939078 82.78216833 89.46529956 85 100 C114.7 100.495 114.7 100.495 145 101 C145 149.51 145 198.02 145 248 C125.2 248 105.4 248 85 248 C85.804375 255.30125 85.804375 255.30125 86.625 262.75 C87.71622062 283.99175133 78.12452475 300.61549585 68.16064453 318.80371094 C67.56197067 319.89940399 66.96329681 320.99509705 66.34648132 322.12399292 C65.20116368 324.19778758 64.03661271 326.26111062 62.85041809 328.3117981 C62.32993393 329.23741547 61.80944977 330.16303284 61.27319336 331.11669922 C60.80908554 331.91856659 60.34497772 332.72043396 59.86680603 333.54660034 C58.59098217 336.52811766 58.59098217 336.52811766 60 342 C68.25 358.5 76.5 375 85 392 C85 430.28 85 468.56 85 508 C5.8 508 -73.4 508 -155 508 C-155 374.15384615 -155 374.15384615 -131.27319336 343.61376953 C-129.52451575 341.12452149 -129.01799149 340.26007497 -128.80273438 337.1484375 C-130.60354345 332.41286779 -133.05735703 328.13498236 -135.56640625 323.7421875 C-150.39905539 296.86070425 -158.2572259 279.00879058 -155 248 C-174.8 248 -194.6 248 -215 248 C-215 199.49 -215 150.98 -215 101 C-195.2 100.67 -175.4 100.34 -155 100 C-153.02 90.595 -153.02 90.595 -151 81 C-149.8592281 77.43356109 -148.7635956 74.15752005 -147.3125 70.75 C-146.97001221 69.92556396 -146.62752441 69.10112793 -146.2746582 68.25170898 C-140.53829656 54.85215986 -132.80385203 43.72117151 -123 33 C-122.28328125 32.20078125 -121.5665625 31.4015625 -120.828125 30.578125 C-110.14368876 19.25101591 -97.12754702 11.27973358 -83 5 C-81.93394531 4.51789062 -80.86789063 4.03578125 -79.76953125 3.5390625 C-55.54947712 -6.59099816 -25.06899036 -7.84345059 0 0 Z M-97.51123047 51.54248047 C-116.40189324 70.03661899 -124.4301444 93.48747266 -125.0893116 119.52831459 C-125.12195274 123.34243515 -125.12408673 127.15579599 -125.11352539 130.9699707 C-125.11321821 132.44336284 -125.11335398 133.91675513 -125.11389065 135.39014721 C-125.11411412 139.29485784 -125.10836706 143.19953711 -125.10128021 147.10424042 C-125.09553635 150.78380927 -125.09531445 154.46337093 -125.09460449 158.14294434 C-125.08938117 168.86613363 -125.07541991 179.58931722 -125.0625 190.3125 C-125.041875 214.299375 -125.02125 238.28625 -125 263 C-65.6 263 -6.2 263 55 263 C55.04125 239.11625 55.0825 215.2325 55.125 190.625 C55.14320801 183.11443848 55.16141602 175.60387695 55.18017578 167.86572266 C55.1868692 161.06816192 55.1868692 161.06816192 55.19088745 154.27059937 C55.19273287 151.26885962 55.20015538 148.26719232 55.21115112 145.26547241 C55.40611616 98.9733285 55.40611616 98.9733285 34 59 C33.00226563 57.78957031 33.00226563 57.78957031 31.984375 56.5546875 C16.71289703 38.59147421 -5.02428409 28.55159482 -28.27978516 26.38330078 C-54.28955229 24.50207584 -78.58321955 33.76198395 -97.51123047 51.54248047 Z M-185 131 C-185 159.71 -185 188.42 -185 218 C-175.1 218 -165.2 218 -155 218 C-155 189.29 -155 160.58 -155 131 C-164.9 131 -174.8 131 -185 131 Z M85 131 C85 159.71 85 188.42 85 218 C94.9 218 104.8 218 115 218 C115 189.29 115 160.58 115 131 C105.1 131 95.2 131 85 131 Z M-115 293 C-110.21384916 303.10409621 -105.35372958 313.18482911 -100 323 C-57.1 323 -14.2 323 30 323 C35.20720342 313.1063135 40.37354244 303.17820664 45 293 C-7.8 293 -60.6 293 -115 293 Z M-100 353 C-105.20720342 362.8936865 -110.37354244 372.82179336 -115 383 C-62.2 383 -9.4 383 45 383 C40.21384916 372.89590379 35.35372958 362.81517089 30 353 C-12.9 353 -55.8 353 -100 353 Z M-125 413 C-125 434.45 -125 455.9 -125 478 C-65.6 478 -6.2 478 55 478 C55 456.55 55 435.1 55 413 C-4.4 413 -63.8 413 -125 413 Z " fill="#000000" transform="translate(291,4)"/>
</svg>
