<?xml version="1.0" encoding="UTF-8"?>
<svg version="1.1" xmlns="http://www.w3.org/2000/svg" width="512" height="522">
<path d="M0 0 C4.0349625 3.2842718 6.35966089 6.11333657 6.92578125 11.421875 C6.95027344 12.25203125 6.97476562 13.0821875 7 13.9375 C7.03738281 14.75734375 7.07476562 15.5771875 7.11328125 16.421875 C5.76783479 25.16110519 -1.59831119 30.78910794 -7.625 36.625 C-13.12763233 41.99725637 -18.53878381 47.3360046 -23.53588867 53.18383789 C-27.86464291 58.06580656 -32.63708852 62.54645521 -37.28515625 67.12109375 C-40.91589172 70.71686227 -44.48307357 74.30896956 -47.8125 78.1875 C-52.64382386 83.81562757 -58.00247378 88.92186598 -63.28515625 94.12109375 C-66.90548987 97.70656059 -70.46357054 101.28691892 -73.78125 105.15625 C-78.81859239 111.0243736 -84.42422504 116.34233362 -89.9296875 121.765625 C-94.30535484 126.10139264 -98.50296406 130.48874673 -102.51171875 135.1640625 C-106.85667549 140.04624816 -111.62920377 144.53869502 -116.28515625 149.12109375 C-119.91589172 152.71686227 -123.48307357 156.30896956 -126.8125 160.1875 C-131.64382386 165.81562757 -137.00247378 170.92186598 -142.28515625 176.12109375 C-145.90548987 179.70656059 -149.46357054 183.28691892 -152.78125 187.15625 C-157.81859239 193.0243736 -163.42422504 198.34233362 -168.9296875 203.765625 C-173.30535484 208.10139264 -177.50296406 212.48874673 -181.51171875 217.1640625 C-185.85667549 222.04624816 -190.62920377 226.53869502 -195.28515625 231.12109375 C-198.91589172 234.71686227 -202.48307357 238.30896956 -205.8125 242.1875 C-210.64382386 247.81562757 -216.00247378 252.92186598 -221.28515625 258.12109375 C-224.90548987 261.70656059 -228.46357054 265.28691892 -231.78125 269.15625 C-236.81859239 275.0243736 -242.42422504 280.34233362 -247.9296875 285.765625 C-251.5736324 289.37634244 -255.18394187 292.9583293 -258.5 296.875 C-262.12147497 301.12946151 -266.09113241 305.02165326 -270.05078125 308.95703125 C-270.74901001 309.65300415 -271.44723877 310.34897705 -272.16662598 311.06604004 C-273.88078535 312.77433653 -275.59610506 314.48145018 -277.3125 316.1875 C-276.07921439 316.18839563 -276.07921439 316.18839563 -274.82101393 316.18930936 C-226.10394866 316.22519419 -177.38694519 316.28181913 -128.66993722 316.36542095 C-122.82195059 316.37543855 -116.97396367 316.38528266 -111.12597656 316.39501953 C-109.37961465 316.39793159 -109.37961465 316.39793159 -107.59797269 316.40090248 C-88.74052239 316.43193344 -69.88308427 316.4489062 -51.02561325 316.46069422 C-31.67972755 316.47310009 -12.33390581 316.50058876 7.01193953 316.54211307 C18.95178281 316.56726457 30.89152005 316.58061607 42.8313902 316.57892957 C51.01621273 316.57889984 59.20092715 316.59350519 67.38570756 316.61966428 C72.10968781 316.63432883 76.83344635 316.64249722 81.55744553 316.63330269 C85.88308994 316.62502587 90.20828858 316.63514271 94.53386682 316.65983662 C96.09791899 316.66552816 97.66201329 316.66449253 99.22605282 316.65601245 C113.93362757 316.58310765 113.93362757 316.58310765 120.6875 321.1875 C124.85664657 326.42565851 126.23477424 330.51075422 125.6875 337.1875 C123.87757388 342.45989347 121.45297618 346.13270757 116.6875 349.1875 C113.24759099 350.33413634 110.6015739 350.31645717 106.97160912 350.32172108 C106.28198749 350.32407331 105.59236586 350.32642554 104.88184661 350.32884905 C102.55389569 350.3355452 100.22600052 350.33508064 97.89804077 350.33467102 C96.21894642 350.33796927 94.53985287 350.34169475 92.86076033 350.3458125 C88.23307059 350.35584516 83.60539383 350.35955133 78.97769475 350.36220181 C73.99183807 350.36610113 69.00599171 350.37567974 64.0201416 350.38441467 C51.97230231 350.40418996 39.92446216 350.41424679 27.8766107 350.42314246 C22.2054253 350.42752375 16.53424084 350.43289099 10.86305618 350.43813133 C-7.98541635 350.45514492 -26.83388829 350.46963948 -45.68236732 350.47688007 C-50.57519151 350.47879002 -55.46801568 350.48071035 -60.36083984 350.48266602 C-61.57695337 350.48314976 -62.7930669 350.4836335 -64.04603235 350.4841319 C-83.74976324 350.49243359 -103.45343344 350.51777229 -123.15713783 350.55024669 C-143.37884939 350.58330356 -163.60053011 350.60132761 -183.82226884 350.60452431 C-195.17911374 350.60669072 -206.53587016 350.6154584 -217.89268875 350.64098549 C-227.56408931 350.66267375 -237.2353799 350.67075213 -246.90680201 350.66101871 C-251.84157314 350.65646855 -256.77611728 350.65840189 -261.71085739 350.67778015 C-266.23007114 350.69537343 -270.74889166 350.69444527 -275.26810937 350.67888286 C-276.90141739 350.67650095 -278.53475237 350.68086053 -280.16801913 350.69271151 C-291.95526064 350.77292939 -300.69542106 349.49096312 -309.51953125 341.23046875 C-315.02681638 334.9552833 -317.69523317 327.50885982 -317.3125 319.1875 C-315.60609607 304.39866595 -304.86199292 295.45151802 -294.75 285.5625 C-292.7451965 283.59467363 -290.74378458 281.62348422 -288.74609375 279.6484375 C-288.26502167 279.17295471 -287.78394958 278.69747192 -287.28829956 278.20758057 C-284.05030672 274.9834142 -281.0277338 271.63560458 -278.06274414 268.16259766 C-273.74426962 263.28932957 -268.97839192 258.81917562 -264.33984375 254.25390625 C-260.70910828 250.65813773 -257.14192643 247.06603044 -253.8125 243.1875 C-248.98117614 237.55937243 -243.62252622 232.45313402 -238.33984375 227.25390625 C-234.71951013 223.66843941 -231.16142946 220.08808108 -227.84375 216.21875 C-222.80640761 210.3506264 -217.20077496 205.03266638 -211.6953125 199.609375 C-207.31964516 195.27360736 -203.12203594 190.88625327 -199.11328125 186.2109375 C-194.76832451 181.32875184 -189.99579623 176.83630498 -185.33984375 172.25390625 C-181.70910828 168.65813773 -178.14192643 165.06603044 -174.8125 161.1875 C-169.98117614 155.55937243 -164.62252622 150.45313402 -159.33984375 145.25390625 C-155.71951013 141.66843941 -152.16142946 138.08808108 -148.84375 134.21875 C-143.80640761 128.3506264 -138.20077496 123.03266638 -132.6953125 117.609375 C-128.31964516 113.27360736 -124.12203594 108.88625327 -120.11328125 104.2109375 C-115.76832451 99.32875184 -110.99579623 94.83630498 -106.33984375 90.25390625 C-102.70910828 86.65813773 -99.14192643 83.06603044 -95.8125 79.1875 C-90.98117614 73.55937243 -85.62252622 68.45313402 -80.33984375 63.25390625 C-76.71951013 59.66843941 -73.16142946 56.08808108 -69.84375 52.21875 C-64.80640761 46.3506264 -59.20077496 41.03266638 -53.6953125 35.609375 C-49.34645794 31.30017565 -45.16351538 26.94360046 -41.17578125 22.29980469 C-37.21915857 17.81438809 -33.00783917 13.57311319 -28.8125 9.3125 C-27.90113281 8.36375 -26.98976563 7.415 -26.05078125 6.4375 C-25.15746094 5.53257813 -24.26414062 4.62765625 -23.34375 3.6953125 C-22.54517578 2.87691895 -21.74660156 2.05852539 -20.92382812 1.21533203 C-14.35194566 -3.88807632 -7.01800537 -3.84004067 0 0 Z " fill="#000000" transform="translate(360.3125,74.8125)"/>
<path d="M0 0 C0.91007812 -0.04898438 1.82015625 -0.09796875 2.7578125 -0.1484375 C8.17648707 0.76146525 12.12346877 3.24210282 15.61523438 7.49414062 C17.36274613 10.05010978 18.9761417 12.65354321 20.5625 15.3125 C21.15699951 16.27889404 21.75149902 17.24528809 22.36401367 18.2409668 C24.22089561 21.27407852 26.04987849 24.32269223 27.875 27.375 C29.03376449 29.28911679 30.1926165 31.2031806 31.3515625 33.1171875 C34.58999122 38.50016524 37.75471841 43.92277463 40.875 49.375 C41.29088379 50.09929199 41.70676758 50.82358398 42.13525391 51.56982422 C62.03058885 86.58461353 71.52111268 125.01226365 78.25 164.375 C78.38359924 165.14358337 78.51719849 165.91216675 78.65484619 166.70404053 C82.50833907 189.04782782 82.50833907 189.04782782 79.1875 195.8125 C72.592133 203.12087965 72.592133 203.12087965 67.703125 203.578125 C62.32690538 203.67587445 58.44790487 203.53248194 53.875 200.375 C48.68533617 194.89702151 47.50093914 189.10717383 46.359375 181.83203125 C46.07853752 180.11379676 45.79735525 178.39561859 45.51586914 176.67749023 C45.37085968 175.78117889 45.22585022 174.88486755 45.07644653 173.96139526 C36.55626402 121.60947275 19.91062022 77.66588562 -8.91015625 33.05859375 C-9.33014893 32.40834229 -9.7501416 31.75809082 -10.18286133 31.08813477 C-11.28728137 29.3852516 -12.40105705 27.68844602 -13.515625 25.9921875 C-16.17363488 21.66969571 -16.45950021 18.3925032 -16.125 13.375 C-14.30198367 7.50083628 -11.95861931 4.87166077 -7.125 1.375 C-4.63321323 0.12910662 -2.784601 0.10083513 0 0 Z " fill="#000000" transform="translate(362.125,157.625)"/>
</svg>
