<?xml version="1.0" encoding="UTF-8"?>
<svg version="1.1" xmlns="http://www.w3.org/2000/svg" width="512" height="512">
<path d="M0 0 C2.32606242 1.86317434 4.38404186 3.90587388 6.4375 6.0625 C6.99606689 6.63613281 7.55463379 7.20976563 8.13012695 7.80078125 C13.07909372 12.94685281 17.61725858 18.36504674 22 24 C22.76441406 24.94746094 23.52882813 25.89492187 24.31640625 26.87109375 C50.04411264 59.28882973 68.16437027 97.43015271 77.3125 137.75 C77.55516602 138.81387939 77.79783203 139.87775879 78.04785156 140.97387695 C81.40521059 156.52481258 82.38300191 171.82551313 82.3125 187.6875 C82.30926727 189.0036882 82.30926727 189.0036882 82.30596924 190.34646606 C82.25320129 203.76462338 81.7686201 216.82808013 79 230 C78.79600586 230.98387695 78.59201172 231.96775391 78.38183594 232.98144531 C67.64672868 283.40675989 40.95701922 347.02606663 -3 378 C-9.00181018 380.93642283 -15.92820856 381.13142957 -22.34765625 379.34765625 C-28.6672364 376.51054223 -32.85914241 371.90400113 -35.375 365.5 C-36.57490157 358.7805512 -36.43950213 353.03823706 -33 347 C-30.20134814 343.47126505 -27.1224789 340.24238209 -24 337 C-11.43497791 323.87341267 -0.75759847 308.90658517 8 293 C8.46647949 292.15985352 8.93295898 291.31970703 9.41357422 290.45410156 C23.54886354 264.79898282 33.08241957 238.08949648 37 209 C37.13148438 208.05769531 37.26296875 207.11539063 37.3984375 206.14453125 C43.10674401 156.38969745 24.66720966 104.17007304 -4 64 C-4.45068848 63.35998047 -4.90137695 62.71996094 -5.36572266 62.06054688 C-11.60882425 53.24420167 -18.32536439 45.17836249 -25.92456055 37.49047852 C-31.63957265 31.6378842 -35.60911972 26.0814436 -36.25 17.75 C-35.73746118 10.06191763 -32.75552795 4.15542551 -27 -1 C-18.38196951 -6.3431789 -8.347758 -5.29998318 0 0 Z " fill="#000000" transform="translate(430,68)"/>
<path d="M0 0 C5.30564721 3.1391746 8.75573583 7.22482756 11 12.9375 C12.19990157 19.6569488 12.06450213 25.39926294 8.625 31.4375 C5.82634814 34.96623495 2.7474789 38.19511791 -0.375 41.4375 C-12.94002209 54.56408733 -23.61740153 69.53091483 -32.375 85.4375 C-33.07471924 86.69771973 -33.07471924 86.69771973 -33.78857422 87.98339844 C-47.92386354 113.63851718 -57.45741957 140.34800352 -61.375 169.4375 C-61.50648437 170.37980469 -61.63796875 171.32210937 -61.7734375 172.29296875 C-67.48174401 222.04780255 -49.04220966 274.26742696 -20.375 314.4375 C-19.92431152 315.07751953 -19.47362305 315.71753906 -19.00927734 316.37695312 C-12.76617575 325.19329833 -6.04963561 333.25913751 1.54956055 340.94702148 C7.26457265 346.7996158 11.23411972 352.3560564 11.875 360.6875 C11.36246118 368.37558237 8.38052795 374.28207449 2.625 379.4375 C-3.20973937 383.05503841 -9.62783827 383.49669597 -16.375 382.4375 C-22.29151414 380.27117317 -26.51399914 376.88946224 -30.8125 372.375 C-31.37106689 371.80136719 -31.92963379 371.22773438 -32.50512695 370.63671875 C-37.45409372 365.49064719 -41.99225858 360.07245326 -46.375 354.4375 C-47.52162109 353.01630859 -47.52162109 353.01630859 -48.69140625 351.56640625 C-74.41911264 319.14867027 -92.53937027 281.00734729 -101.6875 240.6875 C-102.05149902 239.09168091 -102.05149902 239.09168091 -102.42285156 237.46362305 C-105.78021059 221.91268742 -106.75800191 206.61198687 -106.6875 190.75 C-106.68534485 189.8725412 -106.6831897 188.9950824 -106.68096924 188.09103394 C-106.62820129 174.67287662 -106.1436201 161.60941987 -103.375 148.4375 C-103.17100586 147.45362305 -102.96701172 146.46974609 -102.75683594 145.45605469 C-92.00483061 94.95136591 -65.26931221 31.36724742 -21.375 0.4375 C-14.85388012 -2.75299832 -6.66584131 -2.9925646 0 0 Z " fill="#000000" transform="translate(106.375,65.5625)"/>
<path d="M0 0 C15.51489087 13.75611782 25.68754047 35.32876242 27 56 C28.36722207 82.18230256 19.64436988 104.35543671 2.2890625 123.9296875 C-12.31703383 139.35866249 -34.0259167 148.06140557 -54.9921875 149.15625 C-80.72059134 149.85634262 -103.04483756 140.27338711 -121.6875 122.625 C-137.82384841 105.77231837 -145.43662498 82.93002585 -145.21484375 59.9140625 C-143.91784773 36.28515322 -134.02942619 15.06215193 -116.87890625 -1.359375 C-82.81388841 -31.10429702 -33.54556031 -29.33775484 0 0 Z M-90.875 35.015625 C-98.84061168 45.13195184 -102.21833045 56.16067138 -101 69 C-98.92342211 80.01374856 -93.89174118 89.43612899 -85 96.4375 C-74.07636645 103.84082195 -62.8722313 106.86135149 -49.7265625 104.3828125 C-37.24308772 101.03214112 -28.31915105 94.04785827 -21.82421875 83 C-16.25340635 72.62816019 -15.45891738 61.76755119 -18.5 50.4375 C-22.53571306 38.58614545 -30.14552369 30.58004099 -41 24.75 C-58.31114783 16.69830333 -77.92858308 21.09822681 -90.875 35.015625 Z " fill="#000000" transform="translate(315,193)"/>
<path d="M0 0 C4.15895795 2.25027909 7.1656983 5.10417854 10.29296875 8.61328125 C10.8449292 9.22171875 11.39688965 9.83015625 11.96557617 10.45703125 C18.00846215 17.27900148 23.12473688 24.66559851 27.98046875 32.36328125 C28.35010742 32.9454541 28.71974609 33.52762695 29.10058594 34.12744141 C42.19763512 55.05254257 49.55793583 79.0362127 52.98046875 103.36328125 C53.07473145 104.02948486 53.16899414 104.69568848 53.26611328 105.38208008 C59.14657737 151.51584619 45.54439742 198.57116747 17.4375 235.296875 C2.87039558 253.47680659 2.87039558 253.47680659 -7.0859375 254.7578125 C-14.44617448 255.12454505 -20.34535343 254.30454444 -26.01953125 249.36328125 C-31.55758934 242.52058447 -32.82131817 236.03933373 -32.01953125 227.36328125 C-30.62239917 221.9255226 -27.16093692 218.32183385 -23.39453125 214.30078125 C2.27485774 186.8949336 9.8472418 151.48404158 9.11669922 114.9296875 C8.09756668 88.24960123 -3.60816526 59.88277287 -21.9765625 40.5390625 C-28.76491623 33.30940088 -32.53992676 27.2527054 -32.3359375 17.1484375 C-31.57876962 10.48349058 -28.11573599 5.61011853 -23.01953125 1.36328125 C-16.57173248 -3.31137286 -7.10928854 -3.25039693 0 0 Z " fill="#000000" transform="translate(373.01953125,129.63671875)"/>
<path d="M0 0 C5.2703204 3.39083114 8.05079023 8.1523707 10 14 C10.71256778 21.23081072 10.3610219 27.05417375 6 33 C4.48215604 34.70895935 2.93754376 36.39431256 1.375 38.0625 C-24.29438899 65.46834765 -31.86677305 100.87923967 -31.13623047 137.43359375 C-30.11709793 164.11368002 -18.41136599 192.48050838 -0.04296875 211.82421875 C6.74538498 219.05388037 10.52039551 225.11057585 10.31640625 235.21484375 C9.55923837 241.87979067 6.09620474 246.75316272 1 251 C-4.55837327 255.02982062 -11.40474603 254.95834926 -18 254 C-23.99645144 251.86894999 -28.12860433 248.44473935 -32.3125 243.75 C-32.86446045 243.1415625 -33.4164209 242.533125 -33.98510742 241.90625 C-40.0279934 235.08427977 -45.14426813 227.69768274 -50 220 C-50.36963867 219.41782715 -50.73927734 218.8356543 -51.12011719 218.23583984 C-64.21716637 197.31073868 -71.57746708 173.32706855 -75 149 C-75.14139404 148.00069458 -75.14139404 148.00069458 -75.28564453 146.98120117 C-81.16610862 100.84743506 -67.56392867 53.79211378 -39.45703125 17.06640625 C-29.29058027 4.37854612 -17.86253943 -8.79707701 0 0 Z " fill="#000000" transform="translate(161,130)"/>
</svg>
