<?xml version="1.0" encoding="UTF-8"?>
<svg version="1.1" xmlns="http://www.w3.org/2000/svg" width="512" height="512">
<path d="M0 0 C1.18637054 0.42984192 2.37274109 0.85968384 3.59506226 1.30255127 C6.82218381 2.47219151 10.04462981 3.65423866 13.26631927 4.83874512 C16.6685742 6.08720434 20.07506016 7.32401941 23.48095703 8.5625 C31.92044545 11.63457241 40.35169903 14.72890655 48.78125 17.828125 C49.440681 18.07049896 50.100112 18.31287292 50.77952576 18.56259155 C62.45728347 22.854826 74.13210079 27.15502449 85.80175781 31.46923828 C100.92444282 37.05771902 116.06987336 42.5758305 131.26904297 47.953125 C140.85041869 51.35457349 150.36338689 54.92663038 159.86621094 58.54052734 C161.22066928 59.05504991 162.57515113 59.56951061 163.92965698 60.08390808 C167.21379229 61.33126805 170.49760983 62.57946207 173.78125 63.828125 C173.85160222 86.67373501 173.90436579 109.51932693 173.93668652 132.36502361 C173.95209827 142.97475004 173.97307776 153.58440882 174.00756836 164.1940918 C174.03764625 173.4508619 174.05686626 182.70758297 174.06351548 191.96440059 C174.06739687 196.85730207 174.07639715 201.75006338 174.09844017 206.64291954 C174.26719615 245.59919177 174.26719615 245.59919177 170.78125 262.828125 C170.57775436 263.92024796 170.37425873 265.01237091 170.16459656 266.1375885 C169.70698219 268.53571063 169.17881344 270.89571841 168.59375 273.265625 C168.38580811 274.11503662 168.17786621 274.96444824 167.96362305 275.83959961 C160.24551931 306.01890398 145.56062458 334.53898581 124.78125 357.828125 C123.92144531 358.79621094 123.06164062 359.76429688 122.17578125 360.76171875 C112.7411191 371.26556428 102.91481761 381.11291429 91.78125 389.828125 C90.79640625 390.61832031 89.8115625 391.40851563 88.796875 392.22265625 C61.89671615 413.60385636 29.94489746 429.84901382 -2.53125 440.828125 C-3.81068481 441.26427124 -3.81068481 441.26427124 -5.1159668 441.70922852 C-26.85788582 448.81877792 -51.26705833 435.56188532 -70.71875 425.765625 C-72.60243674 424.79082134 -74.47901512 423.8041308 -76.3515625 422.80810547 C-78.26172561 421.80556955 -80.18963177 420.84739412 -82.125 419.89453125 C-135.13700427 393.39811306 -180.8711202 347.09331661 -200.03125 290.390625 C-202.36948235 283.18270794 -204.31087476 275.89409462 -206.03125 268.515625 C-206.22630127 267.68168213 -206.42135254 266.84773926 -206.62231445 265.98852539 C-209.71294041 251.89597994 -210.51169507 238.03463914 -210.44580078 223.671875 C-210.445235 221.91584276 -210.44555647 220.15981005 -210.44668579 218.40377808 C-210.44725381 213.68995718 -210.43558992 208.97624047 -210.42153788 204.26244354 C-210.40893751 199.3164067 -210.40785275 194.37036682 -210.40548706 189.42431641 C-210.39929941 180.08209433 -210.38292577 170.73991972 -210.36278808 161.39771843 C-210.34034403 150.75184924 -210.32941437 140.10597764 -210.31939721 129.46009064 C-210.29855679 107.58274239 -210.26343425 85.7054367 -210.21875 63.828125 C-184.68862268 54.22370839 -184.68862268 54.22370839 -173.19140625 50.09375 C-170.92250817 49.27519601 -168.65362875 48.45659033 -166.38476562 47.63793945 C-165.22887939 47.22146149 -164.07299316 46.80498352 -162.88208008 46.37588501 C-156.54605549 44.09234506 -150.21197618 41.80343823 -143.87890625 39.51171875 C-143.22926533 39.27663794 -142.5796244 39.04155712 -141.91029739 38.79935265 C-128.84338634 34.06890755 -115.80268178 29.26841151 -102.76754761 24.45111084 C-95.74090162 21.85633901 -88.7103585 19.27213433 -81.68040466 16.68634033 C-74.58455775 14.07420232 -67.4961477 11.44283036 -60.41162109 8.80015564 C-55.78472855 7.07862567 -51.15215373 5.37280122 -46.51806641 3.67074585 C-44.34334403 2.8681592 -42.17106329 2.05892075 -40.00146484 1.24258423 C-37.01754435 0.1207197 -34.02585647 -0.97735358 -31.03125 -2.0703125 C-30.16516113 -2.40246262 -29.29907227 -2.73461273 -28.40673828 -3.076828 C-18.00318248 -6.80674386 -10.0410677 -3.71377075 0 0 Z M-25.36791992 31.5144043 C-26.40709061 31.88788498 -27.44626129 32.26136566 -28.516922 32.64616394 C-29.64957993 33.06070328 -30.78223785 33.47524261 -31.94921875 33.90234375 C-33.14266403 34.33360062 -34.33610931 34.76485748 -35.5657196 35.20918274 C-38.83283767 36.39016949 -42.09693141 37.57931651 -45.36049652 38.77008057 C-48.10159187 39.769032 -50.84443502 40.7631336 -53.58729935 41.7572155 C-75.1471363 49.57175446 -96.6678031 57.49296434 -118.17651367 65.44702148 C-134.13679699 71.34614621 -150.12860441 77.14992194 -166.16748047 82.83203125 C-167.29740921 83.23394684 -167.29740921 83.23394684 -168.45016479 83.64398193 C-169.83724256 84.13723272 -171.22515219 84.62815304 -172.61404419 85.11627197 C-175.65664635 86.05505588 -175.65664635 86.05505588 -178.21875 87.828125 C-178.31707764 89.49139301 -178.34506996 91.1588557 -178.34573364 92.82502747 C-178.34855347 93.90816727 -178.35137329 94.99130707 -178.35427856 96.10726929 C-178.35225433 97.3065506 -178.3502301 98.50583191 -178.34814453 99.74145508 C-178.34989685 100.99694656 -178.35164917 102.25243805 -178.35345459 103.54597473 C-178.35803409 107.00583546 -178.35623495 110.46566653 -178.3530755 113.92552781 C-178.35054411 117.55970226 -178.35289259 121.19387416 -178.35446167 124.82804871 C-178.35628548 130.95250909 -178.35387613 137.07695746 -178.34912109 143.20141602 C-178.34372414 150.2327818 -178.34540661 157.26411838 -178.3509475 164.29548341 C-178.35552819 170.35521655 -178.35610387 176.41494104 -178.35350883 182.47467536 C-178.35196704 186.08253084 -178.35169256 189.69037276 -178.35504532 193.29822731 C-178.65223548 222.70671477 -178.65223548 222.70671477 -175.53125 251.890625 C-175.35827393 252.89101807 -175.18529785 253.89141113 -175.00708008 254.92211914 C-173.24948726 264.52739063 -170.58073053 273.67109821 -167.21875 282.828125 C-166.96254883 283.53984863 -166.70634766 284.25157227 -166.44238281 284.98486328 C-160.34924143 301.64734966 -151.42445333 317.08348037 -140.21875 330.828125 C-139.60894287 331.58802734 -139.60894287 331.58802734 -138.98681641 332.36328125 C-127.85526139 346.19172198 -115.48249217 358.26836109 -101.21875 368.828125 C-100.66783691 369.24513672 -100.11692383 369.66214844 -99.54931641 370.09179688 C-79.47496768 385.27935372 -56.74999063 396.35625984 -33.54199219 405.87109375 C-31.55323748 406.69033697 -29.57610287 407.53769179 -27.6015625 408.390625 C-20.14807855 411.33329918 -15.58799221 410.69553442 -8.21875 407.828125 C-6.46498047 407.21710938 -6.46498047 407.21710938 -4.67578125 406.59375 C48.390998 387.89861468 96.82335126 352.53819604 122.78125 301.828125 C123.11495605 301.18520508 123.44866211 300.54228516 123.79248047 299.87988281 C141.31010754 265.77746699 141.95917942 228.60135863 141.88264394 191.14560604 C141.87629238 187.49951816 141.87579745 183.85342899 141.87461853 180.20733643 C141.87153937 173.337297 141.8633732 166.46727394 141.85326904 159.59724164 C141.84200033 151.76137903 141.83657065 143.92551554 141.83157361 136.08964682 C141.82118678 120.00246338 141.80365521 103.91529629 141.78125 87.828125 C139.9022768 87.0384807 138.02259374 86.25052541 136.1426239 85.46325684 C134.57261895 84.80478886 134.57261895 84.80478886 132.97089672 84.13301849 C128.00816251 82.10274989 122.97375232 80.28979184 117.92578125 78.484375 C116.81001709 78.08229828 115.69425293 77.68022156 114.54467773 77.26596069 C112.14509287 76.4013546 109.74506583 75.53797488 107.34463501 74.67572021 C100.8730816 72.35065976 94.40507895 70.01577706 87.9375 67.6796875 C87.27223612 67.43948002 86.60697224 67.19927254 85.92154884 66.95178604 C72.33541563 62.04477203 58.78020822 57.05576665 45.23114014 52.04745483 C21.61594194 43.30600902 21.61594194 43.30600902 -2.05728149 34.72344971 C-3.95584533 34.04266357 -5.85235802 33.35616551 -7.7487793 32.66943359 C-8.83843994 32.28223145 -9.92810059 31.8950293 -11.05078125 31.49609375 C-11.96577393 31.16891357 -12.8807666 30.8417334 -13.82348633 30.50463867 C-18.15824692 29.28033721 -21.27484227 30.02974168 -25.36791992 31.5144043 Z " fill="#000000" transform="translate(274.21875,36.171875)"/>
<path d="M0 0 C1.11829227 0.95248515 2.23572573 1.90597867 3.35279846 2.8598938 C4.28634328 3.65619548 4.28634328 3.65619548 5.2387476 4.46858406 C7.38171525 6.33190292 9.40232519 8.28916492 11.40234375 10.3046875 C12.14677734 11.05234375 12.89121094 11.8 13.65820312 12.5703125 C14.41037109 13.33085937 15.16253906 14.09140625 15.9375 14.875 C16.71673828 15.65875 17.49597656 16.4425 18.29882812 17.25 C20.20154085 19.16438581 22.10186171 21.08108034 24 23 C18.18005861 30.12723273 11.61789784 36.51524894 5.10986328 43.00366211 C3.79843517 44.31480784 2.48722783 45.62617442 1.17622375 46.93774414 C-2.36859332 50.48284719 -5.91647709 54.02486651 -9.46493292 57.56632686 C-13.17829729 61.27342444 -16.88881507 64.98336905 -20.59963989 68.69300842 C-27.62042178 75.71068679 -34.64374808 82.72581292 -41.66799939 89.74001843 C-49.66754735 97.72837483 -57.66424358 105.71958337 -65.66070533 113.71102893 C-82.10397289 130.14385428 -98.55080611 146.57310704 -115 163 C-117.92257439 161.67958555 -119.99258209 160.25571935 -122.25238037 157.98812866 C-123.18197823 157.0626548 -123.18197823 157.0626548 -124.13035583 156.1184845 C-124.79857864 155.44307114 -125.46680145 154.76765778 -126.15527344 154.07177734 C-126.86786819 153.35947464 -127.58046295 152.64717194 -128.31465149 151.9132843 C-130.66766451 149.5588785 -133.0135151 147.19746875 -135.359375 144.8359375 C-136.98989975 143.20168245 -138.62086676 141.56786854 -140.2522583 139.93447876 C-144.54416676 135.63493527 -148.83003514 131.32941935 -153.11468506 127.02264404 C-157.48819822 122.62866977 -161.86738079 118.24035397 -166.24609375 113.8515625 C-174.83629625 105.23991236 -183.4201302 96.62194389 -192 88 C-191.04751485 86.88170773 -190.09402133 85.76427427 -189.1401062 84.64720154 C-188.60923841 84.02483832 -188.07837063 83.40247511 -187.53141594 82.7612524 C-185.66809708 80.61828475 -183.71083508 78.59767481 -181.6953125 76.59765625 C-180.94765625 75.85322266 -180.2 75.10878906 -179.4296875 74.34179688 C-178.66914063 73.58962891 -177.90859375 72.83746094 -177.125 72.0625 C-176.34125 71.28326172 -175.5575 70.50402344 -174.75 69.70117188 C-172.83561419 67.79845915 -170.91891966 65.89813829 -169 64 C-162.79652613 69.12541978 -157.14315324 74.7276906 -151.47265625 80.4296875 C-150.47396983 81.43024286 -149.47505953 82.43057481 -148.47593689 83.43069458 C-145.86808036 86.0423388 -143.26324305 88.65697367 -140.65905762 91.27227783 C-137.99264764 93.94898323 -135.32334536 96.62280102 -132.65429688 99.296875 C-127.43338899 104.52845398 -122.21567249 109.76320096 -117 115 C-113.34455432 113.4602334 -111.01734714 111.26405236 -108.22906494 108.46957397 C-107.53177627 107.77484857 -107.53177627 107.77484857 -106.82040095 107.06608832 C-105.26642721 105.51540466 -103.71970248 103.95768887 -102.17285156 102.39990234 C-101.05940486 101.28589142 -99.94551742 100.17232085 -98.83122253 99.05915833 C-95.80846597 96.03697586 -92.79191794 93.00866414 -89.77643681 89.97922468 C-86.62363764 86.81392779 -83.46517841 83.65428918 -80.30731201 80.49404907 C-74.32875506 74.50927455 -68.35531489 68.51941977 -62.3836906 62.52772868 C-55.58477111 55.70645886 -48.78017555 48.89086337 -41.97509432 42.07574153 C-27.97706563 28.05680455 -13.98618994 14.03074745 0 0 Z " fill="#000000" transform="translate(340,180)"/>
</svg>
