<?xml version="1.0" encoding="UTF-8"?>
<svg version="1.1" xmlns="http://www.w3.org/2000/svg" width="512" height="512">
<path d="M0 0 C1.97111 0.00280975 1.97111 0.00280975 3.98204041 0.00567627 C6.76687971 0.01026855 9.5514282 0.02462695 12.33618164 0.046875 C15.83553119 0.07474708 19.33465148 0.08594921 22.83410072 0.09070587 C35.52539921 0.10943854 48.2159466 0.21126587 60.8984375 0.71875 C61.74108658 0.74862 62.58373566 0.77848999 63.45191956 0.80926514 C72.45529597 1.23375312 81.16588278 1.96666403 87.77734375 8.578125 C90.81006099 13.34382352 90.8246528 17.61044525 89.77734375 23.015625 C88.94329894 26.36322952 87.95836766 28.7866 85.52734375 31.328125 C85.85734375 31.658125 86.18734375 31.988125 86.52734375 32.328125 C86.76098256 34.17704446 86.9403801 36.03300531 87.08984375 37.890625 C87.17363281 38.90253906 87.25742187 39.91445312 87.34375 40.95703125 C87.40433594 41.73949219 87.46492187 42.52195313 87.52734375 43.328125 C88.80609375 43.39 90.08484375 43.451875 91.40234375 43.515625 C96.34597764 44.02246444 99.92832671 45.85942538 104.16796875 48.3671875 C107.21852671 49.60963329 108.41213864 49.38482453 111.52734375 48.328125 C114.65417368 46.67192057 117.70664802 44.94834333 120.73632812 43.12304688 C125.59726042 40.36602579 128.93125071 39.61528266 134.52734375 40.328125 C139.6948126 43.0048473 143.72604606 47.14128457 147.90234375 51.140625 C152.53221878 55.53195183 157.16402913 59.85919253 162.109375 63.8984375 C164.91469245 66.72693939 165.87984348 69.71836193 166.08984375 73.640625 C166.04632172 79.48998643 163.61194032 84.04303913 160.84204102 89.06176758 C158.85793476 92.75915893 158.85793476 92.75915893 159.08203125 96.82421875 C159.55898438 97.65050781 160.0359375 98.47679687 160.52734375 99.328125 C161.0996875 100.44703125 161.67203125 101.5659375 162.26171875 102.71875 C162.58591797 103.33782227 162.91011719 103.95689453 163.24414062 104.59472656 C166.63647892 111.10686179 169.5786066 117.6525555 172.02734375 124.578125 C172.28225586 125.29258789 172.53716797 126.00705078 172.79980469 126.74316406 C173.96574777 130.1559596 174.52734375 132.67856718 174.52734375 136.328125 C175.43613281 136.47507812 175.43613281 136.47507812 176.36328125 136.625 C185.49955659 138.25547375 193.53491423 140.09696111 199.46875 147.64453125 C202.04964342 151.74919939 201.70557353 156.05453683 201.73046875 160.72265625 C201.73616882 161.54763107 201.7418689 162.3726059 201.7477417 163.22257996 C201.75718498 164.96844198 201.76372301 166.71432177 201.76757812 168.46020508 C201.77726961 171.12027418 201.80829287 173.77956578 201.83984375 176.43945312 C201.84637564 178.13801626 201.85162538 179.8365849 201.85546875 181.53515625 C201.86781555 182.32598099 201.88016235 183.11680573 201.8928833 183.93159485 C201.86741504 190.30186376 200.44648644 194.41175564 195.82421875 199.02734375 C192.43186476 201.64708807 188.84827609 202.92094488 184.77734375 204.140625 C184.10574219 204.35654297 183.43414062 204.57246094 182.7421875 204.79492188 C177.88461062 206.328125 177.88461062 206.328125 175.52734375 206.328125 C175.36878906 207.04355469 175.21023438 207.75898438 175.046875 208.49609375 C172.88310975 217.73692545 170.06683457 226.65486887 165.578125 235.05078125 C165.0845752 235.98108154 165.0845752 235.98108154 164.58105469 236.93017578 C163.63758476 238.67722182 162.6633028 240.40752406 161.6875 242.13671875 C160.23094096 245.27161189 160.23094096 245.27161189 161.17578125 248.4375 C162.40284077 251.06184696 163.68320128 253.60866855 165.08984375 256.140625 C168.27534484 262.4454595 169.4802715 267.26329795 167.35644531 274.09399414 C165.68075125 278.4454012 163.31914027 281.25131714 160.01171875 284.47265625 C159.47766418 285.00912277 158.94360962 285.54558929 158.39337158 286.09831238 C157.26975583 287.22095551 156.13998739 288.33747168 155.00439453 289.44799805 C153.27979785 291.13821982 151.58056434 292.85122008 149.8828125 294.56835938 C148.78137617 295.66289746 147.67855616 296.75604529 146.57421875 297.84765625 C146.07291443 298.35392044 145.57161011 298.86018463 145.05511475 299.38179016 C140.58680476 303.70577904 136.32580709 305.9614298 130.12890625 306.7734375 C124.67589659 306.0992042 120.45100755 303.57993814 115.66796875 300.99609375 C111.55775146 298.76332791 111.55775146 298.76332791 107.05859375 298.81640625 C106.22328125 299.31527344 105.38796875 299.81414062 104.52734375 300.328125 C103.15956336 301.00035896 101.78655426 301.66199795 100.41015625 302.31640625 C99.64517822 302.69015381 98.8802002 303.06390137 98.09204102 303.44897461 C97.28694092 303.84221924 96.48184082 304.23546387 95.65234375 304.640625 C94.40118774 305.25272827 94.40118774 305.25272827 93.12475586 305.87719727 C88.48761121 308.09304104 83.99555433 309.88959248 79.0378418 311.23583984 C73.22547342 312.70152719 73.22547342 312.70152719 68.85546875 316.5 C67.80731576 319.09619432 67.14056536 321.59829975 66.52734375 324.328125 C64.32377272 331.02620435 62.51129284 335.38126496 56.52734375 339.328125 C53.82999095 340.2272426 52.20174892 340.46725439 49.42651367 340.50512695 C48.60523483 340.51796219 47.78395599 340.53079742 46.93778992 340.54402161 C46.05339737 340.55140854 45.16900482 340.55879547 44.2578125 340.56640625 C43.3440535 340.574478 42.43029449 340.58254974 41.48884583 340.59086609 C39.55467622 340.60469507 37.62048233 340.61542253 35.6862793 340.62329102 C32.73634332 340.64049958 29.78752954 340.68439551 26.83789062 340.72851562 C24.95703948 340.7386434 23.07617882 340.74715924 21.1953125 340.75390625 C20.31699265 340.77141434 19.43867279 340.78892242 18.53373718 340.80696106 C13.01825308 340.7875374 9.91181022 339.9888186 5.52734375 336.328125 C1.88133452 332.57221832 0.29563147 328.56312386 -1.22265625 323.640625 C-1.44308594 322.96451172 -1.66351563 322.28839844 -1.890625 321.59179688 C-3.47265625 316.65409064 -3.47265625 316.65409064 -3.47265625 314.328125 C-5.20515625 314.01875 -5.20515625 314.01875 -6.97265625 313.703125 C-17.8130756 311.27896823 -28.21022327 306.82771062 -37.82421875 301.33203125 C-41.21456594 300.04689964 -43.00165875 300.34924084 -46.47265625 301.328125 C-48.39907249 302.29000088 -50.29520962 303.31440068 -52.16015625 304.390625 C-57.91267115 307.3417293 -63.06691091 308.94765666 -69.47265625 307.328125 C-76.75698558 304.05853208 -82.21421532 298.04629812 -87.73803711 292.45385742 C-89.28893734 290.88680453 -90.85532597 289.33652226 -92.42382812 287.78710938 C-93.42674507 286.782211 -94.42873153 285.77638292 -95.4296875 284.76953125 C-96.3266333 283.86920166 -97.2235791 282.96887207 -98.14770508 282.04125977 C-102.61770721 276.82492734 -104.16701405 272.22283229 -104.046875 265.4765625 C-103.09885699 260.27858619 -100.52398685 256.01326907 -97.90625 251.4921875 C-96.28603498 247.9162361 -96.12634637 246.94044617 -97.47265625 243.328125 C-98.67806727 240.83281153 -99.91992114 238.39575332 -101.22265625 235.953125 C-105.57514369 227.53387996 -110.47265625 217.94655415 -110.47265625 208.328125 C-111.16230469 208.15796875 -111.85195312 207.9878125 -112.5625 207.8125 C-130.76151651 203.11920082 -130.76151651 203.11920082 -136.47265625 194.328125 C-137.75701851 190.47503823 -137.67440581 186.80331815 -137.7109375 182.78515625 C-137.71900925 181.94272873 -137.72708099 181.10030121 -137.73539734 180.23234558 C-137.74922603 178.44780527 -137.75995362 176.66323865 -137.76782227 174.87866211 C-137.77932209 173.06217649 -137.79974221 171.24572414 -137.8293457 169.42944336 C-137.8722363 166.79778189 -137.88822255 164.16712485 -137.8984375 161.53515625 C-137.91594559 160.7327803 -137.93345367 159.93040436 -137.95149231 159.10371399 C-137.92403363 151.87177917 -135.77619444 146.68046696 -130.70703125 141.50390625 C-127.11184594 139.08540599 -123.83958274 137.74908529 -119.72265625 136.515625 C-118.71525391 136.19174805 -118.71525391 136.19174805 -117.6875 135.86132812 C-112.82992312 134.328125 -112.82992312 134.328125 -110.47265625 134.328125 C-110.33730469 133.6475 -110.20195313 132.966875 -110.0625 132.265625 C-107.61900506 121.26258191 -103.2972236 110.85108154 -97.47265625 101.203125 C-95.99064293 98.59242604 -95.48077683 97.51489832 -95.34765625 94.453125 C-96.40062954 91.5281992 -97.64139259 88.82217793 -98.97265625 86.015625 C-101.46362453 80.65604893 -103.73950304 75.34889621 -101.87719727 69.43823242 C-99.06618137 63.57159881 -95.1459365 59.64830718 -90.34765625 55.328125 C-89.59154053 54.63259521 -88.8354248 53.93706543 -88.05639648 53.22045898 C-71.08298678 37.72820662 -71.08298678 37.72820662 -62.66796875 37.69140625 C-57.58680207 38.70391257 -53.49548575 41.41548955 -49.18310547 44.21435547 C-45.08668434 46.79863755 -45.08668434 46.79863755 -40.32421875 47.234375 C-37.52346857 46.34427357 -34.80846856 45.40123556 -32.09765625 44.265625 C-31.22367187 43.90339844 -30.3496875 43.54117188 -29.44921875 43.16796875 C-28.79695313 42.89082031 -28.1446875 42.61367187 -27.47265625 42.328125 C-27.5809375 41.16410156 -27.5809375 41.16410156 -27.69140625 39.9765625 C-29.94133876 13.78984806 -29.94133876 13.78984806 -23.22265625 5.578125 C-15.93303539 -0.38611025 -9.09825605 -0.08979349 0 0 Z M60.72680664 14.82543945 C54.34370636 15.40962961 47.97980605 15.52367488 41.57290459 15.58848572 C39.47529394 15.60986571 37.37781649 15.63684123 35.2802887 15.66516113 C30.08408484 15.73427267 24.88778809 15.79461634 19.69146729 15.85418701 C15.27038649 15.90509952 10.84938778 15.95983495 6.42842293 16.02000427 C4.362173 16.0465381 2.29591481 16.06735652 0.229599 16.0880127 C-1.01607346 16.10473022 -2.26174591 16.12144775 -3.54516602 16.13867188 C-4.64449966 16.15119995 -5.74383331 16.16372803 -6.8764801 16.17663574 C-9.45702802 16.15599748 -9.45702802 16.15599748 -11.47265625 17.328125 C-12.25188872 35.61318081 -12.25188872 35.61318081 -8.47265625 53.328125 C-8.21742188 54.1325 -7.9621875 54.936875 -7.69921875 55.765625 C-3.47360694 67.86095421 4.69257286 78.25586027 13.52734375 87.328125 C14.18476563 88.03582031 14.8421875 88.74351562 15.51953125 89.47265625 C20.18942045 94.37697764 25.37991538 99.36973777 31.52734375 102.328125 C36.18587055 102.24425627 39.51529681 99.61228193 43.15234375 96.953125 C44.07104248 96.28591431 44.07104248 96.28591431 45.00830078 95.60522461 C65.022437 80.70777749 78.35106206 59.70562489 82.09765625 35.08984375 C82.52734375 32.328125 82.52734375 32.328125 83.12890625 29.7578125 C83.55920252 27.13384899 83.36965031 25.34574827 82.77734375 22.765625 C82.6175 22.02183594 82.45765625 21.27804688 82.29296875 20.51171875 C81.3694699 17.87786233 80.54222648 16.28168521 78.52734375 14.328125 C75.70524298 13.80325882 75.70524298 13.80325882 72.52734375 14.015625 C71.47546875 14.04011719 70.42359375 14.06460938 69.33984375 14.08984375 C66.44947068 14.27049207 63.60469709 14.52609448 60.72680664 14.82543945 Z M86.52734375 45.328125 C86.38039063 46.63523438 86.38039063 46.63523438 86.23046875 47.96875 C85.31945034 55.22548287 83.95420874 61.83842818 81.4296875 68.70703125 C80.55790906 71.23934005 79.98947963 73.69347404 79.52734375 76.328125 C80.03483154 76.57868652 80.54231934 76.82924805 81.06518555 77.08740234 C108.08202162 90.54546708 127.72479654 108.50291976 138 137.35546875 C147.58814892 166.11311057 144.20900297 196.91492622 130.8815918 223.85864258 C125.08011693 235.15640377 117.17473328 246.00677108 107.52734375 254.328125 C106.65335938 255.08222656 105.779375 255.83632813 104.87890625 256.61328125 C80.2066099 277.06004632 49.65170611 284.82449892 18.06640625 282.1171875 C-5.36400817 279.44174225 -26.81025436 268.62789391 -44.47265625 253.328125 C-45.21773438 252.68488281 -45.9628125 252.04164063 -46.73046875 251.37890625 C-61.97223418 237.15531544 -71.15295249 218.17970245 -76.47265625 198.328125 C-76.70726562 197.49539063 -76.941875 196.66265625 -77.18359375 195.8046875 C-83.69784838 168.89798359 -77.81215057 140.04646123 -64.47265625 116.328125 C-63.92867187 115.33167969 -63.3846875 114.33523437 -62.82421875 113.30859375 C-52.52349653 95.74711855 -34.60726062 82.70632646 -15.47265625 76.328125 C-16.7560096 72.32429911 -18.22412553 68.49065776 -19.91015625 64.640625 C-22.305147 58.97909362 -24.02756118 53.29648511 -25.47265625 47.328125 C-29.96737448 48.94464647 -33.25050414 51.27565418 -36.99609375 54.18359375 C-40.57662474 55.83831864 -42.66194653 55.253016 -46.47265625 54.328125 C-50.17466979 52.90269717 -53.75805306 51.222165 -57.33203125 49.50390625 C-61.5930325 47.50172773 -61.5930325 47.50172773 -66.06640625 48.20703125 C-69.27890463 51.03882771 -72.35320669 53.95415661 -75.34765625 57.015625 C-75.96390869 57.64267334 -76.58016113 58.26972168 -77.21508789 58.91577148 C-78.42782475 60.15575366 -79.63733097 61.39890542 -80.84326172 62.64550781 C-82.2106948 64.05760682 -83.59202742 65.45622762 -84.9765625 66.8515625 C-85.93369141 67.86089844 -85.93369141 67.86089844 -86.91015625 68.890625 C-87.44511719 69.44878906 -87.98007813 70.00695312 -88.53125 70.58203125 C-89.66365502 72.3286425 -89.66365502 72.3286425 -89.38671875 74.58203125 C-87.94700082 78.90733769 -85.58713838 82.7233807 -83.26757812 86.625 C-80.78862914 91.01807415 -79.7782422 94.16378523 -80.47265625 99.328125 C-81.55027647 101.77856459 -82.65094969 103.96001173 -83.97265625 106.265625 C-88.73716641 115.1081691 -91.68187358 124.4102953 -94.7109375 133.95703125 C-95.01862061 134.88636475 -95.32630371 135.81569824 -95.64331055 136.77319336 C-96.14619635 138.32241325 -96.6139501 139.88445762 -97.01489258 141.46313477 C-97.88608603 144.33149453 -98.92134853 146.02086317 -101.54858398 147.48510742 C-104.18371595 148.51706684 -106.81697057 149.35393216 -109.53515625 150.140625 C-111.36081104 150.70501095 -113.18510701 151.2738169 -115.0078125 151.84765625 C-116.22029663 152.20500854 -116.22029663 152.20500854 -117.45727539 152.56958008 C-119.66006473 153.2403979 -119.66006473 153.2403979 -121.47265625 155.328125 C-121.64753879 157.76557397 -121.7044303 160.0874858 -121.66796875 162.5234375 C-121.66513885 163.23088104 -121.66230896 163.93832458 -121.65939331 164.66720581 C-121.64818762 166.9293501 -121.62308304 169.19110015 -121.59765625 171.453125 C-121.58762692 172.98567137 -121.57850099 174.51822394 -121.5703125 176.05078125 C-121.54824711 179.81004801 -121.51371521 183.56901964 -121.47265625 187.328125 C-115.06704773 189.96357081 -108.71274737 192.23474874 -102.0390625 194.10546875 C-98.7269783 195.68337188 -97.97379363 197.00090893 -96.47265625 200.328125 C-95.72714566 202.82628878 -95.05143406 205.30446293 -94.41015625 207.828125 C-91.27397345 219.33512986 -86.25158861 231.08731839 -79.66796875 241.0625 C-78.02511264 244.17641027 -77.96029346 245.82557938 -78.47265625 249.328125 C-80.16584299 253.33104943 -82.33093422 257.08144599 -84.44921875 260.87109375 C-85.06796875 262.02931641 -85.06796875 262.02931641 -85.69921875 263.2109375 C-86.08674316 263.90590332 -86.47426758 264.60086914 -86.87353516 265.31689453 C-87.67950702 267.32940229 -87.67950702 267.32940229 -86.83081055 269.31933594 C-83.99884401 273.50797888 -80.22950491 276.89781784 -76.66015625 280.453125 C-75.85255859 281.27683594 -75.04496094 282.10054687 -74.21289062 282.94921875 C-73.42591797 283.73683594 -72.63894531 284.52445313 -71.828125 285.3359375 C-71.11293701 286.05410645 -70.39774902 286.77227539 -69.66088867 287.51220703 C-67.28318017 289.48536287 -65.46557407 290.55541661 -62.47265625 291.328125 C-60.37712619 290.8025604 -60.37712619 290.8025604 -58.4765625 289.5546875 C-57.39084961 288.9359375 -57.39084961 288.9359375 -56.28320312 288.3046875 C-55.17041992 287.63566406 -55.17041992 287.63566406 -54.03515625 286.953125 C-44.59420733 281.34627324 -44.59420733 281.34627324 -39.47265625 282.328125 C-36.41254043 283.66296535 -33.5534813 285.29258491 -30.66015625 286.953125 C-24.42433183 290.38116434 -18.26496291 293.43433461 -11.53515625 295.765625 C-10.8397876 296.00708252 -10.14441895 296.24854004 -9.42797852 296.49731445 C-5.18834132 297.90649342 -0.99640802 298.82741039 3.40234375 299.640625 C8.11572613 300.76438783 8.11572613 300.76438783 9.78515625 303.05078125 C10.61743963 305.46440305 11.06772868 307.81627518 11.52734375 310.328125 C12.18906432 312.64813327 12.877662 314.96060664 13.58984375 317.265625 C13.91082031 318.36777344 14.23179687 319.46992188 14.5625 320.60546875 C15.34438331 323.43203438 15.34438331 323.43203438 17.52734375 325.328125 C20.73548001 325.60729795 20.73548001 325.60729795 24.50390625 325.5234375 C25.18915375 325.5206076 25.87440125 325.51777771 26.58041382 325.51486206 C28.77123402 325.50365781 30.96164691 325.47855359 33.15234375 325.453125 C34.63671285 325.44309548 36.12108835 325.43396958 37.60546875 325.42578125 C41.24622636 325.40371794 44.88674531 325.36918676 48.52734375 325.328125 C51.04715826 319.95349175 53.0136612 314.75241899 54.58984375 309.015625 C56.77203415 302.87120974 56.77203415 302.87120974 59.765625 300.71875 C62.66262636 299.67153766 65.5178981 298.98506497 68.52734375 298.328125 C70.91157261 297.60800158 73.28629435 296.85590081 75.65234375 296.078125 C76.58385254 295.77563843 76.58385254 295.77563843 77.53417969 295.46704102 C86.30312527 292.52964384 95.42852644 288.72226309 103.14453125 283.5859375 C106.31482439 281.9124385 107.96528196 281.80632176 111.52734375 282.328125 C114.52984694 283.6334022 117.32772873 285.24048098 120.15234375 286.890625 C121.63805609 287.75729053 123.13006755 288.6132701 124.62890625 289.45703125 C125.28197754 289.83931885 125.93504883 290.22160645 126.60791016 290.61547852 C129.12730287 291.55087757 130.06057566 291.3996083 132.52734375 290.328125 C135.84132516 287.61647093 138.83016564 284.58272559 141.85620117 281.55517578 C143.33699157 280.08096451 144.84010683 278.63240756 146.34570312 277.18359375 C147.27833984 276.25675781 148.21097656 275.32992187 149.171875 274.375 C150.03143799 273.52776367 150.89100098 272.68052734 151.77661133 271.80761719 C153.80164895 269.47966047 153.80164895 269.47966047 153.40136719 266.73291016 C151.92564198 262.67260476 149.95462248 258.85907856 147.96679688 255.03125 C145.80361442 250.64218415 144.88490766 247.31979654 145.52734375 242.328125 C147.06640625 239.109375 147.06640625 239.109375 149.15234375 235.828125 C154.27689459 227.39422841 158.22298221 218.54004267 160.69140625 208.96484375 C163.46484627 198.3313415 163.46484627 198.3313415 166.34765625 195.609375 C168.723014 194.52249544 170.98492336 193.93397837 173.52734375 193.328125 C175.39082123 192.67580844 177.25408271 192.02245146 179.10766602 191.3425293 C180.95836247 190.66584708 182.82085897 190.02170896 184.68359375 189.37890625 C187.3911491 188.60371676 187.3911491 188.60371676 188.52734375 187.328125 C188.61578168 184.87982074 188.64263127 182.45991901 188.625 180.01171875 C188.62358505 179.28066422 188.6221701 178.54960968 188.62071228 177.79640198 C188.61509783 175.45276868 188.60254297 173.10922961 188.58984375 170.765625 C188.58483061 169.18033992 188.58026738 167.59505334 188.57617188 166.00976562 C188.56512372 162.1158489 188.54784947 158.22200295 188.52734375 154.328125 C184.32692431 152.29914419 180.48733991 150.49614994 175.8671875 149.6875 C171.82549565 148.96361489 168.53777299 148.16845237 165.52734375 145.328125 C161.92832306 138.90316589 160.37738745 131.48994912 158.45263672 124.43359375 C157.07969391 119.82572238 155.22158232 115.50296026 153.21484375 111.140625 C152.88887207 110.41786377 152.56290039 109.69510254 152.22705078 108.95043945 C150.89822509 106.06001877 149.56686805 103.38435456 147.734375 100.77734375 C145.97483182 97.20700855 146.54925796 95.15155125 147.52734375 91.328125 C149.06255739 87.79939899 150.94453086 84.46961294 152.8203125 81.11328125 C153.17996094 80.43910156 153.53960937 79.76492187 153.91015625 79.0703125 C154.24418457 78.4707373 154.57821289 77.87116211 154.92236328 77.25341797 C155.78302133 74.51445534 155.45775315 73.0446041 154.52734375 70.328125 C151.79795452 66.78659549 148.64476548 63.66005387 145.49194336 60.49658203 C143.97036708 58.9587075 142.48684265 57.3896264 141.00195312 55.81640625 C136.31966322 50.73122586 136.31966322 50.73122586 130.28051758 47.7644043 C125.67392304 48.16829607 121.32521991 50.6469071 117.33984375 52.890625 C109.73885785 57.13554718 109.73885785 57.13554718 105.52734375 56.328125 C102.87815881 55.06323932 100.43402286 53.53611889 97.96484375 51.953125 C96.65176797 51.13165041 95.33798608 50.3113032 94.0234375 49.4921875 C93.41612793 49.11094727 92.80881836 48.72970703 92.18310547 48.33691406 C90.34802736 47.21887473 88.47726624 46.23114254 86.52734375 45.328125 Z M-22.47265625 87.328125 C-23.49488281 88.13894531 -24.51710937 88.94976562 -25.5703125 89.78515625 C-46.77438992 106.88110315 -60.41026574 129.9021144 -63.47265625 157.328125 C-65.06896194 188.93058926 -58.50915987 214.02318134 -37.046875 238.04296875 C-19.81367108 256.24633823 3.65559282 267.07935033 28.7175293 267.79858398 C57.83233875 268.06344316 82.8681143 258.12555214 104.15234375 238.015625 C121.79024212 219.57791739 130.97093642 195.92325651 130.83984375 170.515625 C130.83138428 168.79388062 130.83138428 168.79388062 130.82275391 167.03735352 C130.70361544 158.7183035 130.04544152 151.30051755 127.52734375 143.328125 C127.22932861 142.34223389 127.22932861 142.34223389 126.92529297 141.33642578 C121.22397351 122.71211556 110.99476015 103.67784809 94.52734375 92.328125 C93.86734375 92.328125 93.20734375 92.328125 92.52734375 92.328125 C92.19734375 91.338125 91.86734375 90.348125 91.52734375 89.328125 C89.19866287 87.66149183 86.89987345 86.13306256 84.46484375 84.640625 C83.80162109 84.22490234 83.13839844 83.80917969 82.45507812 83.38085938 C80.81720931 82.35571846 79.17287398 81.34092232 77.52734375 80.328125 C74.38428151 83.36997951 71.53557443 86.47172439 68.78515625 89.88330078 C63.72556215 96.13856079 58.36052007 101.3128985 52.05859375 106.3046875 C50.06658471 107.8970651 48.27224841 109.47711127 46.52734375 111.328125 C47.26597656 111.85019531 48.00460937 112.37226563 48.765625 112.91015625 C70.43245074 128.63030555 83.96848604 148.53383643 89.21484375 174.765625 C90.36067708 187.828125 90.36067708 187.828125 88.52734375 193.328125 C88.88280322 195.62209484 88.88280322 195.62209484 89.52734375 198.078125 C90.71004026 203.60542092 90.65438018 207.84864485 88.27734375 213.078125 C85.05316548 217.22349706 81.55944545 218.47781516 76.52734375 219.328125 C57.04980288 221.46498313 37.33405689 221.55667797 17.76602173 221.62667847 C15.23912359 221.63594966 12.71223834 221.65002118 10.18539429 221.66897583 C6.5895585 221.69283277 2.99433837 221.69539571 -0.6015625 221.69140625 C-1.68060852 221.7005304 -2.75965454 221.70965454 -3.87139893 221.71905518 C-10.14638585 221.68108079 -14.73767333 220.89104835 -20.47265625 218.328125 C-21.46265625 217.998125 -22.45265625 217.668125 -23.47265625 217.328125 C-27.58369468 211.04065446 -27.83113566 203.70454498 -27.78515625 196.453125 C-27.77778442 195.07036377 -27.77778442 195.07036377 -27.77026367 193.65966797 C-27.33478517 167.7587465 -18.16017547 143.5609982 0.52734375 125.328125 C4.3382976 121.95740858 8.32249025 118.82710888 12.375 115.75390625 C14.64748807 114.00518867 16.55653586 112.36761759 18.52734375 110.328125 C17.48835938 109.51730469 16.449375 108.70648438 15.37890625 107.87109375 C6.02785546 100.48295556 -3.07650609 93.13894889 -9.61328125 83.01171875 C-10.53367187 81.68333984 -10.53367187 81.68333984 -11.47265625 80.328125 C-15.66628859 80.328125 -19.35390697 84.79331176 -22.47265625 87.328125 Z M10.52734375 136.328125 C9.83898437 136.99070312 9.150625 137.65328125 8.44140625 138.3359375 C-3.97442479 151.24251285 -12.73618423 170.65331731 -12.43328857 188.66973877 C-12.31921322 191.20253419 -12.17511528 193.731388 -12.015625 196.26171875 C-11.96482788 197.13662964 -11.91403076 198.01154053 -11.86169434 198.91296387 C-11.73683492 201.05163776 -11.60541799 203.18992711 -11.47265625 205.328125 C-10.56635971 205.35096054 -9.66006317 205.37379608 -8.7263031 205.39732361 C-0.12194842 205.61467517 8.48232339 205.83502477 17.08651829 206.05861568 C21.50840454 206.1734216 25.93031298 206.28712915 30.35229492 206.39819336 C34.6317809 206.50572125 38.91117853 206.61630815 43.19053459 206.72888374 C44.81089506 206.77099761 46.43128303 206.81206896 48.05169868 206.8520031 C50.34778443 206.90877978 52.64374444 206.96910205 54.93969727 207.03100586 C55.66402734 207.04934951 56.38835741 207.06769316 57.13463688 207.08659267 C60.71382613 207.19082421 64.26616918 207.36984536 67.83297729 207.68972778 C68.51786445 207.74880342 69.2027516 207.80787905 69.90839291 207.86874485 C71.76829302 208.03763148 73.62615097 208.2285982 75.48374939 208.42115784 C78.94370692 208.31539812 80.12008615 207.75730585 82.52734375 205.328125 C83.60963745 202.98884934 83.60963745 202.98884934 84.21484375 200.390625 C84.44558594 199.53597656 84.67632812 198.68132812 84.9140625 197.80078125 C85.30294239 196.23287699 85.66334677 194.65740926 85.984375 193.07421875 C86.16355469 192.49800781 86.34273438 191.92179687 86.52734375 191.328125 C87.18734375 190.998125 87.84734375 190.668125 88.52734375 190.328125 C87.86734375 189.998125 87.20734375 189.668125 86.52734375 189.328125 C85.74723084 186.97871519 85.0602054 184.64922992 84.40234375 182.265625 C80.07053832 167.66857417 72.82119802 155.30584808 63.52734375 143.328125 C62.63402344 142.17376953 62.63402344 142.17376953 61.72265625 140.99609375 C54.44912503 132.17389201 44.63031316 124.63559711 34.52734375 119.328125 C25.98877817 119.328125 16.40402207 130.6479911 10.52734375 136.328125 Z " fill="#000000" transform="translate(217.47265625,136.671875)"/>
<path d="M0 0 C2.53768739 1.79329909 3.69014528 1.65668248 6.73828125 1.38671875 C13.06151575 1.2190925 18.05131864 2.80340457 22.83984375 7.02734375 C30.57706123 15.4887343 30.42857442 23.57717088 30.05078125 34.44921875 C30.68459717 34.4035376 31.31841309 34.35785645 31.97143555 34.31079102 C40.21301546 33.98409108 47.06762668 35.87059836 54.86328125 38.38671875 C56.17033391 38.7969527 57.47788162 39.20561228 58.78588867 39.61279297 C60.8184245 40.24607276 62.85041122 40.88080205 64.88056946 41.52166748 C69.5977525 43.0094367 74.33143406 44.42761556 79.08203125 45.8046875 C111.70982292 55.28876491 111.70982292 55.28876491 123.05078125 62.44921875 C123.49808594 61.90652344 123.94539063 61.36382812 124.40625 60.8046875 C129.31120397 55.00031766 133.41296607 50.97366667 141.234375 50.24609375 C141.97816406 50.230625 142.72195313 50.21515625 143.48828125 50.19921875 C144.22949219 50.1734375 144.97070312 50.14765625 145.734375 50.12109375 C148.05078125 50.44921875 148.05078125 50.44921875 150.48046875 51.9375 C153.46595045 53.69339881 155.30502661 53.80879441 158.73828125 53.88671875 C164.79659213 54.23204998 169.60265676 55.85774361 175.05078125 58.44921875 C175.33953125 57.670625 175.62828125 56.89203125 175.92578125 56.08984375 C177.34611758 52.75599875 179.41314206 50.82741802 182.05078125 48.44921875 C182.77652344 47.77761719 183.50226563 47.10601562 184.25 46.4140625 C189.11383065 41.9625503 194.10724613 37.75851293 199.28515625 33.6796875 C202.60176374 31.00485293 205.82666046 28.23423839 209.05078125 25.44921875 C214.61694122 20.64331847 220.27326585 16.00120058 226.05078125 11.44921875 C220.77078125 10.45921875 215.49078125 9.46921875 210.05078125 8.44921875 C210.05078125 3.44921875 210.05078125 3.44921875 211.44921875 1.90234375 C212.10148437 1.5053125 212.75375 1.10828125 213.42578125 0.69921875 C214.05226563 0.291875 214.67875 -0.11546875 215.32421875 -0.53515625 C223.38408634 -3.53739919 232.94701725 -2.79126457 241.42578125 -2.86328125 C242.58722656 -2.89228516 243.74867188 -2.92128906 244.9453125 -2.95117188 C246.06035156 -2.95955078 247.17539062 -2.96792969 248.32421875 -2.9765625 C249.32888184 -2.99114502 250.33354492 -3.00572754 251.36865234 -3.02075195 C254.78845702 -2.42152348 255.96086927 -1.27448376 258.05078125 1.44921875 C258.86214428 9.4310026 256.94726302 17.80961808 255.17578125 25.57421875 C255.01464844 26.28408936 254.85351562 26.99395996 254.6875 27.7253418 C253.22973947 33.6390186 250.95172117 38.66849367 246.05078125 42.44921875 C242.86328125 42.76171875 242.86328125 42.76171875 240.05078125 42.44921875 C237.96936571 40.36780321 238.31989364 36.26314922 237.98828125 33.38671875 C237.85196289 32.24879883 237.85196289 32.24879883 237.71289062 31.08789062 C237.48834385 29.20878865 237.26907147 27.3290578 237.05078125 25.44921875 C235.09143172 26.94790617 233.13324102 28.44806605 231.17578125 29.94921875 C230.57572266 30.40844727 229.97566406 30.86767578 229.35742188 31.34082031 C226.02940146 33.89632799 222.76983856 36.50691627 219.55078125 39.19921875 C214.43994579 43.31814864 209.00650085 46.9339041 203.55078125 50.57421875 C202.67228516 51.16041992 201.79378906 51.74662109 200.88867188 52.35058594 C195.72342268 55.76519698 190.49364774 59.03431354 185.16210938 62.18310547 C183.42808607 63.22295802 181.73311413 64.32766349 180.05078125 65.44921875 C180.5303125 66.94388672 180.5303125 66.94388672 181.01953125 68.46875 C183.51576502 77.27859632 183.37866444 86.76436026 179.48828125 95.07421875 C174.81208478 103.15626324 168.09113169 108.26729196 159.16015625 111.03515625 C148.54644943 113.11858759 138.65959955 110.78304995 129.73828125 104.82421875 C123.53891563 99.79598586 119.46888772 92.24880434 118.05078125 84.44921875 C117.55963081 76.43151963 117.55963081 76.43151963 119.05078125 73.44921875 C117.94984131 73.4344751 117.94984131 73.4344751 116.82666016 73.41943359 C106.72557173 72.99214559 97.9439199 70.28179033 88.42578125 67.07421875 C86.79038425 66.53363192 85.15496733 65.99310532 83.51953125 65.45263672 C65.81369717 59.54392224 48.5295349 52.71598247 31.765625 44.48388672 C29.01766188 43.10839867 29.01766188 43.10839867 26.05078125 44.44921875 C25.02829598 45.64259293 24.05503173 46.87865513 23.11328125 48.13671875 C17.79280082 54.28852424 11.25825005 58.17460649 3.0703125 58.95703125 C-4.06292848 59.30184812 -10.43363615 58.59230886 -16.93359375 55.421875 C-18.93026946 54.45836288 -20.78735462 53.91177977 -22.94921875 53.44921875 C-23.59246094 54.18785156 -24.23570312 54.92648438 -24.8984375 55.6875 C-31.20804752 62.8158782 -37.88929804 69.02690791 -45.25341797 75.04296875 C-46.98013239 76.47485401 -48.67288554 77.93898056 -50.359375 79.41796875 C-57.40883256 85.59571919 -64.6544712 91.30410094 -72.265625 96.7734375 C-76.93229326 100.13348786 -81.43840566 103.69262559 -85.94921875 107.2578125 C-89.17971055 109.61758581 -92.44510512 111.52633639 -95.94921875 113.44921875 C-96.11850626 116.45754804 -96.11850626 116.45754804 -94.9765625 119.15234375 C-92.53328369 126.99313202 -92.56256338 136.69556238 -96.19921875 144.13671875 C-97.07924883 145.59693486 -97.99130042 147.03887252 -98.94921875 148.44921875 C-99.50609375 149.35671875 -100.06296875 150.26421875 -100.63671875 151.19921875 C-107.45742721 157.83558374 -115.74406602 161.39626276 -125.19921875 161.82421875 C-134.17003142 161.61530941 -142.04359836 158.3541622 -148.9375 152.6484375 C-155.16908561 145.83604392 -158.28811313 137.06907953 -158.16796875 127.953125 C-157.33528044 118.42181773 -153.17746765 110.69179735 -145.94921875 104.44921875 C-140.11706424 100.36138442 -133.98703347 99.23617926 -126.94921875 100.44921875 C-126.31113281 100.94292969 -125.67304687 101.43664062 -125.015625 101.9453125 C-122.19978355 103.9946489 -120.08643054 103.85192958 -116.63671875 103.94921875 C-111.32913377 104.23013823 -107.61673395 104.95264085 -102.94921875 107.44921875 C-102.69011719 106.96195312 -102.43101563 106.4746875 -102.1640625 105.97265625 C-97.02289977 97.32544064 -89.36576659 91.0874002 -81.94921875 84.44921875 C-81.00949219 83.59714844 -80.06976563 82.74507813 -79.1015625 81.8671875 C-76.72628401 79.71776751 -74.33948348 77.58194654 -71.94921875 75.44921875 C-70.30259108 73.9709364 -68.65677297 72.49175186 -67.01171875 71.01171875 C-66.17898437 70.26664062 -65.34625 69.5215625 -64.48828125 68.75390625 C-62.79648695 67.21827758 -61.12431598 65.66074702 -59.47265625 64.08203125 C-53.94986559 58.85957362 -48.2029857 54.28859459 -42.01171875 49.88671875 C-41.27751709 49.36166748 -40.54331543 48.83661621 -39.78686523 48.2956543 C-39.08891846 47.8087915 -38.39097168 47.32192871 -37.671875 46.8203125 C-37.05062744 46.3864624 -36.42937988 45.9526123 -35.78930664 45.50561523 C-33.85123278 44.3929649 -32.13208096 43.88374071 -29.94921875 43.44921875 C-30.42359375 42.39734375 -30.89796875 41.34546875 -31.38671875 40.26171875 C-34.94707686 31.8478536 -34.84505285 23.5159467 -31.99609375 14.875 C-29.07279011 8.10122552 -24.26399169 3.093757 -18.01171875 -0.73828125 C-12.54355481 -2.89240644 -4.87071179 -3.87509535 0 0 Z M-8.3828125 8.48828125 C-12.94820984 11.97660616 -15.16030863 16.08248838 -16.94921875 21.44921875 C-17.68049827 28.3064628 -17.15505002 32.91523024 -12.94921875 38.44921875 C-8.72381526 42.09843086 -4.53939492 43.711915 1.05078125 43.44921875 C6.77072571 42.23426814 10.95402935 39.54597065 15.05078125 35.44921875 C17.6706185 31.16221234 17.69561067 26.33033261 17.05078125 21.44921875 C15.1269339 15.11319454 11.32071332 11.24496278 6.05078125 7.44921875 C5.14328125 6.70671875 4.23578125 5.96421875 3.30078125 5.19921875 C-1.52451687 4.08568841 -4.24965112 6.00276108 -8.3828125 8.48828125 Z M149.68359375 58.03125 C143.06674744 61.27783347 139.39357518 64.86231115 136.05078125 71.44921875 C134.6006157 75.7997154 134.54008018 79.9025606 135.05078125 84.44921875 C137.54412628 89.43590882 141.04429074 92.94597349 146.05078125 95.44921875 C152.88324902 96.22390376 158.39722128 95.4968021 164.05078125 91.44921875 C168.33993995 86.9401032 169.4859304 83.07386184 169.38671875 76.9921875 C168.65908223 71.48414825 166.35226988 66.39978733 162.078125 62.77734375 C160.10824712 61.52545874 158.15605669 60.45372393 156.05078125 59.44921875 C155.41011719 59.04058594 154.76945312 58.63195312 154.109375 58.2109375 C152.02499996 57.22088141 152.02499996 57.22088141 149.68359375 58.03125 Z M-131.78515625 110.88671875 C-134.45894864 112.81725477 -136.22910528 114.62823266 -137.94921875 117.44921875 C-138.52671875 118.31546875 -139.10421875 119.18171875 -139.69921875 120.07421875 C-141.49414276 124.92051358 -141.62013265 129.34112425 -140.94921875 134.44921875 C-138.64862921 139.41849215 -134.98103819 143.21497634 -129.94921875 145.44921875 C-124.00755875 146.4473423 -119.0123697 145.86390195 -113.94921875 142.44921875 C-110.17881969 139.10727413 -107.40843115 136.24799745 -106.578125 131.1875 C-106.37603313 123.80520303 -108.44877462 118.40414043 -113.36328125 112.8515625 C-119.6633946 107.28077262 -124.55736334 106.59032173 -131.78515625 110.88671875 Z " fill="#000000" transform="translate(205.94921875,37.55078125)"/>
</svg>
