<?xml version="1.0" encoding="UTF-8"?>
<svg version="1.1" xmlns="http://www.w3.org/2000/svg" width="512" height="512">
<path d="M0 0 C8.845464 6.85557533 15.4969082 16.796943 17.53515625 27.96484375 C19.12860614 41.51738148 15.35186859 50.94809549 9.53515625 62.96484375 C8.67652118 64.79730472 7.81981031 66.63066831 6.96484375 68.46484375 C-0.82708636 85.03916829 -9.0975773 101.39423746 -17.34689331 117.74467468 C-19.06766723 121.15836604 -20.76750899 124.57901899 -22.41894531 128.02685547 C-22.72865768 128.66653763 -23.03837006 129.30621979 -23.35746765 129.96528625 C-24.19017009 131.68867409 -25.0135422 133.41656148 -25.83618164 135.14477539 C-29.20032357 140.96986959 -34.26730432 143.79231012 -40.46484375 145.96484375 C-43.0924387 146.22097015 -43.0924387 146.22097015 -45.95863342 146.2298584 C-47.05041901 146.23813156 -48.14220459 146.24640472 -49.26707458 146.25492859 C-50.45519241 146.25394669 -51.64331024 146.25296478 -52.86743164 146.25195312 C-54.8004144 146.26244267 -56.73339715 146.27293267 -58.66637981 146.28343964 C-60.74005275 146.29279889 -62.81368551 146.29727743 -64.88737679 146.30036926 C-69.22198331 146.30710464 -73.55643549 146.3288881 -77.89097595 146.35290527 C-87.10306225 146.40183424 -96.31518147 146.43413215 -105.52734375 146.46484375 C-115.45021894 146.49798812 -125.37303358 146.53415966 -135.29581636 146.58897448 C-139.5935331 146.61215728 -143.89114335 146.62602266 -148.18891633 146.63246918 C-150.22719505 146.63701072 -152.26539639 146.64605048 -154.3036499 146.6570282 C-156.77370899 146.67030293 -159.24381907 146.67682492 -161.71391296 146.67475891 C-175.58346733 146.77799109 -187.63171013 148.54145745 -198.27734375 158.08984375 C-206.0424782 166.47244672 -208.86511135 176.6419996 -208.7421875 187.7734375 C-207.93523347 197.05909162 -203.3894232 206.30054863 -196.6171875 212.71484375 C-188.76051176 218.96269722 -180.40763353 222.06086703 -170.39624023 222.12255859 C-169.19406357 222.13282074 -167.9918869 222.14308289 -166.75328064 222.15365601 C-165.4605574 222.16095734 -164.16783417 222.16825867 -162.8359375 222.17578125 C-161.48176781 222.18876552 -160.12760589 222.20258385 -158.77345276 222.2171936 C-153.04394532 222.2784435 -147.31445848 222.33259541 -141.5847168 222.36621094 C-138.07093491 222.38737169 -134.55752764 222.42284485 -131.04396248 222.46696854 C-129.07906769 222.48769446 -127.11403033 222.49313912 -125.14903259 222.49813843 C-111.27270721 222.68591317 -97.57823808 225.68156601 -86.9921875 235.31640625 C-75.85390321 247.33777701 -70.05122568 260.33678003 -70.25390625 276.75390625 C-71.15600903 290.48591522 -77.19529999 303.74176472 -87.46484375 312.96484375 C-96.75518582 319.98483236 -107.04297966 325.0560872 -118.79229736 325.12306213 C-120.74421494 325.13774536 -120.74421494 325.13774536 -122.73556519 325.15272522 C-124.17559778 325.15862906 -125.61563075 325.16443953 -127.05566406 325.17016602 C-128.57347885 325.17974718 -130.09129099 325.1897574 -131.60910034 325.20016479 C-135.72854981 325.22719409 -139.84801072 325.24821435 -143.96749973 325.26816678 C-148.27301172 325.29003851 -152.57848855 325.3174214 -156.88397217 325.34422302 C-165.03657539 325.39413384 -173.18919814 325.43907866 -181.34183955 325.48224539 C-190.62352015 325.53163151 -199.90516546 325.58654455 -209.18681192 325.64192498 C-228.27945644 325.75572031 -247.37213425 325.86256469 -266.46484375 325.96484375 C-266.73039062 326.57755127 -266.9959375 327.19025879 -267.26953125 327.8215332 C-267.62273437 328.6280835 -267.9759375 329.43463379 -268.33984375 330.265625 C-268.68789063 331.06395752 -269.0359375 331.86229004 -269.39453125 332.68481445 C-272.62984435 339.57682838 -277.29017143 342.64941828 -284.07421875 345.82421875 C-291.35562564 348.27372429 -299.1588588 348.23271475 -306.33984375 345.40234375 C-313.9530096 341.36183673 -319.46671931 336.11003731 -322.46484375 327.96484375 C-324.75476093 320.33178647 -323.86332375 312.10595363 -320.46484375 304.96484375 C-315.83945178 298.42160633 -310.95090961 293.8542025 -303.46484375 290.96484375 C-302.80484375 290.96484375 -302.14484375 290.96484375 -301.46484375 290.96484375 C-301.79484375 272.15484375 -302.12484375 253.34484375 -302.46484375 233.96484375 C-306.79609375 231.73734375 -311.12734375 229.50984375 -315.58984375 227.21484375 C-327.47347728 221.08332323 -339.26954147 214.81173528 -350.96972656 208.33544922 C-352.79161718 207.33465725 -354.62002927 206.34571114 -356.45214844 205.36376953 C-357.44375977 204.83122559 -358.43537109 204.29868164 -359.45703125 203.75 C-360.36565918 203.26539307 -361.27428711 202.78078613 -362.21044922 202.28149414 C-364.46484375 200.96484375 -364.46484375 200.96484375 -366.46484375 198.96484375 C-367.032225 192.72365 -367.032225 192.72365 -365.33959961 190.45996094 C-362.77965598 188.41840673 -360.05695588 187.00082748 -357.15625 185.48046875 C-356.21020905 184.98140518 -356.21020905 184.98140518 -355.24505615 184.47225952 C-353.17504437 183.38151018 -351.10117878 182.29830342 -349.02734375 181.21484375 C-347.59169973 180.45946991 -346.15640047 179.70344046 -344.72143555 178.94677734 C-341.76900442 177.39013636 -338.81549125 175.83557776 -335.86132812 174.28222656 C-329.75830522 171.06938396 -323.67461655 167.8205681 -317.59518433 164.56335449 C-315.81039026 163.60754119 -314.0245184 162.65376598 -312.23852539 161.70019531 C-311.15434326 161.11979492 -310.07016113 160.53939453 -308.953125 159.94140625 C-308.00993408 159.43689941 -307.06674316 158.93239258 -306.0949707 158.41259766 C-304.31388802 157.43220034 -302.56434241 156.39263006 -300.84838867 155.30224609 C-297.55934276 153.45676894 -295.1714967 153.55299342 -291.46484375 153.96484375 C-289.77645397 155.14778614 -289.77645397 155.14778614 -288.46484375 156.96484375 C-288.09570026 159.4267149 -288.09570026 159.4267149 -288.1040802 162.4127655 C-288.09995621 163.54438614 -288.09583221 164.67600677 -288.09158325 165.84191895 C-288.10236908 167.08413208 -288.11315491 168.32634521 -288.12426758 169.60620117 C-288.12361046 171.56732597 -288.12361046 171.56732597 -288.12294006 173.56806946 C-288.12207829 177.15467762 -288.13973326 180.74098562 -288.16066194 184.32752395 C-288.1793985 188.07513014 -288.18117679 191.82274299 -288.18473816 195.57038879 C-288.19406753 202.6677152 -288.21869331 209.76490319 -288.24878663 216.86216861 C-288.28230294 224.94187145 -288.29880966 233.02158085 -288.31387293 241.10133588 C-288.34524215 257.72258623 -288.3980199 274.34369734 -288.46484375 290.96484375 C-287.8440242 291.16309753 -287.22320465 291.36135132 -286.58357239 291.56561279 C-285.77071274 291.82981018 -284.95785309 292.09400757 -284.12036133 292.36621094 C-282.9106945 292.75640411 -282.9106945 292.75640411 -281.67658997 293.15447998 C-276.15274035 295.17836842 -271.99235207 299.71272491 -268.96484375 304.65234375 C-267.46484375 307.96484375 -267.46484375 307.96484375 -267.46484375 311.96484375 C-247.70598358 311.92761577 -227.94731553 311.86766501 -208.18860912 311.78094101 C-199.01351327 311.74119521 -189.83850264 311.70878012 -180.66333008 311.69384766 C-172.66274194 311.68080797 -164.66234165 311.65378439 -156.66185933 311.61023068 C-152.42880115 311.58766779 -148.19597422 311.57192995 -143.96285057 311.5729599 C-139.97116931 311.57370959 -135.97999824 311.55563607 -131.9884491 311.52367592 C-130.53050377 311.51521965 -129.07250093 311.51339768 -127.61454201 311.51904106 C-114.6232658 311.56259408 -103.93394389 309.36011075 -94.46484375 299.96484375 C-86.94949336 290.67343681 -83.52364626 280.90410817 -84.46484375 268.96484375 C-86.38390974 258.47503386 -91.39329846 249.66220051 -100.08984375 243.43359375 C-106.956344 239.18720544 -113.34208605 236.85680099 -121.41992188 236.80712891 C-122.62217407 236.79686676 -123.82442627 236.78660461 -125.06311035 236.77603149 C-126.36099487 236.76873016 -127.65887939 236.76142883 -128.99609375 236.75390625 C-130.35169271 236.74092619 -131.70728388 236.72710831 -133.06286621 236.7124939 C-138.80518528 236.65117259 -144.54748576 236.59711481 -150.29003906 236.56347656 C-153.80915162 236.54231453 -157.32789026 236.50683676 -160.8467865 236.46271896 C-162.81611089 236.44198513 -164.78557769 236.43654738 -166.75500488 236.43154907 C-181.13935041 236.23741163 -195.96699855 232.9146955 -206.8125 222.78515625 C-218.28235592 210.14933389 -222.98529085 197.59953447 -222.71484375 180.6796875 C-221.78010299 166.79002403 -215.46102679 155.43574965 -205.46484375 145.96484375 C-197.01277806 138.92594191 -187.17166369 133.86486869 -176.02642822 133.82008362 C-174.36951965 133.80973587 -174.36951965 133.80973587 -172.67913818 133.79917908 C-170.86811615 133.79525902 -170.86811615 133.79525902 -169.02050781 133.79125977 C-167.06299433 133.78099482 -165.10548086 133.77072774 -163.14796782 133.76038063 C-161.04550977 133.7501585 -158.94305407 133.74230236 -156.8405838 133.73504829 C-152.4525816 133.71956773 -148.0646509 133.69561734 -143.67669678 133.67015076 C-131.19954962 133.59902693 -118.72236146 133.53923917 -106.24511719 133.48803711 C-99.35243632 133.45967716 -92.4598266 133.42426482 -85.56722045 133.38138336 C-81.21069981 133.35470218 -76.85425959 133.33674098 -72.49767351 133.32534611 C-69.14064624 133.31402572 -65.78373099 133.28991733 -62.42675781 133.26782227 C-60.62788116 133.26693855 -60.62788116 133.26693855 -58.79266357 133.26603699 C-48.17779334 133.38334518 -48.17779334 133.38334518 -38.96484375 128.83984375 C-38.46984375 128.22109375 -37.97484375 127.60234375 -37.46484375 126.96484375 C-43.60531712 113.99304783 -49.87710413 101.10102223 -56.34423828 88.28955078 C-68.34944429 64.50357558 -68.34944429 64.50357558 -72.46484375 54.83984375 C-72.90812012 53.81431396 -72.90812012 53.81431396 -73.36035156 52.76806641 C-77.88795892 41.7002716 -78.4500073 31.59633624 -74.046875 20.33984375 C-67.9329045 6.82999968 -59.50341097 -0.89966389 -46.10546875 -7.1328125 C-30.64241424 -12.86480684 -13.2256635 -9.00106307 0 0 Z M-56.1875 15.84765625 C-61.36712708 22.33809805 -64.42801296 29.55148344 -64.46484375 37.96484375 C-63.75640646 41.11869676 -62.55152129 43.98222282 -61.265625 46.94140625 C-60.72872795 48.22671738 -60.72872795 48.22671738 -60.1809845 49.53799438 C-55.44343949 60.67540715 -50.03377931 71.50394068 -44.65234375 82.33984375 C-43.60544083 84.46190476 -42.55921363 86.58429926 -41.51367188 88.70703125 C-37.85107946 96.13644494 -34.17530645 103.55920977 -30.46484375 110.96484375 C-29.80484375 110.96484375 -29.14484375 110.96484375 -28.46484375 110.96484375 C-23.94364888 101.66896715 -19.42589898 92.37142739 -14.91369629 83.07118225 C-13.08817657 79.30868469 -11.26191678 75.5465568 -9.43212891 71.78613281 C-7.64747045 68.11841803 -5.86834665 64.44804736 -4.08984375 60.77734375 C-3.56173096 59.69412842 -3.03361816 58.61091309 -2.48950195 57.49487305 C4.61324856 43.16301599 4.61324856 43.16301599 3.84375 27.54296875 C0.00710198 18.2322748 -5.67187543 11.82292091 -14.46484375 6.96484375 C-15.38716797 6.45244141 -15.38716797 6.45244141 -16.328125 5.9296875 C-30.22390677 -0.46772809 -46.33779028 5.08221388 -56.1875 15.84765625 Z M-308.56640625 174.4921875 C-309.60740479 175.03335205 -310.64840332 175.5745166 -311.72094727 176.13208008 C-312.83268311 176.71626709 -313.94441895 177.3004541 -315.08984375 177.90234375 C-316.77581665 178.78345825 -316.77581665 178.78345825 -318.49584961 179.68237305 C-327.24877075 184.27720236 -335.90178277 189.02608876 -344.46484375 193.96484375 C-344.46484375 194.95484375 -344.46484375 195.94484375 -344.46484375 196.96484375 C-340.59182357 198.97421033 -336.71808658 200.98218694 -332.84375 202.98901367 C-331.53269169 203.6683425 -330.221812 204.34801617 -328.91113281 205.02807617 C-326.99984806 206.01968358 -325.08786912 207.00994227 -323.17578125 208 C-321.46334229 208.88764038 -321.46334229 208.88764038 -319.71630859 209.79321289 C-313.65276465 212.89044634 -307.55479746 215.9198669 -301.46484375 218.96484375 C-301.46484375 203.45484375 -301.46484375 187.94484375 -301.46484375 171.96484375 C-304.30604679 171.96484375 -306.04853562 173.17988357 -308.56640625 174.4921875 Z M-306.27734375 308.33984375 C-309.61706638 312.3475109 -310.69340875 315.15317652 -310.46484375 320.33984375 C-309.75900792 325.43376738 -307.34612755 328.68347735 -303.46484375 331.96484375 C-299.22514092 334.53097967 -295.30094223 334.61837057 -290.46484375 333.96484375 C-286.53184379 332.61287502 -283.85789319 330.38812776 -281.02734375 327.33984375 C-278.90628689 322.75836092 -278.67206284 318.93185883 -279.46484375 313.96484375 C-281.80709765 309.10016257 -284.71232753 306.48088175 -289.46484375 303.96484375 C-296.38550934 302.0773895 -300.87516307 303.77800228 -306.27734375 308.33984375 Z " fill="#000000" transform="translate(430.46484375,87.03515625)"/>
<path d="M0 0 C6.26260692 6.79940179 9.55976177 13.91155571 9.40234375 23.19921875 C8.72976163 30.01064131 5.94896743 36.4412831 1.1875 41.375 C-4.89534882 46.20286106 -11.69346073 48.92127547 -19.5703125 48.69140625 C-26.94269741 47.65105228 -33.73027252 44.82024373 -38.8125 39.375 C-43.76083605 31.85137188 -45.74293827 25.39508212 -44.8125 16.375 C-42.90759918 9.31444372 -39.88123865 2.80962736 -33.41015625 -1.0625 C-21.47141566 -7.23347898 -11.73828539 -6.78212045 0 0 Z M-27.8125 11.375 C-30.47734391 14.1626145 -31.706941 16.79702836 -31.96484375 20.65234375 C-31.64203727 25.62687441 -30.63230632 28.95727856 -26.8125 32.375 C-21.75808681 35.2359886 -18.43363587 35.90803706 -12.8125 34.375 C-7.97165981 31.86148682 -5.66547657 29.52215714 -3.8125 24.375 C-2.9435539 19.3785599 -4.51399446 16.20967584 -7.25 12.14453125 C-9.80933108 9.2460888 -12.11044441 8.45196163 -15.8125 7.375 C-20.75763147 7.375 -23.77252231 8.58254099 -27.8125 11.375 Z " fill="#000000" transform="translate(418.8125,103.625)"/>
</svg>
